%TF.GenerationSoftware,KiCad,Pcbnew,5.1.6*%
%TF.CreationDate,2020-06-27T21:13:43+02:00*%
%TF.ProjectId,hw,68772e6b-6963-4616-945f-706362585858,rev?*%
%TF.SameCoordinates,PX197b21e0PYf0cd820*%
%TF.FileFunction,Soldermask,Bot*%
%TF.FilePolarity,Negative*%
%FSLAX46Y46*%
G04 Gerber Fmt 4.6, Leading zero omitted, Abs format (unit mm)*
G04 Created by KiCad (PCBNEW 5.1.6) date 2020-06-27 21:13:43*
%MOMM*%
%LPD*%
G01*
G04 APERTURE LIST*
%ADD10C,5.600000*%
%ADD11O,1.800000X1.800000*%
%ADD12R,1.800000X1.800000*%
G04 APERTURE END LIST*
D10*
%TO.C,H2*%
X15500000Y-46500000D03*
%TD*%
%TO.C,H1*%
X15500000Y-1500000D03*
%TD*%
D11*
%TO.C,J2*%
X2540000Y-48260000D03*
X0Y-48260000D03*
X2540000Y-45720000D03*
X0Y-45720000D03*
X2540000Y-43180000D03*
X0Y-43180000D03*
X2540000Y-40640000D03*
X0Y-40640000D03*
X2540000Y-38100000D03*
X0Y-38100000D03*
X2540000Y-35560000D03*
X0Y-35560000D03*
X2540000Y-33020000D03*
X0Y-33020000D03*
X2540000Y-30480000D03*
X0Y-30480000D03*
X2540000Y-27940000D03*
X0Y-27940000D03*
X2540000Y-25400000D03*
X0Y-25400000D03*
X2540000Y-22860000D03*
X0Y-22860000D03*
X2540000Y-20320000D03*
X0Y-20320000D03*
X2540000Y-17780000D03*
X0Y-17780000D03*
X2540000Y-15240000D03*
X0Y-15240000D03*
X2540000Y-12700000D03*
X0Y-12700000D03*
X2540000Y-10160000D03*
X0Y-10160000D03*
X2540000Y-7620000D03*
X0Y-7620000D03*
X2540000Y-5080000D03*
X0Y-5080000D03*
X2540000Y-2540000D03*
X0Y-2540000D03*
X2540000Y0D03*
D12*
X0Y0D03*
%TD*%
M02*
