%TF.GenerationSoftware,KiCad,Pcbnew,5.1.6*%
%TF.CreationDate,2020-06-27T21:13:43+02:00*%
%TF.ProjectId,hw,68772e6b-6963-4616-945f-706362585858,rev?*%
%TF.SameCoordinates,PX197b21e0PYf0cd820*%
%TF.FileFunction,Legend,Bot*%
%TF.FilePolarity,Positive*%
%FSLAX46Y46*%
G04 Gerber Fmt 4.6, Leading zero omitted, Abs format (unit mm)*
G04 Created by KiCad (PCBNEW 5.1.6) date 2020-06-27 21:13:43*
%MOMM*%
%LPD*%
G01*
G04 APERTURE LIST*
%ADD10C,0.150000*%
G04 APERTURE END LIST*
D10*
X11882380Y-17320476D02*
X11406190Y-16987142D01*
X11882380Y-16749047D02*
X10882380Y-16749047D01*
X10882380Y-17130000D01*
X10930000Y-17225238D01*
X10977619Y-17272857D01*
X11072857Y-17320476D01*
X11215714Y-17320476D01*
X11310952Y-17272857D01*
X11358571Y-17225238D01*
X11406190Y-17130000D01*
X11406190Y-16749047D01*
X11834761Y-18130000D02*
X11882380Y-18034761D01*
X11882380Y-17844285D01*
X11834761Y-17749047D01*
X11739523Y-17701428D01*
X11358571Y-17701428D01*
X11263333Y-17749047D01*
X11215714Y-17844285D01*
X11215714Y-18034761D01*
X11263333Y-18130000D01*
X11358571Y-18177619D01*
X11453809Y-18177619D01*
X11549047Y-17701428D01*
X11215714Y-18510952D02*
X11882380Y-18749047D01*
X11215714Y-18987142D01*
X11834761Y-19749047D02*
X11882380Y-19653809D01*
X11882380Y-19463333D01*
X11834761Y-19368095D01*
X11739523Y-19320476D01*
X11358571Y-19320476D01*
X11263333Y-19368095D01*
X11215714Y-19463333D01*
X11215714Y-19653809D01*
X11263333Y-19749047D01*
X11358571Y-19796666D01*
X11453809Y-19796666D01*
X11549047Y-19320476D01*
X11882380Y-20225238D02*
X11215714Y-20225238D01*
X11406190Y-20225238D02*
X11310952Y-20272857D01*
X11263333Y-20320476D01*
X11215714Y-20415714D01*
X11215714Y-20510952D01*
X11834761Y-20796666D02*
X11882380Y-20891904D01*
X11882380Y-21082380D01*
X11834761Y-21177619D01*
X11739523Y-21225238D01*
X11691904Y-21225238D01*
X11596666Y-21177619D01*
X11549047Y-21082380D01*
X11549047Y-20939523D01*
X11501428Y-20844285D01*
X11406190Y-20796666D01*
X11358571Y-20796666D01*
X11263333Y-20844285D01*
X11215714Y-20939523D01*
X11215714Y-21082380D01*
X11263333Y-21177619D01*
X11834761Y-22034761D02*
X11882380Y-21939523D01*
X11882380Y-21749047D01*
X11834761Y-21653809D01*
X11739523Y-21606190D01*
X11358571Y-21606190D01*
X11263333Y-21653809D01*
X11215714Y-21749047D01*
X11215714Y-21939523D01*
X11263333Y-22034761D01*
X11358571Y-22082380D01*
X11453809Y-22082380D01*
X11549047Y-21606190D01*
X11882380Y-22939523D02*
X10882380Y-22939523D01*
X11834761Y-22939523D02*
X11882380Y-22844285D01*
X11882380Y-22653809D01*
X11834761Y-22558571D01*
X11787142Y-22510952D01*
X11691904Y-22463333D01*
X11406190Y-22463333D01*
X11310952Y-22510952D01*
X11263333Y-22558571D01*
X11215714Y-22653809D01*
X11215714Y-22844285D01*
X11263333Y-22939523D01*
X11215714Y-24177619D02*
X11882380Y-24177619D01*
X11310952Y-24177619D02*
X11263333Y-24225238D01*
X11215714Y-24320476D01*
X11215714Y-24463333D01*
X11263333Y-24558571D01*
X11358571Y-24606190D01*
X11882380Y-24606190D01*
X11215714Y-25510952D02*
X11882380Y-25510952D01*
X11215714Y-25082380D02*
X11739523Y-25082380D01*
X11834761Y-25130000D01*
X11882380Y-25225238D01*
X11882380Y-25368095D01*
X11834761Y-25463333D01*
X11787142Y-25510952D01*
X11882380Y-25987142D02*
X11215714Y-25987142D01*
X11310952Y-25987142D02*
X11263333Y-26034761D01*
X11215714Y-26130000D01*
X11215714Y-26272857D01*
X11263333Y-26368095D01*
X11358571Y-26415714D01*
X11882380Y-26415714D01*
X11358571Y-26415714D02*
X11263333Y-26463333D01*
X11215714Y-26558571D01*
X11215714Y-26701428D01*
X11263333Y-26796666D01*
X11358571Y-26844285D01*
X11882380Y-26844285D01*
X11882380Y-27320476D02*
X10882380Y-27320476D01*
X11263333Y-27320476D02*
X11215714Y-27415714D01*
X11215714Y-27606190D01*
X11263333Y-27701428D01*
X11310952Y-27749047D01*
X11406190Y-27796666D01*
X11691904Y-27796666D01*
X11787142Y-27749047D01*
X11834761Y-27701428D01*
X11882380Y-27606190D01*
X11882380Y-27415714D01*
X11834761Y-27320476D01*
X11834761Y-28606190D02*
X11882380Y-28510952D01*
X11882380Y-28320476D01*
X11834761Y-28225238D01*
X11739523Y-28177619D01*
X11358571Y-28177619D01*
X11263333Y-28225238D01*
X11215714Y-28320476D01*
X11215714Y-28510952D01*
X11263333Y-28606190D01*
X11358571Y-28653809D01*
X11453809Y-28653809D01*
X11549047Y-28177619D01*
X11882380Y-29082380D02*
X11215714Y-29082380D01*
X11406190Y-29082380D02*
X11310952Y-29130000D01*
X11263333Y-29177619D01*
X11215714Y-29272857D01*
X11215714Y-29368095D01*
X11882380Y-29701428D02*
X11215714Y-29701428D01*
X10882380Y-29701428D02*
X10930000Y-29653809D01*
X10977619Y-29701428D01*
X10930000Y-29749047D01*
X10882380Y-29701428D01*
X10977619Y-29701428D01*
X11215714Y-30177619D02*
X11882380Y-30177619D01*
X11310952Y-30177619D02*
X11263333Y-30225238D01*
X11215714Y-30320476D01*
X11215714Y-30463333D01*
X11263333Y-30558571D01*
X11358571Y-30606190D01*
X11882380Y-30606190D01*
X11215714Y-31510952D02*
X12025238Y-31510952D01*
X12120476Y-31463333D01*
X12168095Y-31415714D01*
X12215714Y-31320476D01*
X12215714Y-31177619D01*
X12168095Y-31082380D01*
X11834761Y-31510952D02*
X11882380Y-31415714D01*
X11882380Y-31225238D01*
X11834761Y-31130000D01*
X11787142Y-31082380D01*
X11691904Y-31034761D01*
X11406190Y-31034761D01*
X11310952Y-31082380D01*
X11263333Y-31130000D01*
X11215714Y-31225238D01*
X11215714Y-31415714D01*
X11263333Y-31510952D01*
X7492380Y-5210476D02*
X7492380Y-5020000D01*
X7540000Y-4924761D01*
X7587619Y-4877142D01*
X7730476Y-4781904D01*
X7920952Y-4734285D01*
X8301904Y-4734285D01*
X8397142Y-4781904D01*
X8444761Y-4829523D01*
X8492380Y-4924761D01*
X8492380Y-5115238D01*
X8444761Y-5210476D01*
X8397142Y-5258095D01*
X8301904Y-5305714D01*
X8063809Y-5305714D01*
X7968571Y-5258095D01*
X7920952Y-5210476D01*
X7873333Y-5115238D01*
X7873333Y-4924761D01*
X7920952Y-4829523D01*
X7968571Y-4781904D01*
X8063809Y-4734285D01*
X5952380Y-17529523D02*
X5952380Y-16958095D01*
X5952380Y-17243809D02*
X4952380Y-17243809D01*
X5095238Y-17148571D01*
X5190476Y-17053333D01*
X5238095Y-16958095D01*
X4952380Y-18434285D02*
X4952380Y-17958095D01*
X5428571Y-17910476D01*
X5380952Y-17958095D01*
X5333333Y-18053333D01*
X5333333Y-18291428D01*
X5380952Y-18386666D01*
X5428571Y-18434285D01*
X5523809Y-18481904D01*
X5761904Y-18481904D01*
X5857142Y-18434285D01*
X5904761Y-18386666D01*
X5952380Y-18291428D01*
X5952380Y-18053333D01*
X5904761Y-17958095D01*
X5857142Y-17910476D01*
X4952380Y-2146666D02*
X4952380Y-2765714D01*
X5333333Y-2432380D01*
X5333333Y-2575238D01*
X5380952Y-2670476D01*
X5428571Y-2718095D01*
X5523809Y-2765714D01*
X5761904Y-2765714D01*
X5857142Y-2718095D01*
X5904761Y-2670476D01*
X5952380Y-2575238D01*
X5952380Y-2289523D01*
X5904761Y-2194285D01*
X5857142Y-2146666D01*
X8492380Y-14989523D02*
X8492380Y-14418095D01*
X8492380Y-14703809D02*
X7492380Y-14703809D01*
X7635238Y-14608571D01*
X7730476Y-14513333D01*
X7778095Y-14418095D01*
X7825714Y-15846666D02*
X8492380Y-15846666D01*
X7444761Y-15608571D02*
X8159047Y-15370476D01*
X8159047Y-15989523D01*
X7492380Y-44850476D02*
X7492380Y-45469523D01*
X7873333Y-45136190D01*
X7873333Y-45279047D01*
X7920952Y-45374285D01*
X7968571Y-45421904D01*
X8063809Y-45469523D01*
X8301904Y-45469523D01*
X8397142Y-45421904D01*
X8444761Y-45374285D01*
X8492380Y-45279047D01*
X8492380Y-44993333D01*
X8444761Y-44898095D01*
X8397142Y-44850476D01*
X7920952Y-46040952D02*
X7873333Y-45945714D01*
X7825714Y-45898095D01*
X7730476Y-45850476D01*
X7682857Y-45850476D01*
X7587619Y-45898095D01*
X7540000Y-45945714D01*
X7492380Y-46040952D01*
X7492380Y-46231428D01*
X7540000Y-46326666D01*
X7587619Y-46374285D01*
X7682857Y-46421904D01*
X7730476Y-46421904D01*
X7825714Y-46374285D01*
X7873333Y-46326666D01*
X7920952Y-46231428D01*
X7920952Y-46040952D01*
X7968571Y-45945714D01*
X8016190Y-45898095D01*
X8111428Y-45850476D01*
X8301904Y-45850476D01*
X8397142Y-45898095D01*
X8444761Y-45945714D01*
X8492380Y-46040952D01*
X8492380Y-46231428D01*
X8444761Y-46326666D01*
X8397142Y-46374285D01*
X8301904Y-46421904D01*
X8111428Y-46421904D01*
X8016190Y-46374285D01*
X7968571Y-46326666D01*
X7920952Y-46231428D01*
X4952380Y-42310476D02*
X4952380Y-42929523D01*
X5333333Y-42596190D01*
X5333333Y-42739047D01*
X5380952Y-42834285D01*
X5428571Y-42881904D01*
X5523809Y-42929523D01*
X5761904Y-42929523D01*
X5857142Y-42881904D01*
X5904761Y-42834285D01*
X5952380Y-42739047D01*
X5952380Y-42453333D01*
X5904761Y-42358095D01*
X5857142Y-42310476D01*
X4952380Y-43834285D02*
X4952380Y-43358095D01*
X5428571Y-43310476D01*
X5380952Y-43358095D01*
X5333333Y-43453333D01*
X5333333Y-43691428D01*
X5380952Y-43786666D01*
X5428571Y-43834285D01*
X5523809Y-43881904D01*
X5761904Y-43881904D01*
X5857142Y-43834285D01*
X5904761Y-43786666D01*
X5952380Y-43691428D01*
X5952380Y-43453333D01*
X5904761Y-43358095D01*
X5857142Y-43310476D01*
X7492380Y-37230476D02*
X7492380Y-37849523D01*
X7873333Y-37516190D01*
X7873333Y-37659047D01*
X7920952Y-37754285D01*
X7968571Y-37801904D01*
X8063809Y-37849523D01*
X8301904Y-37849523D01*
X8397142Y-37801904D01*
X8444761Y-37754285D01*
X8492380Y-37659047D01*
X8492380Y-37373333D01*
X8444761Y-37278095D01*
X8397142Y-37230476D01*
X7587619Y-38230476D02*
X7540000Y-38278095D01*
X7492380Y-38373333D01*
X7492380Y-38611428D01*
X7540000Y-38706666D01*
X7587619Y-38754285D01*
X7682857Y-38801904D01*
X7778095Y-38801904D01*
X7920952Y-38754285D01*
X8492380Y-38182857D01*
X8492380Y-38801904D01*
X5047619Y-34738095D02*
X5000000Y-34785714D01*
X4952380Y-34880952D01*
X4952380Y-35119047D01*
X5000000Y-35214285D01*
X5047619Y-35261904D01*
X5142857Y-35309523D01*
X5238095Y-35309523D01*
X5380952Y-35261904D01*
X5952380Y-34690476D01*
X5952380Y-35309523D01*
X5952380Y-35785714D02*
X5952380Y-35976190D01*
X5904761Y-36071428D01*
X5857142Y-36119047D01*
X5714285Y-36214285D01*
X5523809Y-36261904D01*
X5142857Y-36261904D01*
X5047619Y-36214285D01*
X5000000Y-36166666D01*
X4952380Y-36071428D01*
X4952380Y-35880952D01*
X5000000Y-35785714D01*
X5047619Y-35738095D01*
X5142857Y-35690476D01*
X5380952Y-35690476D01*
X5476190Y-35738095D01*
X5523809Y-35785714D01*
X5571428Y-35880952D01*
X5571428Y-36071428D01*
X5523809Y-36166666D01*
X5476190Y-36214285D01*
X5380952Y-36261904D01*
X4952380Y-5258095D02*
X4952380Y-4781904D01*
X5428571Y-4734285D01*
X5380952Y-4781904D01*
X5333333Y-4877142D01*
X5333333Y-5115238D01*
X5380952Y-5210476D01*
X5428571Y-5258095D01*
X5523809Y-5305714D01*
X5761904Y-5305714D01*
X5857142Y-5258095D01*
X5904761Y-5210476D01*
X5952380Y-5115238D01*
X5952380Y-4877142D01*
X5904761Y-4781904D01*
X5857142Y-4734285D01*
X8492380Y-20069523D02*
X8492380Y-19498095D01*
X8492380Y-19783809D02*
X7492380Y-19783809D01*
X7635238Y-19688571D01*
X7730476Y-19593333D01*
X7778095Y-19498095D01*
X7920952Y-20640952D02*
X7873333Y-20545714D01*
X7825714Y-20498095D01*
X7730476Y-20450476D01*
X7682857Y-20450476D01*
X7587619Y-20498095D01*
X7540000Y-20545714D01*
X7492380Y-20640952D01*
X7492380Y-20831428D01*
X7540000Y-20926666D01*
X7587619Y-20974285D01*
X7682857Y-21021904D01*
X7730476Y-21021904D01*
X7825714Y-20974285D01*
X7873333Y-20926666D01*
X7920952Y-20831428D01*
X7920952Y-20640952D01*
X7968571Y-20545714D01*
X8016190Y-20498095D01*
X8111428Y-20450476D01*
X8301904Y-20450476D01*
X8397142Y-20498095D01*
X8444761Y-20545714D01*
X8492380Y-20640952D01*
X8492380Y-20831428D01*
X8444761Y-20926666D01*
X8397142Y-20974285D01*
X8301904Y-21021904D01*
X8111428Y-21021904D01*
X8016190Y-20974285D01*
X7968571Y-20926666D01*
X7920952Y-20831428D01*
X7920952Y-7464761D02*
X7873333Y-7369523D01*
X7825714Y-7321904D01*
X7730476Y-7274285D01*
X7682857Y-7274285D01*
X7587619Y-7321904D01*
X7540000Y-7369523D01*
X7492380Y-7464761D01*
X7492380Y-7655238D01*
X7540000Y-7750476D01*
X7587619Y-7798095D01*
X7682857Y-7845714D01*
X7730476Y-7845714D01*
X7825714Y-7798095D01*
X7873333Y-7750476D01*
X7920952Y-7655238D01*
X7920952Y-7464761D01*
X7968571Y-7369523D01*
X8016190Y-7321904D01*
X8111428Y-7274285D01*
X8301904Y-7274285D01*
X8397142Y-7321904D01*
X8444761Y-7369523D01*
X8492380Y-7464761D01*
X8492380Y-7655238D01*
X8444761Y-7750476D01*
X8397142Y-7798095D01*
X8301904Y-7845714D01*
X8111428Y-7845714D01*
X8016190Y-7798095D01*
X7968571Y-7750476D01*
X7920952Y-7655238D01*
X4952380Y-47390476D02*
X4952380Y-48009523D01*
X5333333Y-47676190D01*
X5333333Y-47819047D01*
X5380952Y-47914285D01*
X5428571Y-47961904D01*
X5523809Y-48009523D01*
X5761904Y-48009523D01*
X5857142Y-47961904D01*
X5904761Y-47914285D01*
X5952380Y-47819047D01*
X5952380Y-47533333D01*
X5904761Y-47438095D01*
X5857142Y-47390476D01*
X5952380Y-48485714D02*
X5952380Y-48676190D01*
X5904761Y-48771428D01*
X5857142Y-48819047D01*
X5714285Y-48914285D01*
X5523809Y-48961904D01*
X5142857Y-48961904D01*
X5047619Y-48914285D01*
X5000000Y-48866666D01*
X4952380Y-48771428D01*
X4952380Y-48580952D01*
X5000000Y-48485714D01*
X5047619Y-48438095D01*
X5142857Y-48390476D01*
X5380952Y-48390476D01*
X5476190Y-48438095D01*
X5523809Y-48485714D01*
X5571428Y-48580952D01*
X5571428Y-48771428D01*
X5523809Y-48866666D01*
X5476190Y-48914285D01*
X5380952Y-48961904D01*
X7492380Y-34690476D02*
X7492380Y-35309523D01*
X7873333Y-34976190D01*
X7873333Y-35119047D01*
X7920952Y-35214285D01*
X7968571Y-35261904D01*
X8063809Y-35309523D01*
X8301904Y-35309523D01*
X8397142Y-35261904D01*
X8444761Y-35214285D01*
X8492380Y-35119047D01*
X8492380Y-34833333D01*
X8444761Y-34738095D01*
X8397142Y-34690476D01*
X7492380Y-35928571D02*
X7492380Y-36023809D01*
X7540000Y-36119047D01*
X7587619Y-36166666D01*
X7682857Y-36214285D01*
X7873333Y-36261904D01*
X8111428Y-36261904D01*
X8301904Y-36214285D01*
X8397142Y-36166666D01*
X8444761Y-36119047D01*
X8492380Y-36023809D01*
X8492380Y-35928571D01*
X8444761Y-35833333D01*
X8397142Y-35785714D01*
X8301904Y-35738095D01*
X8111428Y-35690476D01*
X7873333Y-35690476D01*
X7682857Y-35738095D01*
X7587619Y-35785714D01*
X7540000Y-35833333D01*
X7492380Y-35928571D01*
X5047619Y-32198095D02*
X5000000Y-32245714D01*
X4952380Y-32340952D01*
X4952380Y-32579047D01*
X5000000Y-32674285D01*
X5047619Y-32721904D01*
X5142857Y-32769523D01*
X5238095Y-32769523D01*
X5380952Y-32721904D01*
X5952380Y-32150476D01*
X5952380Y-32769523D01*
X4952380Y-33102857D02*
X4952380Y-33769523D01*
X5952380Y-33340952D01*
X7587619Y-27118095D02*
X7540000Y-27165714D01*
X7492380Y-27260952D01*
X7492380Y-27499047D01*
X7540000Y-27594285D01*
X7587619Y-27641904D01*
X7682857Y-27689523D01*
X7778095Y-27689523D01*
X7920952Y-27641904D01*
X8492380Y-27070476D01*
X8492380Y-27689523D01*
X7825714Y-28546666D02*
X8492380Y-28546666D01*
X7444761Y-28308571D02*
X8159047Y-28070476D01*
X8159047Y-28689523D01*
X8492380Y-9909523D02*
X8492380Y-9338095D01*
X8492380Y-9623809D02*
X7492380Y-9623809D01*
X7635238Y-9528571D01*
X7730476Y-9433333D01*
X7778095Y-9338095D01*
X7492380Y-10528571D02*
X7492380Y-10623809D01*
X7540000Y-10719047D01*
X7587619Y-10766666D01*
X7682857Y-10814285D01*
X7873333Y-10861904D01*
X8111428Y-10861904D01*
X8301904Y-10814285D01*
X8397142Y-10766666D01*
X8444761Y-10719047D01*
X8492380Y-10623809D01*
X8492380Y-10528571D01*
X8444761Y-10433333D01*
X8397142Y-10385714D01*
X8301904Y-10338095D01*
X8111428Y-10290476D01*
X7873333Y-10290476D01*
X7682857Y-10338095D01*
X7587619Y-10385714D01*
X7540000Y-10433333D01*
X7492380Y-10528571D01*
X5952380Y-12449523D02*
X5952380Y-11878095D01*
X5952380Y-12163809D02*
X4952380Y-12163809D01*
X5095238Y-12068571D01*
X5190476Y-11973333D01*
X5238095Y-11878095D01*
X5952380Y-13401904D02*
X5952380Y-12830476D01*
X5952380Y-13116190D02*
X4952380Y-13116190D01*
X5095238Y-13020952D01*
X5190476Y-12925714D01*
X5238095Y-12830476D01*
X7587619Y-24578095D02*
X7540000Y-24625714D01*
X7492380Y-24720952D01*
X7492380Y-24959047D01*
X7540000Y-25054285D01*
X7587619Y-25101904D01*
X7682857Y-25149523D01*
X7778095Y-25149523D01*
X7920952Y-25101904D01*
X8492380Y-24530476D01*
X8492380Y-25149523D01*
X7587619Y-25530476D02*
X7540000Y-25578095D01*
X7492380Y-25673333D01*
X7492380Y-25911428D01*
X7540000Y-26006666D01*
X7587619Y-26054285D01*
X7682857Y-26101904D01*
X7778095Y-26101904D01*
X7920952Y-26054285D01*
X8492380Y-25482857D01*
X8492380Y-26101904D01*
X7587619Y-32198095D02*
X7540000Y-32245714D01*
X7492380Y-32340952D01*
X7492380Y-32579047D01*
X7540000Y-32674285D01*
X7587619Y-32721904D01*
X7682857Y-32769523D01*
X7778095Y-32769523D01*
X7920952Y-32721904D01*
X8492380Y-32150476D01*
X8492380Y-32769523D01*
X7920952Y-33340952D02*
X7873333Y-33245714D01*
X7825714Y-33198095D01*
X7730476Y-33150476D01*
X7682857Y-33150476D01*
X7587619Y-33198095D01*
X7540000Y-33245714D01*
X7492380Y-33340952D01*
X7492380Y-33531428D01*
X7540000Y-33626666D01*
X7587619Y-33674285D01*
X7682857Y-33721904D01*
X7730476Y-33721904D01*
X7825714Y-33674285D01*
X7873333Y-33626666D01*
X7920952Y-33531428D01*
X7920952Y-33340952D01*
X7968571Y-33245714D01*
X8016190Y-33198095D01*
X8111428Y-33150476D01*
X8301904Y-33150476D01*
X8397142Y-33198095D01*
X8444761Y-33245714D01*
X8492380Y-33340952D01*
X8492380Y-33531428D01*
X8444761Y-33626666D01*
X8397142Y-33674285D01*
X8301904Y-33721904D01*
X8111428Y-33721904D01*
X8016190Y-33674285D01*
X7968571Y-33626666D01*
X7920952Y-33531428D01*
X5047619Y-29658095D02*
X5000000Y-29705714D01*
X4952380Y-29800952D01*
X4952380Y-30039047D01*
X5000000Y-30134285D01*
X5047619Y-30181904D01*
X5142857Y-30229523D01*
X5238095Y-30229523D01*
X5380952Y-30181904D01*
X5952380Y-29610476D01*
X5952380Y-30229523D01*
X4952380Y-31134285D02*
X4952380Y-30658095D01*
X5428571Y-30610476D01*
X5380952Y-30658095D01*
X5333333Y-30753333D01*
X5333333Y-30991428D01*
X5380952Y-31086666D01*
X5428571Y-31134285D01*
X5523809Y-31181904D01*
X5761904Y-31181904D01*
X5857142Y-31134285D01*
X5904761Y-31086666D01*
X5952380Y-30991428D01*
X5952380Y-30753333D01*
X5904761Y-30658095D01*
X5857142Y-30610476D01*
X8492380Y-12449523D02*
X8492380Y-11878095D01*
X8492380Y-12163809D02*
X7492380Y-12163809D01*
X7635238Y-12068571D01*
X7730476Y-11973333D01*
X7778095Y-11878095D01*
X7587619Y-12830476D02*
X7540000Y-12878095D01*
X7492380Y-12973333D01*
X7492380Y-13211428D01*
X7540000Y-13306666D01*
X7587619Y-13354285D01*
X7682857Y-13401904D01*
X7778095Y-13401904D01*
X7920952Y-13354285D01*
X8492380Y-12782857D01*
X8492380Y-13401904D01*
X5952380Y-9909523D02*
X5952380Y-10100000D01*
X5904761Y-10195238D01*
X5857142Y-10242857D01*
X5714285Y-10338095D01*
X5523809Y-10385714D01*
X5142857Y-10385714D01*
X5047619Y-10338095D01*
X5000000Y-10290476D01*
X4952380Y-10195238D01*
X4952380Y-10004761D01*
X5000000Y-9909523D01*
X5047619Y-9861904D01*
X5142857Y-9814285D01*
X5380952Y-9814285D01*
X5476190Y-9861904D01*
X5523809Y-9909523D01*
X5571428Y-10004761D01*
X5571428Y-10195238D01*
X5523809Y-10290476D01*
X5476190Y-10338095D01*
X5380952Y-10385714D01*
X7825714Y-2670476D02*
X8492380Y-2670476D01*
X7444761Y-2432380D02*
X8159047Y-2194285D01*
X8159047Y-2813333D01*
X5952380Y-14989523D02*
X5952380Y-14418095D01*
X5952380Y-14703809D02*
X4952380Y-14703809D01*
X5095238Y-14608571D01*
X5190476Y-14513333D01*
X5238095Y-14418095D01*
X4952380Y-15322857D02*
X4952380Y-15941904D01*
X5333333Y-15608571D01*
X5333333Y-15751428D01*
X5380952Y-15846666D01*
X5428571Y-15894285D01*
X5523809Y-15941904D01*
X5761904Y-15941904D01*
X5857142Y-15894285D01*
X5904761Y-15846666D01*
X5952380Y-15751428D01*
X5952380Y-15465714D01*
X5904761Y-15370476D01*
X5857142Y-15322857D01*
X5952380Y-22609523D02*
X5952380Y-22038095D01*
X5952380Y-22323809D02*
X4952380Y-22323809D01*
X5095238Y-22228571D01*
X5190476Y-22133333D01*
X5238095Y-22038095D01*
X5952380Y-23085714D02*
X5952380Y-23276190D01*
X5904761Y-23371428D01*
X5857142Y-23419047D01*
X5714285Y-23514285D01*
X5523809Y-23561904D01*
X5142857Y-23561904D01*
X5047619Y-23514285D01*
X5000000Y-23466666D01*
X4952380Y-23371428D01*
X4952380Y-23180952D01*
X5000000Y-23085714D01*
X5047619Y-23038095D01*
X5142857Y-22990476D01*
X5380952Y-22990476D01*
X5476190Y-23038095D01*
X5523809Y-23085714D01*
X5571428Y-23180952D01*
X5571428Y-23371428D01*
X5523809Y-23466666D01*
X5476190Y-23514285D01*
X5380952Y-23561904D01*
X5047619Y-24578095D02*
X5000000Y-24625714D01*
X4952380Y-24720952D01*
X4952380Y-24959047D01*
X5000000Y-25054285D01*
X5047619Y-25101904D01*
X5142857Y-25149523D01*
X5238095Y-25149523D01*
X5380952Y-25101904D01*
X5952380Y-24530476D01*
X5952380Y-25149523D01*
X5952380Y-26101904D02*
X5952380Y-25530476D01*
X5952380Y-25816190D02*
X4952380Y-25816190D01*
X5095238Y-25720952D01*
X5190476Y-25625714D01*
X5238095Y-25530476D01*
X7587619Y345715D02*
X7540000Y298096D01*
X7492380Y202858D01*
X7492380Y-35238D01*
X7540000Y-130476D01*
X7587619Y-178095D01*
X7682857Y-225714D01*
X7778095Y-225714D01*
X7920952Y-178095D01*
X8492380Y393334D01*
X8492380Y-225714D01*
X4952380Y-7226666D02*
X4952380Y-7893333D01*
X5952380Y-7464761D01*
X5952380Y-225714D02*
X5952380Y345715D01*
X5952380Y60000D02*
X4952380Y60000D01*
X5095238Y155239D01*
X5190476Y250477D01*
X5238095Y345715D01*
X7825714Y-47914285D02*
X8492380Y-47914285D01*
X7444761Y-47676190D02*
X8159047Y-47438095D01*
X8159047Y-48057142D01*
X7492380Y-48628571D02*
X7492380Y-48723809D01*
X7540000Y-48819047D01*
X7587619Y-48866666D01*
X7682857Y-48914285D01*
X7873333Y-48961904D01*
X8111428Y-48961904D01*
X8301904Y-48914285D01*
X8397142Y-48866666D01*
X8444761Y-48819047D01*
X8492380Y-48723809D01*
X8492380Y-48628571D01*
X8444761Y-48533333D01*
X8397142Y-48485714D01*
X8301904Y-48438095D01*
X8111428Y-48390476D01*
X7873333Y-48390476D01*
X7682857Y-48438095D01*
X7587619Y-48485714D01*
X7540000Y-48533333D01*
X7492380Y-48628571D01*
X4952380Y-44850476D02*
X4952380Y-45469523D01*
X5333333Y-45136190D01*
X5333333Y-45279047D01*
X5380952Y-45374285D01*
X5428571Y-45421904D01*
X5523809Y-45469523D01*
X5761904Y-45469523D01*
X5857142Y-45421904D01*
X5904761Y-45374285D01*
X5952380Y-45279047D01*
X5952380Y-44993333D01*
X5904761Y-44898095D01*
X5857142Y-44850476D01*
X4952380Y-45802857D02*
X4952380Y-46469523D01*
X5952380Y-46040952D01*
X5952380Y-20069523D02*
X5952380Y-19498095D01*
X5952380Y-19783809D02*
X4952380Y-19783809D01*
X5095238Y-19688571D01*
X5190476Y-19593333D01*
X5238095Y-19498095D01*
X4952380Y-20402857D02*
X4952380Y-21069523D01*
X5952380Y-20640952D01*
X7587619Y-22038095D02*
X7540000Y-22085714D01*
X7492380Y-22180952D01*
X7492380Y-22419047D01*
X7540000Y-22514285D01*
X7587619Y-22561904D01*
X7682857Y-22609523D01*
X7778095Y-22609523D01*
X7920952Y-22561904D01*
X8492380Y-21990476D01*
X8492380Y-22609523D01*
X7492380Y-23228571D02*
X7492380Y-23323809D01*
X7540000Y-23419047D01*
X7587619Y-23466666D01*
X7682857Y-23514285D01*
X7873333Y-23561904D01*
X8111428Y-23561904D01*
X8301904Y-23514285D01*
X8397142Y-23466666D01*
X8444761Y-23419047D01*
X8492380Y-23323809D01*
X8492380Y-23228571D01*
X8444761Y-23133333D01*
X8397142Y-23085714D01*
X8301904Y-23038095D01*
X8111428Y-22990476D01*
X7873333Y-22990476D01*
X7682857Y-23038095D01*
X7587619Y-23085714D01*
X7540000Y-23133333D01*
X7492380Y-23228571D01*
X7492380Y-42310476D02*
X7492380Y-42929523D01*
X7873333Y-42596190D01*
X7873333Y-42739047D01*
X7920952Y-42834285D01*
X7968571Y-42881904D01*
X8063809Y-42929523D01*
X8301904Y-42929523D01*
X8397142Y-42881904D01*
X8444761Y-42834285D01*
X8492380Y-42739047D01*
X8492380Y-42453333D01*
X8444761Y-42358095D01*
X8397142Y-42310476D01*
X7492380Y-43786666D02*
X7492380Y-43596190D01*
X7540000Y-43500952D01*
X7587619Y-43453333D01*
X7730476Y-43358095D01*
X7920952Y-43310476D01*
X8301904Y-43310476D01*
X8397142Y-43358095D01*
X8444761Y-43405714D01*
X8492380Y-43500952D01*
X8492380Y-43691428D01*
X8444761Y-43786666D01*
X8397142Y-43834285D01*
X8301904Y-43881904D01*
X8063809Y-43881904D01*
X7968571Y-43834285D01*
X7920952Y-43786666D01*
X7873333Y-43691428D01*
X7873333Y-43500952D01*
X7920952Y-43405714D01*
X7968571Y-43358095D01*
X8063809Y-43310476D01*
X4952380Y-39770476D02*
X4952380Y-40389523D01*
X5333333Y-40056190D01*
X5333333Y-40199047D01*
X5380952Y-40294285D01*
X5428571Y-40341904D01*
X5523809Y-40389523D01*
X5761904Y-40389523D01*
X5857142Y-40341904D01*
X5904761Y-40294285D01*
X5952380Y-40199047D01*
X5952380Y-39913333D01*
X5904761Y-39818095D01*
X5857142Y-39770476D01*
X4952380Y-40722857D02*
X4952380Y-41341904D01*
X5333333Y-41008571D01*
X5333333Y-41151428D01*
X5380952Y-41246666D01*
X5428571Y-41294285D01*
X5523809Y-41341904D01*
X5761904Y-41341904D01*
X5857142Y-41294285D01*
X5904761Y-41246666D01*
X5952380Y-41151428D01*
X5952380Y-40865714D01*
X5904761Y-40770476D01*
X5857142Y-40722857D01*
X7587619Y-29658095D02*
X7540000Y-29705714D01*
X7492380Y-29800952D01*
X7492380Y-30039047D01*
X7540000Y-30134285D01*
X7587619Y-30181904D01*
X7682857Y-30229523D01*
X7778095Y-30229523D01*
X7920952Y-30181904D01*
X8492380Y-29610476D01*
X8492380Y-30229523D01*
X7492380Y-31086666D02*
X7492380Y-30896190D01*
X7540000Y-30800952D01*
X7587619Y-30753333D01*
X7730476Y-30658095D01*
X7920952Y-30610476D01*
X8301904Y-30610476D01*
X8397142Y-30658095D01*
X8444761Y-30705714D01*
X8492380Y-30800952D01*
X8492380Y-30991428D01*
X8444761Y-31086666D01*
X8397142Y-31134285D01*
X8301904Y-31181904D01*
X8063809Y-31181904D01*
X7968571Y-31134285D01*
X7920952Y-31086666D01*
X7873333Y-30991428D01*
X7873333Y-30800952D01*
X7920952Y-30705714D01*
X7968571Y-30658095D01*
X8063809Y-30610476D01*
X5047619Y-27118095D02*
X5000000Y-27165714D01*
X4952380Y-27260952D01*
X4952380Y-27499047D01*
X5000000Y-27594285D01*
X5047619Y-27641904D01*
X5142857Y-27689523D01*
X5238095Y-27689523D01*
X5380952Y-27641904D01*
X5952380Y-27070476D01*
X5952380Y-27689523D01*
X4952380Y-28022857D02*
X4952380Y-28641904D01*
X5333333Y-28308571D01*
X5333333Y-28451428D01*
X5380952Y-28546666D01*
X5428571Y-28594285D01*
X5523809Y-28641904D01*
X5761904Y-28641904D01*
X5857142Y-28594285D01*
X5904761Y-28546666D01*
X5952380Y-28451428D01*
X5952380Y-28165714D01*
X5904761Y-28070476D01*
X5857142Y-28022857D01*
X8492380Y-17529523D02*
X8492380Y-16958095D01*
X8492380Y-17243809D02*
X7492380Y-17243809D01*
X7635238Y-17148571D01*
X7730476Y-17053333D01*
X7778095Y-16958095D01*
X7492380Y-18386666D02*
X7492380Y-18196190D01*
X7540000Y-18100952D01*
X7587619Y-18053333D01*
X7730476Y-17958095D01*
X7920952Y-17910476D01*
X8301904Y-17910476D01*
X8397142Y-17958095D01*
X8444761Y-18005714D01*
X8492380Y-18100952D01*
X8492380Y-18291428D01*
X8444761Y-18386666D01*
X8397142Y-18434285D01*
X8301904Y-18481904D01*
X8063809Y-18481904D01*
X7968571Y-18434285D01*
X7920952Y-18386666D01*
X7873333Y-18291428D01*
X7873333Y-18100952D01*
X7920952Y-18005714D01*
X7968571Y-17958095D01*
X8063809Y-17910476D01*
X7492380Y-39770476D02*
X7492380Y-40389523D01*
X7873333Y-40056190D01*
X7873333Y-40199047D01*
X7920952Y-40294285D01*
X7968571Y-40341904D01*
X8063809Y-40389523D01*
X8301904Y-40389523D01*
X8397142Y-40341904D01*
X8444761Y-40294285D01*
X8492380Y-40199047D01*
X8492380Y-39913333D01*
X8444761Y-39818095D01*
X8397142Y-39770476D01*
X7825714Y-41246666D02*
X8492380Y-41246666D01*
X7444761Y-41008571D02*
X8159047Y-40770476D01*
X8159047Y-41389523D01*
X4952380Y-37230476D02*
X4952380Y-37849523D01*
X5333333Y-37516190D01*
X5333333Y-37659047D01*
X5380952Y-37754285D01*
X5428571Y-37801904D01*
X5523809Y-37849523D01*
X5761904Y-37849523D01*
X5857142Y-37801904D01*
X5904761Y-37754285D01*
X5952380Y-37659047D01*
X5952380Y-37373333D01*
X5904761Y-37278095D01*
X5857142Y-37230476D01*
X5952380Y-38801904D02*
X5952380Y-38230476D01*
X5952380Y-38516190D02*
X4952380Y-38516190D01*
X5095238Y-38420952D01*
X5190476Y-38325714D01*
X5238095Y-38230476D01*
M02*
