%TF.GenerationSoftware,KiCad,Pcbnew,5.1.6*%
%TF.CreationDate,2020-06-27T21:13:43+02:00*%
%TF.ProjectId,hw,68772e6b-6963-4616-945f-706362585858,rev?*%
%TF.SameCoordinates,PX197b21e0PYf0cd820*%
%TF.FileFunction,Copper,L2,Bot*%
%TF.FilePolarity,Positive*%
%FSLAX46Y46*%
G04 Gerber Fmt 4.6, Leading zero omitted, Abs format (unit mm)*
G04 Created by KiCad (PCBNEW 5.1.6) date 2020-06-27 21:13:43*
%MOMM*%
%LPD*%
G01*
G04 APERTURE LIST*
%TA.AperFunction,ComponentPad*%
%ADD10C,5.500000*%
%TD*%
%TA.AperFunction,ComponentPad*%
%ADD11O,1.700000X1.700000*%
%TD*%
%TA.AperFunction,ComponentPad*%
%ADD12R,1.700000X1.700000*%
%TD*%
G04 APERTURE END LIST*
D10*
%TO.P,H2,1*%
%TO.N,Net-(H2-Pad1)*%
X15500000Y-46500000D03*
%TD*%
%TO.P,H1,1*%
%TO.N,Net-(H1-Pad1)*%
X15500000Y-1500000D03*
%TD*%
D11*
%TO.P,J2,40*%
%TO.N,Net-(J1-Pad1)*%
X2540000Y-48260000D03*
%TO.P,J2,39*%
%TO.N,Net-(J1-Pad2)*%
X0Y-48260000D03*
%TO.P,J2,38*%
%TO.N,Net-(J1-Pad3)*%
X2540000Y-45720000D03*
%TO.P,J2,37*%
%TO.N,Net-(J1-Pad4)*%
X0Y-45720000D03*
%TO.P,J2,36*%
%TO.N,Net-(J1-Pad5)*%
X2540000Y-43180000D03*
%TO.P,J2,35*%
%TO.N,Net-(J1-Pad6)*%
X0Y-43180000D03*
%TO.P,J2,34*%
%TO.N,Net-(J1-Pad7)*%
X2540000Y-40640000D03*
%TO.P,J2,33*%
%TO.N,Net-(J1-Pad8)*%
X0Y-40640000D03*
%TO.P,J2,32*%
%TO.N,Net-(J1-Pad9)*%
X2540000Y-38100000D03*
%TO.P,J2,31*%
%TO.N,Net-(J1-Pad10)*%
X0Y-38100000D03*
%TO.P,J2,30*%
%TO.N,Net-(J1-Pad11)*%
X2540000Y-35560000D03*
%TO.P,J2,29*%
%TO.N,Net-(J1-Pad12)*%
X0Y-35560000D03*
%TO.P,J2,28*%
%TO.N,Net-(J1-Pad13)*%
X2540000Y-33020000D03*
%TO.P,J2,27*%
%TO.N,Net-(J1-Pad14)*%
X0Y-33020000D03*
%TO.P,J2,26*%
%TO.N,Net-(J1-Pad15)*%
X2540000Y-30480000D03*
%TO.P,J2,25*%
%TO.N,Net-(J1-Pad16)*%
X0Y-30480000D03*
%TO.P,J2,24*%
%TO.N,Net-(J1-Pad17)*%
X2540000Y-27940000D03*
%TO.P,J2,23*%
%TO.N,Net-(J1-Pad18)*%
X0Y-27940000D03*
%TO.P,J2,22*%
%TO.N,Net-(J1-Pad19)*%
X2540000Y-25400000D03*
%TO.P,J2,21*%
%TO.N,Net-(J1-Pad20)*%
X0Y-25400000D03*
%TO.P,J2,20*%
%TO.N,Net-(J1-Pad21)*%
X2540000Y-22860000D03*
%TO.P,J2,19*%
%TO.N,Net-(J1-Pad22)*%
X0Y-22860000D03*
%TO.P,J2,18*%
%TO.N,Net-(J1-Pad23)*%
X2540000Y-20320000D03*
%TO.P,J2,17*%
%TO.N,Net-(J1-Pad24)*%
X0Y-20320000D03*
%TO.P,J2,16*%
%TO.N,Net-(J1-Pad25)*%
X2540000Y-17780000D03*
%TO.P,J2,15*%
%TO.N,Net-(J1-Pad26)*%
X0Y-17780000D03*
%TO.P,J2,14*%
%TO.N,Net-(J1-Pad27)*%
X2540000Y-15240000D03*
%TO.P,J2,13*%
%TO.N,Net-(J1-Pad28)*%
X0Y-15240000D03*
%TO.P,J2,12*%
%TO.N,Net-(J1-Pad29)*%
X2540000Y-12700000D03*
%TO.P,J2,11*%
%TO.N,Net-(J1-Pad30)*%
X0Y-12700000D03*
%TO.P,J2,10*%
%TO.N,Net-(J1-Pad31)*%
X2540000Y-10160000D03*
%TO.P,J2,9*%
%TO.N,Net-(J1-Pad32)*%
X0Y-10160000D03*
%TO.P,J2,8*%
%TO.N,Net-(J1-Pad33)*%
X2540000Y-7620000D03*
%TO.P,J2,7*%
%TO.N,Net-(J1-Pad34)*%
X0Y-7620000D03*
%TO.P,J2,6*%
%TO.N,Net-(J1-Pad35)*%
X2540000Y-5080000D03*
%TO.P,J2,5*%
%TO.N,Net-(J1-Pad36)*%
X0Y-5080000D03*
%TO.P,J2,4*%
%TO.N,Net-(J1-Pad37)*%
X2540000Y-2540000D03*
%TO.P,J2,3*%
%TO.N,Net-(J1-Pad38)*%
X0Y-2540000D03*
%TO.P,J2,2*%
%TO.N,Net-(J1-Pad39)*%
X2540000Y0D03*
D12*
%TO.P,J2,1*%
%TO.N,Net-(J1-Pad40)*%
X0Y0D03*
%TD*%
M02*
