%TF.GenerationSoftware,KiCad,Pcbnew,5.1.6*%
%TF.CreationDate,2020-06-27T21:13:43+02:00*%
%TF.ProjectId,hw,68772e6b-6963-4616-945f-706362585858,rev?*%
%TF.SameCoordinates,PX197b21e0PYf0cd820*%
%TF.FileFunction,Copper,L1,Top*%
%TF.FilePolarity,Positive*%
%FSLAX46Y46*%
G04 Gerber Fmt 4.6, Leading zero omitted, Abs format (unit mm)*
G04 Created by KiCad (PCBNEW 5.1.6) date 2020-06-27 21:13:43*
%MOMM*%
%LPD*%
G01*
G04 APERTURE LIST*
%TA.AperFunction,ComponentPad*%
%ADD10C,5.500000*%
%TD*%
%TA.AperFunction,SMDPad,CuDef*%
%ADD11R,1.300000X0.300000*%
%TD*%
%TA.AperFunction,SMDPad,CuDef*%
%ADD12R,2.200000X25.100000*%
%TD*%
%TA.AperFunction,ComponentPad*%
%ADD13O,1.700000X1.700000*%
%TD*%
%TA.AperFunction,ComponentPad*%
%ADD14R,1.700000X1.700000*%
%TD*%
%TA.AperFunction,Conductor*%
%ADD15C,0.250000*%
%TD*%
G04 APERTURE END LIST*
D10*
%TO.P,H2,1*%
%TO.N,Net-(H2-Pad1)*%
X15500000Y-46500000D03*
%TD*%
%TO.P,H1,1*%
%TO.N,Net-(H1-Pad1)*%
X15500000Y-1500000D03*
%TD*%
D11*
%TO.P,J1,40*%
%TO.N,Net-(J1-Pad40)*%
X13050000Y-14350000D03*
%TO.P,J1,39*%
%TO.N,Net-(J1-Pad39)*%
X13050000Y-14850000D03*
%TO.P,J1,38*%
%TO.N,Net-(J1-Pad38)*%
X13050000Y-15350000D03*
%TO.P,J1,37*%
%TO.N,Net-(J1-Pad37)*%
X13050000Y-15850000D03*
%TO.P,J1,36*%
%TO.N,Net-(J1-Pad36)*%
X13050000Y-16350000D03*
%TO.P,J1,35*%
%TO.N,Net-(J1-Pad35)*%
X13050000Y-16850000D03*
%TO.P,J1,34*%
%TO.N,Net-(J1-Pad34)*%
X13050000Y-17350000D03*
%TO.P,J1,33*%
%TO.N,Net-(J1-Pad33)*%
X13050000Y-17850000D03*
%TO.P,J1,32*%
%TO.N,Net-(J1-Pad32)*%
X13050000Y-18350000D03*
%TO.P,J1,31*%
%TO.N,Net-(J1-Pad31)*%
X13050000Y-18850000D03*
%TO.P,J1,30*%
%TO.N,Net-(J1-Pad30)*%
X13050000Y-19350000D03*
%TO.P,J1,29*%
%TO.N,Net-(J1-Pad29)*%
X13050000Y-19850000D03*
%TO.P,J1,28*%
%TO.N,Net-(J1-Pad28)*%
X13050000Y-20350000D03*
%TO.P,J1,27*%
%TO.N,Net-(J1-Pad27)*%
X13050000Y-20850000D03*
%TO.P,J1,26*%
%TO.N,Net-(J1-Pad26)*%
X13050000Y-21350000D03*
%TO.P,J1,25*%
%TO.N,Net-(J1-Pad25)*%
X13050000Y-21850000D03*
%TO.P,J1,24*%
%TO.N,Net-(J1-Pad24)*%
X13050000Y-22350000D03*
%TO.P,J1,23*%
%TO.N,Net-(J1-Pad23)*%
X13050000Y-22850000D03*
%TO.P,J1,22*%
%TO.N,Net-(J1-Pad22)*%
X13050000Y-23350000D03*
%TO.P,J1,21*%
%TO.N,Net-(J1-Pad21)*%
X13050000Y-23850000D03*
%TO.P,J1,20*%
%TO.N,Net-(J1-Pad20)*%
X13050000Y-24350000D03*
%TO.P,J1,19*%
%TO.N,Net-(J1-Pad19)*%
X13050000Y-24850000D03*
%TO.P,J1,18*%
%TO.N,Net-(J1-Pad18)*%
X13050000Y-25350000D03*
%TO.P,J1,17*%
%TO.N,Net-(J1-Pad17)*%
X13050000Y-25850000D03*
%TO.P,J1,16*%
%TO.N,Net-(J1-Pad16)*%
X13050000Y-26350000D03*
%TO.P,J1,15*%
%TO.N,Net-(J1-Pad15)*%
X13050000Y-26850000D03*
%TO.P,J1,14*%
%TO.N,Net-(J1-Pad14)*%
X13050000Y-27350000D03*
%TO.P,J1,13*%
%TO.N,Net-(J1-Pad13)*%
X13050000Y-27850000D03*
%TO.P,J1,12*%
%TO.N,Net-(J1-Pad12)*%
X13050000Y-28350000D03*
%TO.P,J1,11*%
%TO.N,Net-(J1-Pad11)*%
X13050000Y-28850000D03*
%TO.P,J1,10*%
%TO.N,Net-(J1-Pad10)*%
X13050000Y-29350000D03*
%TO.P,J1,9*%
%TO.N,Net-(J1-Pad9)*%
X13050000Y-29850000D03*
%TO.P,J1,8*%
%TO.N,Net-(J1-Pad8)*%
X13050000Y-30350000D03*
%TO.P,J1,7*%
%TO.N,Net-(J1-Pad7)*%
X13050000Y-30850000D03*
%TO.P,J1,6*%
%TO.N,Net-(J1-Pad6)*%
X13050000Y-31350000D03*
%TO.P,J1,5*%
%TO.N,Net-(J1-Pad5)*%
X13050000Y-31850000D03*
%TO.P,J1,4*%
%TO.N,Net-(J1-Pad4)*%
X13050000Y-32350000D03*
%TO.P,J1,3*%
%TO.N,Net-(J1-Pad3)*%
X13050000Y-32850000D03*
%TO.P,J1,2*%
%TO.N,Net-(J1-Pad2)*%
X13050000Y-33350000D03*
%TO.P,J1,1*%
%TO.N,Net-(J1-Pad1)*%
X13050000Y-33850000D03*
D12*
%TO.P,J1,MP*%
%TO.N,N/C*%
X16300000Y-24100000D03*
%TD*%
D13*
%TO.P,J2,40*%
%TO.N,Net-(J1-Pad1)*%
X2540000Y-48260000D03*
%TO.P,J2,39*%
%TO.N,Net-(J1-Pad2)*%
X0Y-48260000D03*
%TO.P,J2,38*%
%TO.N,Net-(J1-Pad3)*%
X2540000Y-45720000D03*
%TO.P,J2,37*%
%TO.N,Net-(J1-Pad4)*%
X0Y-45720000D03*
%TO.P,J2,36*%
%TO.N,Net-(J1-Pad5)*%
X2540000Y-43180000D03*
%TO.P,J2,35*%
%TO.N,Net-(J1-Pad6)*%
X0Y-43180000D03*
%TO.P,J2,34*%
%TO.N,Net-(J1-Pad7)*%
X2540000Y-40640000D03*
%TO.P,J2,33*%
%TO.N,Net-(J1-Pad8)*%
X0Y-40640000D03*
%TO.P,J2,32*%
%TO.N,Net-(J1-Pad9)*%
X2540000Y-38100000D03*
%TO.P,J2,31*%
%TO.N,Net-(J1-Pad10)*%
X0Y-38100000D03*
%TO.P,J2,30*%
%TO.N,Net-(J1-Pad11)*%
X2540000Y-35560000D03*
%TO.P,J2,29*%
%TO.N,Net-(J1-Pad12)*%
X0Y-35560000D03*
%TO.P,J2,28*%
%TO.N,Net-(J1-Pad13)*%
X2540000Y-33020000D03*
%TO.P,J2,27*%
%TO.N,Net-(J1-Pad14)*%
X0Y-33020000D03*
%TO.P,J2,26*%
%TO.N,Net-(J1-Pad15)*%
X2540000Y-30480000D03*
%TO.P,J2,25*%
%TO.N,Net-(J1-Pad16)*%
X0Y-30480000D03*
%TO.P,J2,24*%
%TO.N,Net-(J1-Pad17)*%
X2540000Y-27940000D03*
%TO.P,J2,23*%
%TO.N,Net-(J1-Pad18)*%
X0Y-27940000D03*
%TO.P,J2,22*%
%TO.N,Net-(J1-Pad19)*%
X2540000Y-25400000D03*
%TO.P,J2,21*%
%TO.N,Net-(J1-Pad20)*%
X0Y-25400000D03*
%TO.P,J2,20*%
%TO.N,Net-(J1-Pad21)*%
X2540000Y-22860000D03*
%TO.P,J2,19*%
%TO.N,Net-(J1-Pad22)*%
X0Y-22860000D03*
%TO.P,J2,18*%
%TO.N,Net-(J1-Pad23)*%
X2540000Y-20320000D03*
%TO.P,J2,17*%
%TO.N,Net-(J1-Pad24)*%
X0Y-20320000D03*
%TO.P,J2,16*%
%TO.N,Net-(J1-Pad25)*%
X2540000Y-17780000D03*
%TO.P,J2,15*%
%TO.N,Net-(J1-Pad26)*%
X0Y-17780000D03*
%TO.P,J2,14*%
%TO.N,Net-(J1-Pad27)*%
X2540000Y-15240000D03*
%TO.P,J2,13*%
%TO.N,Net-(J1-Pad28)*%
X0Y-15240000D03*
%TO.P,J2,12*%
%TO.N,Net-(J1-Pad29)*%
X2540000Y-12700000D03*
%TO.P,J2,11*%
%TO.N,Net-(J1-Pad30)*%
X0Y-12700000D03*
%TO.P,J2,10*%
%TO.N,Net-(J1-Pad31)*%
X2540000Y-10160000D03*
%TO.P,J2,9*%
%TO.N,Net-(J1-Pad32)*%
X0Y-10160000D03*
%TO.P,J2,8*%
%TO.N,Net-(J1-Pad33)*%
X2540000Y-7620000D03*
%TO.P,J2,7*%
%TO.N,Net-(J1-Pad34)*%
X0Y-7620000D03*
%TO.P,J2,6*%
%TO.N,Net-(J1-Pad35)*%
X2540000Y-5080000D03*
%TO.P,J2,5*%
%TO.N,Net-(J1-Pad36)*%
X0Y-5080000D03*
%TO.P,J2,4*%
%TO.N,Net-(J1-Pad37)*%
X2540000Y-2540000D03*
%TO.P,J2,3*%
%TO.N,Net-(J1-Pad38)*%
X0Y-2540000D03*
%TO.P,J2,2*%
%TO.N,Net-(J1-Pad39)*%
X2540000Y0D03*
D14*
%TO.P,J2,1*%
%TO.N,Net-(J1-Pad40)*%
X0Y0D03*
%TD*%
D15*
%TO.N,Net-(J1-Pad40)*%
X3810000Y1270000D02*
X13050000Y-7970000D01*
X13050000Y-7970000D02*
X13050000Y-14350000D01*
X0Y0D02*
X1270000Y1270000D01*
X1270000Y1270000D02*
X3810000Y1270000D01*
%TO.N,Net-(J1-Pad39)*%
X3334200Y0D02*
X2540000Y0D01*
X3810000Y0D02*
X3334200Y0D01*
X12074700Y-8264700D02*
X3810000Y0D01*
X12289900Y-14850000D02*
X12074700Y-14634800D01*
X12074700Y-14634800D02*
X12074700Y-8264700D01*
X13050000Y-14850000D02*
X12289900Y-14850000D01*
%TO.N,Net-(J1-Pad38)*%
X12074700Y-15350000D02*
X11624400Y-14899700D01*
X11624400Y-14899700D02*
X11624400Y-9084400D01*
X11624400Y-9084400D02*
X3810000Y-1270000D01*
X13050000Y-15350000D02*
X12074700Y-15350000D01*
X0Y-2540000D02*
X1270000Y-1270000D01*
X1270000Y-1270000D02*
X3810000Y-1270000D01*
%TO.N,Net-(J1-Pad37)*%
X3810000Y-2540000D02*
X11174100Y-9904100D01*
X11174100Y-9904100D02*
X11174100Y-15109400D01*
X11174100Y-15109400D02*
X11914700Y-15850000D01*
X11914700Y-15850000D02*
X13050000Y-15850000D01*
X2540000Y-2540000D02*
X3810000Y-2540000D01*
%TO.N,Net-(J1-Pad36)*%
X1270000Y-3810000D02*
X0Y-5080000D01*
X3810000Y-3810000D02*
X1270000Y-3810000D01*
X10723700Y-10723700D02*
X3810000Y-3810000D01*
X10723700Y-15319000D02*
X10723700Y-10723700D01*
X11754700Y-16350000D02*
X10723700Y-15319000D01*
X13050000Y-16350000D02*
X11754700Y-16350000D01*
%TO.N,Net-(J1-Pad35)*%
X3810000Y-5080000D02*
X10273400Y-11543400D01*
X10273400Y-11543400D02*
X10273400Y-15505600D01*
X10273400Y-15505600D02*
X11617800Y-16850000D01*
X11617800Y-16850000D02*
X13050000Y-16850000D01*
X2540000Y-5080000D02*
X3810000Y-5080000D01*
%TO.N,Net-(J1-Pad34)*%
X3810000Y-6350000D02*
X9823100Y-12363100D01*
X9823100Y-12363100D02*
X9823100Y-15692200D01*
X9823100Y-15692200D02*
X11480900Y-17350000D01*
X11480900Y-17350000D02*
X12074700Y-17350000D01*
X13050000Y-17350000D02*
X12074700Y-17350000D01*
X0Y-7620000D02*
X1270000Y-6350000D01*
X1270000Y-6350000D02*
X3810000Y-6350000D01*
%TO.N,Net-(J1-Pad33)*%
X13050000Y-17850000D02*
X11344000Y-17850000D01*
X11344000Y-17850000D02*
X9372800Y-15878800D01*
X9372800Y-15878800D02*
X9372800Y-13182800D01*
X9372800Y-13182800D02*
X3810000Y-7620000D01*
X2540000Y-7620000D02*
X3810000Y-7620000D01*
%TO.N,Net-(J1-Pad32)*%
X3810000Y-8890000D02*
X8922500Y-14002500D01*
X8922500Y-14002500D02*
X8922500Y-16065400D01*
X8922500Y-16065400D02*
X11207100Y-18350000D01*
X11207100Y-18350000D02*
X12074700Y-18350000D01*
X13050000Y-18350000D02*
X12074700Y-18350000D01*
X0Y-10160000D02*
X1270000Y-8890000D01*
X1270000Y-8890000D02*
X3810000Y-8890000D01*
%TO.N,Net-(J1-Pad31)*%
X3810000Y-10160000D02*
X3334200Y-10160000D01*
X8247000Y-14597000D02*
X3810000Y-10160000D01*
X8247000Y-16026800D02*
X8247000Y-14597000D01*
X3334200Y-10160000D02*
X2540000Y-10160000D01*
X11070200Y-18850000D02*
X8247000Y-16026800D01*
X13050000Y-18850000D02*
X11070200Y-18850000D01*
%TO.N,Net-(J1-Pad30)*%
X3810000Y-11430000D02*
X7571600Y-15191600D01*
X7571600Y-15191600D02*
X7571600Y-15988300D01*
X7571600Y-15988300D02*
X10933300Y-19350000D01*
X10933300Y-19350000D02*
X13050000Y-19350000D01*
X0Y-12700000D02*
X1270000Y-11430000D01*
X1270000Y-11430000D02*
X3810000Y-11430000D01*
%TO.N,Net-(J1-Pad29)*%
X10796400Y-19850000D02*
X13050000Y-19850000D01*
X10796400Y-19850000D02*
X10650000Y-19850000D01*
X2540000Y-12700000D02*
X3810000Y-12700000D01*
X3810000Y-12700000D02*
X7100000Y-15990000D01*
X7100000Y-16300000D02*
X10650000Y-19850000D01*
X7100000Y-15990000D02*
X7100000Y-16300000D01*
%TO.N,Net-(J1-Pad28)*%
X3810000Y-13970000D02*
X10190000Y-20350000D01*
X10190000Y-20350000D02*
X13050000Y-20350000D01*
X0Y-15240000D02*
X1270000Y-13970000D01*
X1270000Y-13970000D02*
X3810000Y-13970000D01*
%TO.N,Net-(J1-Pad27)*%
X3810000Y-15240000D02*
X9420000Y-20850000D01*
X9420000Y-20850000D02*
X13050000Y-20850000D01*
X2540000Y-15240000D02*
X3810000Y-15240000D01*
%TO.N,Net-(J1-Pad26)*%
X3810000Y-16510000D02*
X8650000Y-21350000D01*
X8650000Y-21350000D02*
X13050000Y-21350000D01*
X0Y-17780000D02*
X1270000Y-16510000D01*
X1270000Y-16510000D02*
X3810000Y-16510000D01*
%TO.N,Net-(J1-Pad25)*%
X3810000Y-17780000D02*
X7880000Y-21850000D01*
X7880000Y-21850000D02*
X13050000Y-21850000D01*
X2540000Y-17780000D02*
X3810000Y-17780000D01*
%TO.N,Net-(J1-Pad24)*%
X3810000Y-19050000D02*
X7110000Y-22350000D01*
X7110000Y-22350000D02*
X13050000Y-22350000D01*
X0Y-20320000D02*
X1270000Y-19050000D01*
X1270000Y-19050000D02*
X3810000Y-19050000D01*
%TO.N,Net-(J1-Pad23)*%
X13050000Y-22850000D02*
X6340000Y-22850000D01*
X6340000Y-22850000D02*
X3810000Y-20320000D01*
X2540000Y-20320000D02*
X3810000Y-20320000D01*
%TO.N,Net-(J1-Pad22)*%
X13050000Y-23350000D02*
X5570000Y-23350000D01*
X5570000Y-23350000D02*
X3810000Y-21590000D01*
X0Y-22860000D02*
X1270000Y-21590000D01*
X1270000Y-21590000D02*
X3810000Y-21590000D01*
%TO.N,Net-(J1-Pad21)*%
X13050000Y-23850000D02*
X12074700Y-23850000D01*
X3810000Y-22860000D02*
X4800000Y-23850000D01*
X4800000Y-23850000D02*
X12074700Y-23850000D01*
X2540000Y-22860000D02*
X3810000Y-22860000D01*
%TO.N,Net-(J1-Pad20)*%
X4030000Y-24350000D02*
X13050000Y-24350000D01*
X3810000Y-24130000D02*
X4030000Y-24350000D01*
X1270000Y-24130000D02*
X3810000Y-24130000D01*
X0Y-25400000D02*
X1270000Y-24130000D01*
%TO.N,Net-(J1-Pad19)*%
X3627400Y-25400000D02*
X3810000Y-25400000D01*
X2540000Y-25400000D02*
X3627400Y-25400000D01*
X4360000Y-24850000D02*
X3810000Y-25400000D01*
X13050000Y-24850000D02*
X4360000Y-24850000D01*
%TO.N,Net-(J1-Pad18)*%
X3810000Y-26670000D02*
X5130000Y-25350000D01*
X5130000Y-25350000D02*
X13050000Y-25350000D01*
X0Y-27940000D02*
X1270000Y-26670000D01*
X1270000Y-26670000D02*
X3810000Y-26670000D01*
%TO.N,Net-(J1-Pad17)*%
X3810000Y-27940000D02*
X5900000Y-25850000D01*
X5900000Y-25850000D02*
X13050000Y-25850000D01*
X2540000Y-27940000D02*
X3810000Y-27940000D01*
%TO.N,Net-(J1-Pad16)*%
X3810000Y-29210000D02*
X6670000Y-26350000D01*
X6670000Y-26350000D02*
X13050000Y-26350000D01*
X0Y-30480000D02*
X1270000Y-29210000D01*
X1270000Y-29210000D02*
X3810000Y-29210000D01*
%TO.N,Net-(J1-Pad15)*%
X3810000Y-30480000D02*
X7440000Y-26850000D01*
X7440000Y-26850000D02*
X13050000Y-26850000D01*
X2540000Y-30480000D02*
X3810000Y-30480000D01*
%TO.N,Net-(J1-Pad14)*%
X3810000Y-31750000D02*
X8210000Y-27350000D01*
X8210000Y-27350000D02*
X13050000Y-27350000D01*
X0Y-33020000D02*
X1270000Y-31750000D01*
X1270000Y-31750000D02*
X3810000Y-31750000D01*
%TO.N,Net-(J1-Pad13)*%
X3810000Y-33020000D02*
X8980000Y-27850000D01*
X8980000Y-27850000D02*
X13050000Y-27850000D01*
X2540000Y-33020000D02*
X3810000Y-33020000D01*
%TO.N,Net-(J1-Pad12)*%
X3810000Y-34290000D02*
X9750000Y-28350000D01*
X9750000Y-28350000D02*
X13050000Y-28350000D01*
X0Y-35560000D02*
X1270000Y-34290000D01*
X1270000Y-34290000D02*
X3810000Y-34290000D01*
%TO.N,Net-(J1-Pad11)*%
X3685800Y-35560000D02*
X2540000Y-35560000D01*
X3810000Y-35560000D02*
X3685800Y-35560000D01*
X10520000Y-28850000D02*
X3810000Y-35560000D01*
X13050000Y-28850000D02*
X10520000Y-28850000D01*
%TO.N,Net-(J1-Pad10)*%
X13050000Y-29350000D02*
X10761500Y-29350000D01*
X3718400Y-36830000D02*
X3810000Y-36830000D01*
X0Y-38100000D02*
X1270000Y-36830000D01*
X1270000Y-36830000D02*
X3718400Y-36830000D01*
X10761500Y-29350000D02*
X10750000Y-29350000D01*
X10750000Y-29350000D02*
X5400000Y-34700000D01*
X3718400Y-36830000D02*
X3970000Y-36830000D01*
X5400000Y-35400000D02*
X5400000Y-34700000D01*
X3970000Y-36830000D02*
X5400000Y-35400000D01*
%TO.N,Net-(J1-Pad9)*%
X13050000Y-29850000D02*
X10916200Y-29850000D01*
X10916200Y-29850000D02*
X6198000Y-34568200D01*
X6198000Y-34568200D02*
X6198000Y-35712000D01*
X6198000Y-35712000D02*
X3810000Y-38100000D01*
X2540000Y-38100000D02*
X3810000Y-38100000D01*
%TO.N,Net-(J1-Pad8)*%
X13050000Y-30350000D02*
X11063700Y-30350000D01*
X11063700Y-30350000D02*
X6648300Y-34765400D01*
X6648300Y-34765400D02*
X6648300Y-36531700D01*
X6648300Y-36531700D02*
X3810000Y-39370000D01*
X0Y-40640000D02*
X1270000Y-39370000D01*
X1270000Y-39370000D02*
X3810000Y-39370000D01*
%TO.N,Net-(J1-Pad7)*%
X13050000Y-30850000D02*
X11272700Y-30850000D01*
X11272700Y-30850000D02*
X7548900Y-34573800D01*
X7548900Y-34573800D02*
X7548900Y-36901100D01*
X7548900Y-36901100D02*
X3810000Y-40640000D01*
X2540000Y-40640000D02*
X3810000Y-40640000D01*
%TO.N,Net-(J1-Pad6)*%
X13050000Y-31350000D02*
X11409600Y-31350000D01*
X11409600Y-31350000D02*
X7999200Y-34760400D01*
X7999200Y-34760400D02*
X7999200Y-37720800D01*
X7999200Y-37720800D02*
X3810000Y-41910000D01*
X0Y-43180000D02*
X1270000Y-41910000D01*
X1270000Y-41910000D02*
X3810000Y-41910000D01*
%TO.N,Net-(J1-Pad5)*%
X13050000Y-31850000D02*
X11546500Y-31850000D01*
X11546500Y-31850000D02*
X8449500Y-34947000D01*
X8449500Y-34947000D02*
X8449500Y-38540500D01*
X8449500Y-38540500D02*
X3810000Y-43180000D01*
X2540000Y-43180000D02*
X3810000Y-43180000D01*
%TO.N,Net-(J1-Pad4)*%
X13050000Y-32350000D02*
X11683400Y-32350000D01*
X11683400Y-32350000D02*
X9800300Y-34233100D01*
X9800300Y-34233100D02*
X9800300Y-38499700D01*
X9800300Y-38499700D02*
X3800000Y-44500000D01*
X0Y-45720000D02*
X1220000Y-44500000D01*
X1220000Y-44500000D02*
X3800000Y-44500000D01*
%TO.N,Net-(J1-Pad3)*%
X3780000Y-45720000D02*
X10250700Y-39249300D01*
X10250700Y-39249300D02*
X10250700Y-34441900D01*
X10250700Y-34441900D02*
X11842600Y-32850000D01*
X11842600Y-32850000D02*
X13050000Y-32850000D01*
X2540000Y-45720000D02*
X3780000Y-45720000D01*
%TO.N,Net-(J1-Pad2)*%
X3800000Y-47000000D02*
X10766000Y-40034000D01*
X10766000Y-40034000D02*
X10766000Y-34571200D01*
X10766000Y-34571200D02*
X11987200Y-33350000D01*
X11987200Y-33350000D02*
X13050000Y-33350000D01*
X0Y-48260000D02*
X1260000Y-47000000D01*
X1260000Y-47000000D02*
X3800000Y-47000000D01*
%TO.N,Net-(J1-Pad1)*%
X2540000Y-48260000D02*
X4640000Y-48260000D01*
X4640000Y-48260000D02*
X11600000Y-41300000D01*
X11600000Y-41300000D02*
X11600000Y-34400000D01*
X11600000Y-34400000D02*
X12150000Y-33850000D01*
X12150000Y-33850000D02*
X13050000Y-33850000D01*
%TD*%
M02*
