%TF.GenerationSoftware,KiCad,Pcbnew,5.1.6*%
%TF.CreationDate,2020-06-27T21:13:43+02:00*%
%TF.ProjectId,hw,68772e6b-6963-4616-945f-706362585858,rev?*%
%TF.SameCoordinates,PX197b21e0PYf0cd820*%
%TF.FileFunction,Legend,Top*%
%TF.FilePolarity,Positive*%
%FSLAX46Y46*%
G04 Gerber Fmt 4.6, Leading zero omitted, Abs format (unit mm)*
G04 Created by KiCad (PCBNEW 5.1.6) date 2020-06-27 21:13:43*
%MOMM*%
%LPD*%
G01*
G04 APERTURE LIST*
%ADD10C,0.150000*%
%ADD11C,0.120000*%
G04 APERTURE END LIST*
D10*
X11185714Y-13285714D02*
X11852380Y-13285714D01*
X10804761Y-13523809D02*
X11519047Y-13761904D01*
X11519047Y-13142857D01*
X10852380Y-12571428D02*
X10852380Y-12476190D01*
X10900000Y-12380952D01*
X10947619Y-12333333D01*
X11042857Y-12285714D01*
X11233333Y-12238095D01*
X11471428Y-12238095D01*
X11661904Y-12285714D01*
X11757142Y-12333333D01*
X11804761Y-12380952D01*
X11852380Y-12476190D01*
X11852380Y-12571428D01*
X11804761Y-12666666D01*
X11757142Y-12714285D01*
X11661904Y-12761904D01*
X11471428Y-12809523D01*
X11233333Y-12809523D01*
X11042857Y-12761904D01*
X10947619Y-12714285D01*
X10900000Y-12666666D01*
X10852380Y-12571428D01*
X11852380Y-34764285D02*
X11852380Y-35335714D01*
X11852380Y-35050000D02*
X10852380Y-35050000D01*
X10995238Y-35145238D01*
X11090476Y-35240476D01*
X11138095Y-35335714D01*
D11*
X11900000Y-16850000D02*
X11150000Y-16850000D01*
X11900000Y-21850000D02*
X11150000Y-21850000D01*
X11900000Y-26850000D02*
X11150000Y-26850000D01*
X11900000Y-31850000D02*
X11150000Y-31850000D01*
X11900000Y-14350000D02*
X10400000Y-14350000D01*
X11900000Y-19350000D02*
X10400000Y-19350000D01*
X11900000Y-24350000D02*
X10400000Y-24350000D01*
X11900000Y-29350000D02*
X10400000Y-29350000D01*
X11900000Y-34350000D02*
X10400000Y-34350000D01*
D10*
X17852380Y-28719047D02*
X18566666Y-28719047D01*
X18709523Y-28766666D01*
X18804761Y-28861904D01*
X18852380Y-29004761D01*
X18852380Y-29100000D01*
X18852380Y-27766666D02*
X18852380Y-28242857D01*
X17852380Y-28242857D01*
X18757142Y-26861904D02*
X18804761Y-26909523D01*
X18852380Y-27052380D01*
X18852380Y-27147619D01*
X18804761Y-27290476D01*
X18709523Y-27385714D01*
X18614285Y-27433333D01*
X18423809Y-27480952D01*
X18280952Y-27480952D01*
X18090476Y-27433333D01*
X17995238Y-27385714D01*
X17900000Y-27290476D01*
X17852380Y-27147619D01*
X17852380Y-27052380D01*
X17900000Y-26909523D01*
X17947619Y-26861904D01*
X17852380Y-26147619D02*
X18566666Y-26147619D01*
X18709523Y-26195238D01*
X18804761Y-26290476D01*
X18852380Y-26433333D01*
X18852380Y-26528571D01*
X18852380Y-25195238D02*
X18852380Y-25671428D01*
X17852380Y-25671428D01*
X18757142Y-24290476D02*
X18804761Y-24338095D01*
X18852380Y-24480952D01*
X18852380Y-24576190D01*
X18804761Y-24719047D01*
X18709523Y-24814285D01*
X18614285Y-24861904D01*
X18423809Y-24909523D01*
X18280952Y-24909523D01*
X18090476Y-24861904D01*
X17995238Y-24814285D01*
X17900000Y-24719047D01*
X17852380Y-24576190D01*
X17852380Y-24480952D01*
X17900000Y-24338095D01*
X17947619Y-24290476D01*
X17852380Y-23576190D02*
X18566666Y-23576190D01*
X18709523Y-23623809D01*
X18804761Y-23719047D01*
X18852380Y-23861904D01*
X18852380Y-23957142D01*
X18852380Y-22623809D02*
X18852380Y-23100000D01*
X17852380Y-23100000D01*
X18757142Y-21719047D02*
X18804761Y-21766666D01*
X18852380Y-21909523D01*
X18852380Y-22004761D01*
X18804761Y-22147619D01*
X18709523Y-22242857D01*
X18614285Y-22290476D01*
X18423809Y-22338095D01*
X18280952Y-22338095D01*
X18090476Y-22290476D01*
X17995238Y-22242857D01*
X17900000Y-22147619D01*
X17852380Y-22004761D01*
X17852380Y-21909523D01*
X17900000Y-21766666D01*
X17947619Y-21719047D01*
X17852380Y-21004761D02*
X18566666Y-21004761D01*
X18709523Y-21052380D01*
X18804761Y-21147619D01*
X18852380Y-21290476D01*
X18852380Y-21385714D01*
X18852380Y-20052380D02*
X18852380Y-20528571D01*
X17852380Y-20528571D01*
X18757142Y-19147619D02*
X18804761Y-19195238D01*
X18852380Y-19338095D01*
X18852380Y-19433333D01*
X18804761Y-19576190D01*
X18709523Y-19671428D01*
X18614285Y-19719047D01*
X18423809Y-19766666D01*
X18280952Y-19766666D01*
X18090476Y-19719047D01*
X17995238Y-19671428D01*
X17900000Y-19576190D01*
X17852380Y-19433333D01*
X17852380Y-19338095D01*
X17900000Y-19195238D01*
X17947619Y-19147619D01*
X7492380Y-809523D02*
X7492380Y-190476D01*
X7873333Y-523809D01*
X7873333Y-380952D01*
X7920952Y-285714D01*
X7968571Y-238095D01*
X8063809Y-190476D01*
X8301904Y-190476D01*
X8397142Y-238095D01*
X8444761Y-285714D01*
X8492380Y-380952D01*
X8492380Y-666666D01*
X8444761Y-761904D01*
X8397142Y-809523D01*
X8492380Y285715D02*
X8492380Y476191D01*
X8444761Y571429D01*
X8397142Y619048D01*
X8254285Y714286D01*
X8063809Y761905D01*
X7682857Y761905D01*
X7587619Y714286D01*
X7540000Y666667D01*
X7492380Y571429D01*
X7492380Y380953D01*
X7540000Y285715D01*
X7587619Y238096D01*
X7682857Y190477D01*
X7920952Y190477D01*
X8016190Y238096D01*
X8063809Y285715D01*
X8111428Y380953D01*
X8111428Y571429D01*
X8063809Y666667D01*
X8016190Y714286D01*
X7920952Y761905D01*
X5285714Y-285714D02*
X5952380Y-285714D01*
X4904761Y-523809D02*
X5619047Y-761904D01*
X5619047Y-142857D01*
X4952380Y428572D02*
X4952380Y523810D01*
X5000000Y619048D01*
X5047619Y666667D01*
X5142857Y714286D01*
X5333333Y761905D01*
X5571428Y761905D01*
X5761904Y714286D01*
X5857142Y666667D01*
X5904761Y619048D01*
X5952380Y523810D01*
X5952380Y428572D01*
X5904761Y333334D01*
X5857142Y285715D01*
X5761904Y238096D01*
X5571428Y190477D01*
X5333333Y190477D01*
X5142857Y238096D01*
X5047619Y285715D01*
X5000000Y333334D01*
X4952380Y428572D01*
X7492380Y-3349523D02*
X7492380Y-2730476D01*
X7873333Y-3063809D01*
X7873333Y-2920952D01*
X7920952Y-2825714D01*
X7968571Y-2778095D01*
X8063809Y-2730476D01*
X8301904Y-2730476D01*
X8397142Y-2778095D01*
X8444761Y-2825714D01*
X8492380Y-2920952D01*
X8492380Y-3206666D01*
X8444761Y-3301904D01*
X8397142Y-3349523D01*
X7492380Y-2397142D02*
X7492380Y-1730476D01*
X8492380Y-2159047D01*
X4952380Y-3349523D02*
X4952380Y-2730476D01*
X5333333Y-3063809D01*
X5333333Y-2920952D01*
X5380952Y-2825714D01*
X5428571Y-2778095D01*
X5523809Y-2730476D01*
X5761904Y-2730476D01*
X5857142Y-2778095D01*
X5904761Y-2825714D01*
X5952380Y-2920952D01*
X5952380Y-3206666D01*
X5904761Y-3301904D01*
X5857142Y-3349523D01*
X5380952Y-2159047D02*
X5333333Y-2254285D01*
X5285714Y-2301904D01*
X5190476Y-2349523D01*
X5142857Y-2349523D01*
X5047619Y-2301904D01*
X5000000Y-2254285D01*
X4952380Y-2159047D01*
X4952380Y-1968571D01*
X5000000Y-1873333D01*
X5047619Y-1825714D01*
X5142857Y-1778095D01*
X5190476Y-1778095D01*
X5285714Y-1825714D01*
X5333333Y-1873333D01*
X5380952Y-1968571D01*
X5380952Y-2159047D01*
X5428571Y-2254285D01*
X5476190Y-2301904D01*
X5571428Y-2349523D01*
X5761904Y-2349523D01*
X5857142Y-2301904D01*
X5904761Y-2254285D01*
X5952380Y-2159047D01*
X5952380Y-1968571D01*
X5904761Y-1873333D01*
X5857142Y-1825714D01*
X5761904Y-1778095D01*
X5571428Y-1778095D01*
X5476190Y-1825714D01*
X5428571Y-1873333D01*
X5380952Y-1968571D01*
X7492380Y-5889523D02*
X7492380Y-5270476D01*
X7873333Y-5603809D01*
X7873333Y-5460952D01*
X7920952Y-5365714D01*
X7968571Y-5318095D01*
X8063809Y-5270476D01*
X8301904Y-5270476D01*
X8397142Y-5318095D01*
X8444761Y-5365714D01*
X8492380Y-5460952D01*
X8492380Y-5746666D01*
X8444761Y-5841904D01*
X8397142Y-5889523D01*
X7492380Y-4365714D02*
X7492380Y-4841904D01*
X7968571Y-4889523D01*
X7920952Y-4841904D01*
X7873333Y-4746666D01*
X7873333Y-4508571D01*
X7920952Y-4413333D01*
X7968571Y-4365714D01*
X8063809Y-4318095D01*
X8301904Y-4318095D01*
X8397142Y-4365714D01*
X8444761Y-4413333D01*
X8492380Y-4508571D01*
X8492380Y-4746666D01*
X8444761Y-4841904D01*
X8397142Y-4889523D01*
X4952380Y-5889523D02*
X4952380Y-5270476D01*
X5333333Y-5603809D01*
X5333333Y-5460952D01*
X5380952Y-5365714D01*
X5428571Y-5318095D01*
X5523809Y-5270476D01*
X5761904Y-5270476D01*
X5857142Y-5318095D01*
X5904761Y-5365714D01*
X5952380Y-5460952D01*
X5952380Y-5746666D01*
X5904761Y-5841904D01*
X5857142Y-5889523D01*
X4952380Y-4413333D02*
X4952380Y-4603809D01*
X5000000Y-4699047D01*
X5047619Y-4746666D01*
X5190476Y-4841904D01*
X5380952Y-4889523D01*
X5761904Y-4889523D01*
X5857142Y-4841904D01*
X5904761Y-4794285D01*
X5952380Y-4699047D01*
X5952380Y-4508571D01*
X5904761Y-4413333D01*
X5857142Y-4365714D01*
X5761904Y-4318095D01*
X5523809Y-4318095D01*
X5428571Y-4365714D01*
X5380952Y-4413333D01*
X5333333Y-4508571D01*
X5333333Y-4699047D01*
X5380952Y-4794285D01*
X5428571Y-4841904D01*
X5523809Y-4889523D01*
X7492380Y-8429523D02*
X7492380Y-7810476D01*
X7873333Y-8143809D01*
X7873333Y-8000952D01*
X7920952Y-7905714D01*
X7968571Y-7858095D01*
X8063809Y-7810476D01*
X8301904Y-7810476D01*
X8397142Y-7858095D01*
X8444761Y-7905714D01*
X8492380Y-8000952D01*
X8492380Y-8286666D01*
X8444761Y-8381904D01*
X8397142Y-8429523D01*
X7492380Y-7477142D02*
X7492380Y-6858095D01*
X7873333Y-7191428D01*
X7873333Y-7048571D01*
X7920952Y-6953333D01*
X7968571Y-6905714D01*
X8063809Y-6858095D01*
X8301904Y-6858095D01*
X8397142Y-6905714D01*
X8444761Y-6953333D01*
X8492380Y-7048571D01*
X8492380Y-7334285D01*
X8444761Y-7429523D01*
X8397142Y-7477142D01*
X4952380Y-8429523D02*
X4952380Y-7810476D01*
X5333333Y-8143809D01*
X5333333Y-8000952D01*
X5380952Y-7905714D01*
X5428571Y-7858095D01*
X5523809Y-7810476D01*
X5761904Y-7810476D01*
X5857142Y-7858095D01*
X5904761Y-7905714D01*
X5952380Y-8000952D01*
X5952380Y-8286666D01*
X5904761Y-8381904D01*
X5857142Y-8429523D01*
X5285714Y-6953333D02*
X5952380Y-6953333D01*
X4904761Y-7191428D02*
X5619047Y-7429523D01*
X5619047Y-6810476D01*
X7492380Y-10969523D02*
X7492380Y-10350476D01*
X7873333Y-10683809D01*
X7873333Y-10540952D01*
X7920952Y-10445714D01*
X7968571Y-10398095D01*
X8063809Y-10350476D01*
X8301904Y-10350476D01*
X8397142Y-10398095D01*
X8444761Y-10445714D01*
X8492380Y-10540952D01*
X8492380Y-10826666D01*
X8444761Y-10921904D01*
X8397142Y-10969523D01*
X8492380Y-9398095D02*
X8492380Y-9969523D01*
X8492380Y-9683809D02*
X7492380Y-9683809D01*
X7635238Y-9779047D01*
X7730476Y-9874285D01*
X7778095Y-9969523D01*
X4952380Y-10969523D02*
X4952380Y-10350476D01*
X5333333Y-10683809D01*
X5333333Y-10540952D01*
X5380952Y-10445714D01*
X5428571Y-10398095D01*
X5523809Y-10350476D01*
X5761904Y-10350476D01*
X5857142Y-10398095D01*
X5904761Y-10445714D01*
X5952380Y-10540952D01*
X5952380Y-10826666D01*
X5904761Y-10921904D01*
X5857142Y-10969523D01*
X5047619Y-9969523D02*
X5000000Y-9921904D01*
X4952380Y-9826666D01*
X4952380Y-9588571D01*
X5000000Y-9493333D01*
X5047619Y-9445714D01*
X5142857Y-9398095D01*
X5238095Y-9398095D01*
X5380952Y-9445714D01*
X5952380Y-10017142D01*
X5952380Y-9398095D01*
X7587619Y-13461904D02*
X7540000Y-13414285D01*
X7492380Y-13319047D01*
X7492380Y-13080952D01*
X7540000Y-12985714D01*
X7587619Y-12938095D01*
X7682857Y-12890476D01*
X7778095Y-12890476D01*
X7920952Y-12938095D01*
X8492380Y-13509523D01*
X8492380Y-12890476D01*
X8492380Y-12414285D02*
X8492380Y-12223809D01*
X8444761Y-12128571D01*
X8397142Y-12080952D01*
X8254285Y-11985714D01*
X8063809Y-11938095D01*
X7682857Y-11938095D01*
X7587619Y-11985714D01*
X7540000Y-12033333D01*
X7492380Y-12128571D01*
X7492380Y-12319047D01*
X7540000Y-12414285D01*
X7587619Y-12461904D01*
X7682857Y-12509523D01*
X7920952Y-12509523D01*
X8016190Y-12461904D01*
X8063809Y-12414285D01*
X8111428Y-12319047D01*
X8111428Y-12128571D01*
X8063809Y-12033333D01*
X8016190Y-11985714D01*
X7920952Y-11938095D01*
X4952380Y-13509523D02*
X4952380Y-12890476D01*
X5333333Y-13223809D01*
X5333333Y-13080952D01*
X5380952Y-12985714D01*
X5428571Y-12938095D01*
X5523809Y-12890476D01*
X5761904Y-12890476D01*
X5857142Y-12938095D01*
X5904761Y-12985714D01*
X5952380Y-13080952D01*
X5952380Y-13366666D01*
X5904761Y-13461904D01*
X5857142Y-13509523D01*
X4952380Y-12271428D02*
X4952380Y-12176190D01*
X5000000Y-12080952D01*
X5047619Y-12033333D01*
X5142857Y-11985714D01*
X5333333Y-11938095D01*
X5571428Y-11938095D01*
X5761904Y-11985714D01*
X5857142Y-12033333D01*
X5904761Y-12080952D01*
X5952380Y-12176190D01*
X5952380Y-12271428D01*
X5904761Y-12366666D01*
X5857142Y-12414285D01*
X5761904Y-12461904D01*
X5571428Y-12509523D01*
X5333333Y-12509523D01*
X5142857Y-12461904D01*
X5047619Y-12414285D01*
X5000000Y-12366666D01*
X4952380Y-12271428D01*
X7587619Y-16001904D02*
X7540000Y-15954285D01*
X7492380Y-15859047D01*
X7492380Y-15620952D01*
X7540000Y-15525714D01*
X7587619Y-15478095D01*
X7682857Y-15430476D01*
X7778095Y-15430476D01*
X7920952Y-15478095D01*
X8492380Y-16049523D01*
X8492380Y-15430476D01*
X7492380Y-15097142D02*
X7492380Y-14430476D01*
X8492380Y-14859047D01*
X5047619Y-16001904D02*
X5000000Y-15954285D01*
X4952380Y-15859047D01*
X4952380Y-15620952D01*
X5000000Y-15525714D01*
X5047619Y-15478095D01*
X5142857Y-15430476D01*
X5238095Y-15430476D01*
X5380952Y-15478095D01*
X5952380Y-16049523D01*
X5952380Y-15430476D01*
X5380952Y-14859047D02*
X5333333Y-14954285D01*
X5285714Y-15001904D01*
X5190476Y-15049523D01*
X5142857Y-15049523D01*
X5047619Y-15001904D01*
X5000000Y-14954285D01*
X4952380Y-14859047D01*
X4952380Y-14668571D01*
X5000000Y-14573333D01*
X5047619Y-14525714D01*
X5142857Y-14478095D01*
X5190476Y-14478095D01*
X5285714Y-14525714D01*
X5333333Y-14573333D01*
X5380952Y-14668571D01*
X5380952Y-14859047D01*
X5428571Y-14954285D01*
X5476190Y-15001904D01*
X5571428Y-15049523D01*
X5761904Y-15049523D01*
X5857142Y-15001904D01*
X5904761Y-14954285D01*
X5952380Y-14859047D01*
X5952380Y-14668571D01*
X5904761Y-14573333D01*
X5857142Y-14525714D01*
X5761904Y-14478095D01*
X5571428Y-14478095D01*
X5476190Y-14525714D01*
X5428571Y-14573333D01*
X5380952Y-14668571D01*
X7587619Y-18541904D02*
X7540000Y-18494285D01*
X7492380Y-18399047D01*
X7492380Y-18160952D01*
X7540000Y-18065714D01*
X7587619Y-18018095D01*
X7682857Y-17970476D01*
X7778095Y-17970476D01*
X7920952Y-18018095D01*
X8492380Y-18589523D01*
X8492380Y-17970476D01*
X7492380Y-17065714D02*
X7492380Y-17541904D01*
X7968571Y-17589523D01*
X7920952Y-17541904D01*
X7873333Y-17446666D01*
X7873333Y-17208571D01*
X7920952Y-17113333D01*
X7968571Y-17065714D01*
X8063809Y-17018095D01*
X8301904Y-17018095D01*
X8397142Y-17065714D01*
X8444761Y-17113333D01*
X8492380Y-17208571D01*
X8492380Y-17446666D01*
X8444761Y-17541904D01*
X8397142Y-17589523D01*
X5047619Y-18541904D02*
X5000000Y-18494285D01*
X4952380Y-18399047D01*
X4952380Y-18160952D01*
X5000000Y-18065714D01*
X5047619Y-18018095D01*
X5142857Y-17970476D01*
X5238095Y-17970476D01*
X5380952Y-18018095D01*
X5952380Y-18589523D01*
X5952380Y-17970476D01*
X4952380Y-17113333D02*
X4952380Y-17303809D01*
X5000000Y-17399047D01*
X5047619Y-17446666D01*
X5190476Y-17541904D01*
X5380952Y-17589523D01*
X5761904Y-17589523D01*
X5857142Y-17541904D01*
X5904761Y-17494285D01*
X5952380Y-17399047D01*
X5952380Y-17208571D01*
X5904761Y-17113333D01*
X5857142Y-17065714D01*
X5761904Y-17018095D01*
X5523809Y-17018095D01*
X5428571Y-17065714D01*
X5380952Y-17113333D01*
X5333333Y-17208571D01*
X5333333Y-17399047D01*
X5380952Y-17494285D01*
X5428571Y-17541904D01*
X5523809Y-17589523D01*
X7587619Y-21081904D02*
X7540000Y-21034285D01*
X7492380Y-20939047D01*
X7492380Y-20700952D01*
X7540000Y-20605714D01*
X7587619Y-20558095D01*
X7682857Y-20510476D01*
X7778095Y-20510476D01*
X7920952Y-20558095D01*
X8492380Y-21129523D01*
X8492380Y-20510476D01*
X7492380Y-20177142D02*
X7492380Y-19558095D01*
X7873333Y-19891428D01*
X7873333Y-19748571D01*
X7920952Y-19653333D01*
X7968571Y-19605714D01*
X8063809Y-19558095D01*
X8301904Y-19558095D01*
X8397142Y-19605714D01*
X8444761Y-19653333D01*
X8492380Y-19748571D01*
X8492380Y-20034285D01*
X8444761Y-20129523D01*
X8397142Y-20177142D01*
X5047619Y-21081904D02*
X5000000Y-21034285D01*
X4952380Y-20939047D01*
X4952380Y-20700952D01*
X5000000Y-20605714D01*
X5047619Y-20558095D01*
X5142857Y-20510476D01*
X5238095Y-20510476D01*
X5380952Y-20558095D01*
X5952380Y-21129523D01*
X5952380Y-20510476D01*
X5285714Y-19653333D02*
X5952380Y-19653333D01*
X4904761Y-19891428D02*
X5619047Y-20129523D01*
X5619047Y-19510476D01*
X7587619Y-23621904D02*
X7540000Y-23574285D01*
X7492380Y-23479047D01*
X7492380Y-23240952D01*
X7540000Y-23145714D01*
X7587619Y-23098095D01*
X7682857Y-23050476D01*
X7778095Y-23050476D01*
X7920952Y-23098095D01*
X8492380Y-23669523D01*
X8492380Y-23050476D01*
X8492380Y-22098095D02*
X8492380Y-22669523D01*
X8492380Y-22383809D02*
X7492380Y-22383809D01*
X7635238Y-22479047D01*
X7730476Y-22574285D01*
X7778095Y-22669523D01*
X5047619Y-23621904D02*
X5000000Y-23574285D01*
X4952380Y-23479047D01*
X4952380Y-23240952D01*
X5000000Y-23145714D01*
X5047619Y-23098095D01*
X5142857Y-23050476D01*
X5238095Y-23050476D01*
X5380952Y-23098095D01*
X5952380Y-23669523D01*
X5952380Y-23050476D01*
X5047619Y-22669523D02*
X5000000Y-22621904D01*
X4952380Y-22526666D01*
X4952380Y-22288571D01*
X5000000Y-22193333D01*
X5047619Y-22145714D01*
X5142857Y-22098095D01*
X5238095Y-22098095D01*
X5380952Y-22145714D01*
X5952380Y-22717142D01*
X5952380Y-22098095D01*
X8492380Y-25590476D02*
X8492380Y-26161904D01*
X8492380Y-25876190D02*
X7492380Y-25876190D01*
X7635238Y-25971428D01*
X7730476Y-26066666D01*
X7778095Y-26161904D01*
X8492380Y-25114285D02*
X8492380Y-24923809D01*
X8444761Y-24828571D01*
X8397142Y-24780952D01*
X8254285Y-24685714D01*
X8063809Y-24638095D01*
X7682857Y-24638095D01*
X7587619Y-24685714D01*
X7540000Y-24733333D01*
X7492380Y-24828571D01*
X7492380Y-25019047D01*
X7540000Y-25114285D01*
X7587619Y-25161904D01*
X7682857Y-25209523D01*
X7920952Y-25209523D01*
X8016190Y-25161904D01*
X8063809Y-25114285D01*
X8111428Y-25019047D01*
X8111428Y-24828571D01*
X8063809Y-24733333D01*
X8016190Y-24685714D01*
X7920952Y-24638095D01*
X5047619Y-26161904D02*
X5000000Y-26114285D01*
X4952380Y-26019047D01*
X4952380Y-25780952D01*
X5000000Y-25685714D01*
X5047619Y-25638095D01*
X5142857Y-25590476D01*
X5238095Y-25590476D01*
X5380952Y-25638095D01*
X5952380Y-26209523D01*
X5952380Y-25590476D01*
X4952380Y-24971428D02*
X4952380Y-24876190D01*
X5000000Y-24780952D01*
X5047619Y-24733333D01*
X5142857Y-24685714D01*
X5333333Y-24638095D01*
X5571428Y-24638095D01*
X5761904Y-24685714D01*
X5857142Y-24733333D01*
X5904761Y-24780952D01*
X5952380Y-24876190D01*
X5952380Y-24971428D01*
X5904761Y-25066666D01*
X5857142Y-25114285D01*
X5761904Y-25161904D01*
X5571428Y-25209523D01*
X5333333Y-25209523D01*
X5142857Y-25161904D01*
X5047619Y-25114285D01*
X5000000Y-25066666D01*
X4952380Y-24971428D01*
X8492380Y-28130476D02*
X8492380Y-28701904D01*
X8492380Y-28416190D02*
X7492380Y-28416190D01*
X7635238Y-28511428D01*
X7730476Y-28606666D01*
X7778095Y-28701904D01*
X7492380Y-27797142D02*
X7492380Y-27130476D01*
X8492380Y-27559047D01*
X5952380Y-28130476D02*
X5952380Y-28701904D01*
X5952380Y-28416190D02*
X4952380Y-28416190D01*
X5095238Y-28511428D01*
X5190476Y-28606666D01*
X5238095Y-28701904D01*
X5380952Y-27559047D02*
X5333333Y-27654285D01*
X5285714Y-27701904D01*
X5190476Y-27749523D01*
X5142857Y-27749523D01*
X5047619Y-27701904D01*
X5000000Y-27654285D01*
X4952380Y-27559047D01*
X4952380Y-27368571D01*
X5000000Y-27273333D01*
X5047619Y-27225714D01*
X5142857Y-27178095D01*
X5190476Y-27178095D01*
X5285714Y-27225714D01*
X5333333Y-27273333D01*
X5380952Y-27368571D01*
X5380952Y-27559047D01*
X5428571Y-27654285D01*
X5476190Y-27701904D01*
X5571428Y-27749523D01*
X5761904Y-27749523D01*
X5857142Y-27701904D01*
X5904761Y-27654285D01*
X5952380Y-27559047D01*
X5952380Y-27368571D01*
X5904761Y-27273333D01*
X5857142Y-27225714D01*
X5761904Y-27178095D01*
X5571428Y-27178095D01*
X5476190Y-27225714D01*
X5428571Y-27273333D01*
X5380952Y-27368571D01*
X8492380Y-30670476D02*
X8492380Y-31241904D01*
X8492380Y-30956190D02*
X7492380Y-30956190D01*
X7635238Y-31051428D01*
X7730476Y-31146666D01*
X7778095Y-31241904D01*
X7492380Y-29765714D02*
X7492380Y-30241904D01*
X7968571Y-30289523D01*
X7920952Y-30241904D01*
X7873333Y-30146666D01*
X7873333Y-29908571D01*
X7920952Y-29813333D01*
X7968571Y-29765714D01*
X8063809Y-29718095D01*
X8301904Y-29718095D01*
X8397142Y-29765714D01*
X8444761Y-29813333D01*
X8492380Y-29908571D01*
X8492380Y-30146666D01*
X8444761Y-30241904D01*
X8397142Y-30289523D01*
X5952380Y-30670476D02*
X5952380Y-31241904D01*
X5952380Y-30956190D02*
X4952380Y-30956190D01*
X5095238Y-31051428D01*
X5190476Y-31146666D01*
X5238095Y-31241904D01*
X4952380Y-29813333D02*
X4952380Y-30003809D01*
X5000000Y-30099047D01*
X5047619Y-30146666D01*
X5190476Y-30241904D01*
X5380952Y-30289523D01*
X5761904Y-30289523D01*
X5857142Y-30241904D01*
X5904761Y-30194285D01*
X5952380Y-30099047D01*
X5952380Y-29908571D01*
X5904761Y-29813333D01*
X5857142Y-29765714D01*
X5761904Y-29718095D01*
X5523809Y-29718095D01*
X5428571Y-29765714D01*
X5380952Y-29813333D01*
X5333333Y-29908571D01*
X5333333Y-30099047D01*
X5380952Y-30194285D01*
X5428571Y-30241904D01*
X5523809Y-30289523D01*
X8492380Y-33210476D02*
X8492380Y-33781904D01*
X8492380Y-33496190D02*
X7492380Y-33496190D01*
X7635238Y-33591428D01*
X7730476Y-33686666D01*
X7778095Y-33781904D01*
X7492380Y-32877142D02*
X7492380Y-32258095D01*
X7873333Y-32591428D01*
X7873333Y-32448571D01*
X7920952Y-32353333D01*
X7968571Y-32305714D01*
X8063809Y-32258095D01*
X8301904Y-32258095D01*
X8397142Y-32305714D01*
X8444761Y-32353333D01*
X8492380Y-32448571D01*
X8492380Y-32734285D01*
X8444761Y-32829523D01*
X8397142Y-32877142D01*
X5952380Y-33210476D02*
X5952380Y-33781904D01*
X5952380Y-33496190D02*
X4952380Y-33496190D01*
X5095238Y-33591428D01*
X5190476Y-33686666D01*
X5238095Y-33781904D01*
X5285714Y-32353333D02*
X5952380Y-32353333D01*
X4904761Y-32591428D02*
X5619047Y-32829523D01*
X5619047Y-32210476D01*
X8492380Y-35750476D02*
X8492380Y-36321904D01*
X8492380Y-36036190D02*
X7492380Y-36036190D01*
X7635238Y-36131428D01*
X7730476Y-36226666D01*
X7778095Y-36321904D01*
X8492380Y-34798095D02*
X8492380Y-35369523D01*
X8492380Y-35083809D02*
X7492380Y-35083809D01*
X7635238Y-35179047D01*
X7730476Y-35274285D01*
X7778095Y-35369523D01*
X5952380Y-35750476D02*
X5952380Y-36321904D01*
X5952380Y-36036190D02*
X4952380Y-36036190D01*
X5095238Y-36131428D01*
X5190476Y-36226666D01*
X5238095Y-36321904D01*
X5047619Y-35369523D02*
X5000000Y-35321904D01*
X4952380Y-35226666D01*
X4952380Y-34988571D01*
X5000000Y-34893333D01*
X5047619Y-34845714D01*
X5142857Y-34798095D01*
X5238095Y-34798095D01*
X5380952Y-34845714D01*
X5952380Y-35417142D01*
X5952380Y-34798095D01*
X8492380Y-38290476D02*
X8492380Y-38100000D01*
X8444761Y-38004761D01*
X8397142Y-37957142D01*
X8254285Y-37861904D01*
X8063809Y-37814285D01*
X7682857Y-37814285D01*
X7587619Y-37861904D01*
X7540000Y-37909523D01*
X7492380Y-38004761D01*
X7492380Y-38195238D01*
X7540000Y-38290476D01*
X7587619Y-38338095D01*
X7682857Y-38385714D01*
X7920952Y-38385714D01*
X8016190Y-38338095D01*
X8063809Y-38290476D01*
X8111428Y-38195238D01*
X8111428Y-38004761D01*
X8063809Y-37909523D01*
X8016190Y-37861904D01*
X7920952Y-37814285D01*
X5952380Y-38290476D02*
X5952380Y-38861904D01*
X5952380Y-38576190D02*
X4952380Y-38576190D01*
X5095238Y-38671428D01*
X5190476Y-38766666D01*
X5238095Y-38861904D01*
X4952380Y-37671428D02*
X4952380Y-37576190D01*
X5000000Y-37480952D01*
X5047619Y-37433333D01*
X5142857Y-37385714D01*
X5333333Y-37338095D01*
X5571428Y-37338095D01*
X5761904Y-37385714D01*
X5857142Y-37433333D01*
X5904761Y-37480952D01*
X5952380Y-37576190D01*
X5952380Y-37671428D01*
X5904761Y-37766666D01*
X5857142Y-37814285D01*
X5761904Y-37861904D01*
X5571428Y-37909523D01*
X5333333Y-37909523D01*
X5142857Y-37861904D01*
X5047619Y-37814285D01*
X5000000Y-37766666D01*
X4952380Y-37671428D01*
X7492380Y-40973333D02*
X7492380Y-40306666D01*
X8492380Y-40735238D01*
X5380952Y-40735238D02*
X5333333Y-40830476D01*
X5285714Y-40878095D01*
X5190476Y-40925714D01*
X5142857Y-40925714D01*
X5047619Y-40878095D01*
X5000000Y-40830476D01*
X4952380Y-40735238D01*
X4952380Y-40544761D01*
X5000000Y-40449523D01*
X5047619Y-40401904D01*
X5142857Y-40354285D01*
X5190476Y-40354285D01*
X5285714Y-40401904D01*
X5333333Y-40449523D01*
X5380952Y-40544761D01*
X5380952Y-40735238D01*
X5428571Y-40830476D01*
X5476190Y-40878095D01*
X5571428Y-40925714D01*
X5761904Y-40925714D01*
X5857142Y-40878095D01*
X5904761Y-40830476D01*
X5952380Y-40735238D01*
X5952380Y-40544761D01*
X5904761Y-40449523D01*
X5857142Y-40401904D01*
X5761904Y-40354285D01*
X5571428Y-40354285D01*
X5476190Y-40401904D01*
X5428571Y-40449523D01*
X5380952Y-40544761D01*
X7492380Y-42941904D02*
X7492380Y-43418095D01*
X7968571Y-43465714D01*
X7920952Y-43418095D01*
X7873333Y-43322857D01*
X7873333Y-43084761D01*
X7920952Y-42989523D01*
X7968571Y-42941904D01*
X8063809Y-42894285D01*
X8301904Y-42894285D01*
X8397142Y-42941904D01*
X8444761Y-42989523D01*
X8492380Y-43084761D01*
X8492380Y-43322857D01*
X8444761Y-43418095D01*
X8397142Y-43465714D01*
X4952380Y-42989523D02*
X4952380Y-43180000D01*
X5000000Y-43275238D01*
X5047619Y-43322857D01*
X5190476Y-43418095D01*
X5380952Y-43465714D01*
X5761904Y-43465714D01*
X5857142Y-43418095D01*
X5904761Y-43370476D01*
X5952380Y-43275238D01*
X5952380Y-43084761D01*
X5904761Y-42989523D01*
X5857142Y-42941904D01*
X5761904Y-42894285D01*
X5523809Y-42894285D01*
X5428571Y-42941904D01*
X5380952Y-42989523D01*
X5333333Y-43084761D01*
X5333333Y-43275238D01*
X5380952Y-43370476D01*
X5428571Y-43418095D01*
X5523809Y-43465714D01*
X7492380Y-46053333D02*
X7492380Y-45434285D01*
X7873333Y-45767619D01*
X7873333Y-45624761D01*
X7920952Y-45529523D01*
X7968571Y-45481904D01*
X8063809Y-45434285D01*
X8301904Y-45434285D01*
X8397142Y-45481904D01*
X8444761Y-45529523D01*
X8492380Y-45624761D01*
X8492380Y-45910476D01*
X8444761Y-46005714D01*
X8397142Y-46053333D01*
X5285714Y-45529523D02*
X5952380Y-45529523D01*
X4904761Y-45767619D02*
X5619047Y-46005714D01*
X5619047Y-45386666D01*
X8492380Y-47974285D02*
X8492380Y-48545714D01*
X8492380Y-48260000D02*
X7492380Y-48260000D01*
X7635238Y-48355238D01*
X7730476Y-48450476D01*
X7778095Y-48545714D01*
X5047619Y-48545714D02*
X5000000Y-48498095D01*
X4952380Y-48402857D01*
X4952380Y-48164761D01*
X5000000Y-48069523D01*
X5047619Y-48021904D01*
X5142857Y-47974285D01*
X5238095Y-47974285D01*
X5380952Y-48021904D01*
X5952380Y-48593333D01*
X5952380Y-47974285D01*
D11*
%TO.C,J1*%
X13600000Y-34260000D02*
X12400000Y-34260000D01*
X19400000Y-12450000D02*
X17660000Y-12450000D01*
X19400000Y-35750000D02*
X19400000Y-12450000D01*
X17660000Y-35750000D02*
X19400000Y-35750000D01*
X13600000Y-12450000D02*
X14940000Y-12450000D01*
X13600000Y-13940000D02*
X13600000Y-12450000D01*
X13600000Y-35750000D02*
X14940000Y-35750000D01*
X13600000Y-34260000D02*
X13600000Y-35750000D01*
%TO.C,J2*%
X-1330000Y1330000D02*
X0Y1330000D01*
X-1330000Y0D02*
X-1330000Y1330000D01*
X1270000Y1330000D02*
X3870000Y1330000D01*
X1270000Y-1270000D02*
X1270000Y1330000D01*
X-1330000Y-1270000D02*
X1270000Y-1270000D01*
X3870000Y1330000D02*
X3870000Y-49590000D01*
X-1330000Y-1270000D02*
X-1330000Y-49590000D01*
X-1330000Y-49590000D02*
X3870000Y-49590000D01*
%TD*%
M02*
