%TF.GenerationSoftware,KiCad,Pcbnew,5.1.6*%
%TF.CreationDate,2020-06-27T21:13:43+02:00*%
%TF.ProjectId,hw,68772e6b-6963-4616-945f-706362585858,rev?*%
%TF.SameCoordinates,PX197b21e0PYf0cd820*%
%TF.FileFunction,Paste,Top*%
%TF.FilePolarity,Positive*%
%FSLAX46Y46*%
G04 Gerber Fmt 4.6, Leading zero omitted, Abs format (unit mm)*
G04 Created by KiCad (PCBNEW 5.1.6) date 2020-06-27 21:13:43*
%MOMM*%
%LPD*%
G01*
G04 APERTURE LIST*
%ADD10R,1.300000X0.300000*%
%ADD11R,2.200000X25.100000*%
G04 APERTURE END LIST*
D10*
%TO.C,J1*%
X13050000Y-14350000D03*
X13050000Y-14850000D03*
X13050000Y-15350000D03*
X13050000Y-15850000D03*
X13050000Y-16350000D03*
X13050000Y-16850000D03*
X13050000Y-17350000D03*
X13050000Y-17850000D03*
X13050000Y-18350000D03*
X13050000Y-18850000D03*
X13050000Y-19350000D03*
X13050000Y-19850000D03*
X13050000Y-20350000D03*
X13050000Y-20850000D03*
X13050000Y-21350000D03*
X13050000Y-21850000D03*
X13050000Y-22350000D03*
X13050000Y-22850000D03*
X13050000Y-23350000D03*
X13050000Y-23850000D03*
X13050000Y-24350000D03*
X13050000Y-24850000D03*
X13050000Y-25350000D03*
X13050000Y-25850000D03*
X13050000Y-26350000D03*
X13050000Y-26850000D03*
X13050000Y-27350000D03*
X13050000Y-27850000D03*
X13050000Y-28350000D03*
X13050000Y-28850000D03*
X13050000Y-29350000D03*
X13050000Y-29850000D03*
X13050000Y-30350000D03*
X13050000Y-30850000D03*
X13050000Y-31350000D03*
X13050000Y-31850000D03*
X13050000Y-32350000D03*
X13050000Y-32850000D03*
X13050000Y-33350000D03*
X13050000Y-33850000D03*
D11*
X16300000Y-24100000D03*
%TD*%
M02*
