%TF.GenerationSoftware,KiCad,Pcbnew,(6.0.5)*%
%TF.CreationDate,2022-05-17T08:39:17+02:00*%
%TF.ProjectId,supply2usb,73757070-6c79-4327-9573-622e6b696361,rev?*%
%TF.SameCoordinates,Original*%
%TF.FileFunction,Legend,Top*%
%TF.FilePolarity,Positive*%
%FSLAX46Y46*%
G04 Gerber Fmt 4.6, Leading zero omitted, Abs format (unit mm)*
G04 Created by KiCad (PCBNEW (6.0.5)) date 2022-05-17 08:39:17*
%MOMM*%
%LPD*%
G01*
G04 APERTURE LIST*
%ADD10C,0.450000*%
%ADD11C,0.150000*%
%ADD12C,0.120000*%
G04 APERTURE END LIST*
D10*
X127857142Y-84108138D02*
X130142857Y-84108138D01*
D11*
X115152380Y-95633333D02*
X114152380Y-95633333D01*
X114152380Y-95395238D01*
X114200000Y-95252380D01*
X114295238Y-95157142D01*
X114390476Y-95109523D01*
X114580952Y-95061904D01*
X114723809Y-95061904D01*
X114914285Y-95109523D01*
X115009523Y-95157142D01*
X115104761Y-95252380D01*
X115152380Y-95395238D01*
X115152380Y-95633333D01*
X115152380Y-94633333D02*
X114152380Y-94633333D01*
X114866666Y-94300000D01*
X114152380Y-93966666D01*
X115152380Y-93966666D01*
X113452380Y-95561904D02*
X112452380Y-95561904D01*
X112452380Y-95323809D01*
X112500000Y-95180952D01*
X112595238Y-95085714D01*
X112690476Y-95038095D01*
X112880952Y-94990476D01*
X113023809Y-94990476D01*
X113214285Y-95038095D01*
X113309523Y-95085714D01*
X113404761Y-95180952D01*
X113452380Y-95323809D01*
X113452380Y-95561904D01*
X113452380Y-94561904D02*
X112452380Y-94561904D01*
X112452380Y-94180952D01*
X112500000Y-94085714D01*
X112547619Y-94038095D01*
X112642857Y-93990476D01*
X112785714Y-93990476D01*
X112880952Y-94038095D01*
X112928571Y-94085714D01*
X112976190Y-94180952D01*
X112976190Y-94561904D01*
D10*
X108857142Y-84114285D02*
X111142857Y-84114285D01*
X110000000Y-85257142D02*
X110000000Y-82971428D01*
D12*
%TO.C,R2*%
X113637742Y-96047500D02*
X114112258Y-96047500D01*
X113637742Y-97092500D02*
X114112258Y-97092500D01*
%TO.C,J3*%
X116580000Y-96960000D02*
X119340000Y-96960000D01*
X123600000Y-96960000D02*
X123600000Y-83040000D01*
X116580000Y-83040000D02*
X119340000Y-83040000D01*
X123600000Y-96960000D02*
X122640000Y-96960000D01*
X123600000Y-83040000D02*
X122640000Y-83040000D01*
X116580000Y-96960000D02*
X116580000Y-83040000D01*
%TO.C,R3*%
X127937742Y-96047500D02*
X128412258Y-96047500D01*
X127937742Y-97092500D02*
X128412258Y-97092500D01*
%TO.C,R1*%
X110587742Y-96047500D02*
X111062258Y-96047500D01*
X110587742Y-97092500D02*
X111062258Y-97092500D01*
%TD*%
M02*
