%TF.GenerationSoftware,KiCad,Pcbnew,(6.0.5)*%
%TF.CreationDate,2022-05-17T08:39:17+02:00*%
%TF.ProjectId,supply2usb,73757070-6c79-4327-9573-622e6b696361,rev?*%
%TF.SameCoordinates,Original*%
%TF.FileFunction,Legend,Bot*%
%TF.FilePolarity,Positive*%
%FSLAX46Y46*%
G04 Gerber Fmt 4.6, Leading zero omitted, Abs format (unit mm)*
G04 Created by KiCad (PCBNEW (6.0.5)) date 2022-05-17 08:39:17*
%MOMM*%
%LPD*%
G01*
G04 APERTURE LIST*
%ADD10C,0.150000*%
G04 APERTURE END LIST*
D10*
X123052380Y-85380952D02*
X123766666Y-85380952D01*
X123909523Y-85333333D01*
X124004761Y-85238095D01*
X124052380Y-85095238D01*
X124052380Y-85000000D01*
X124052380Y-86333333D02*
X124052380Y-85857142D01*
X123052380Y-85857142D01*
X123957142Y-87238095D02*
X124004761Y-87190476D01*
X124052380Y-87047619D01*
X124052380Y-86952380D01*
X124004761Y-86809523D01*
X123909523Y-86714285D01*
X123814285Y-86666666D01*
X123623809Y-86619047D01*
X123480952Y-86619047D01*
X123290476Y-86666666D01*
X123195238Y-86714285D01*
X123100000Y-86809523D01*
X123052380Y-86952380D01*
X123052380Y-87047619D01*
X123100000Y-87190476D01*
X123147619Y-87238095D01*
X123052380Y-87952380D02*
X123766666Y-87952380D01*
X123909523Y-87904761D01*
X124004761Y-87809523D01*
X124052380Y-87666666D01*
X124052380Y-87571428D01*
X124052380Y-88904761D02*
X124052380Y-88428571D01*
X123052380Y-88428571D01*
X123957142Y-89809523D02*
X124004761Y-89761904D01*
X124052380Y-89619047D01*
X124052380Y-89523809D01*
X124004761Y-89380952D01*
X123909523Y-89285714D01*
X123814285Y-89238095D01*
X123623809Y-89190476D01*
X123480952Y-89190476D01*
X123290476Y-89238095D01*
X123195238Y-89285714D01*
X123100000Y-89380952D01*
X123052380Y-89523809D01*
X123052380Y-89619047D01*
X123100000Y-89761904D01*
X123147619Y-89809523D01*
X123052380Y-90523809D02*
X123766666Y-90523809D01*
X123909523Y-90476190D01*
X124004761Y-90380952D01*
X124052380Y-90238095D01*
X124052380Y-90142857D01*
X124052380Y-91476190D02*
X124052380Y-91000000D01*
X123052380Y-91000000D01*
X123957142Y-92380952D02*
X124004761Y-92333333D01*
X124052380Y-92190476D01*
X124052380Y-92095238D01*
X124004761Y-91952380D01*
X123909523Y-91857142D01*
X123814285Y-91809523D01*
X123623809Y-91761904D01*
X123480952Y-91761904D01*
X123290476Y-91809523D01*
X123195238Y-91857142D01*
X123100000Y-91952380D01*
X123052380Y-92095238D01*
X123052380Y-92190476D01*
X123100000Y-92333333D01*
X123147619Y-92380952D01*
X123052380Y-93095238D02*
X123766666Y-93095238D01*
X123909523Y-93047619D01*
X124004761Y-92952380D01*
X124052380Y-92809523D01*
X124052380Y-92714285D01*
X124052380Y-94047619D02*
X124052380Y-93571428D01*
X123052380Y-93571428D01*
X123957142Y-94952380D02*
X124004761Y-94904761D01*
X124052380Y-94761904D01*
X124052380Y-94666666D01*
X124004761Y-94523809D01*
X123909523Y-94428571D01*
X123814285Y-94380952D01*
X123623809Y-94333333D01*
X123480952Y-94333333D01*
X123290476Y-94380952D01*
X123195238Y-94428571D01*
X123100000Y-94523809D01*
X123052380Y-94666666D01*
X123052380Y-94761904D01*
X123100000Y-94904761D01*
X123147619Y-94952380D01*
M02*
