%TF.GenerationSoftware,KiCad,Pcbnew,(6.0.5)*%
%TF.CreationDate,2022-05-17T08:39:16+02:00*%
%TF.ProjectId,supply2usb,73757070-6c79-4327-9573-622e6b696361,rev?*%
%TF.SameCoordinates,Original*%
%TF.FileFunction,Copper,L1,Top*%
%TF.FilePolarity,Positive*%
%FSLAX46Y46*%
G04 Gerber Fmt 4.6, Leading zero omitted, Abs format (unit mm)*
G04 Created by KiCad (PCBNEW (6.0.5)) date 2022-05-17 08:39:16*
%MOMM*%
%LPD*%
G01*
G04 APERTURE LIST*
G04 Aperture macros list*
%AMRoundRect*
0 Rectangle with rounded corners*
0 $1 Rounding radius*
0 $2 $3 $4 $5 $6 $7 $8 $9 X,Y pos of 4 corners*
0 Add a 4 corners polygon primitive as box body*
4,1,4,$2,$3,$4,$5,$6,$7,$8,$9,$2,$3,0*
0 Add four circle primitives for the rounded corners*
1,1,$1+$1,$2,$3*
1,1,$1+$1,$4,$5*
1,1,$1+$1,$6,$7*
1,1,$1+$1,$8,$9*
0 Add four rect primitives between the rounded corners*
20,1,$1+$1,$2,$3,$4,$5,0*
20,1,$1+$1,$4,$5,$6,$7,0*
20,1,$1+$1,$6,$7,$8,$9,0*
20,1,$1+$1,$8,$9,$2,$3,0*%
G04 Aperture macros list end*
%TA.AperFunction,SMDPad,CuDef*%
%ADD10RoundRect,0.200000X-0.200000X-0.275000X0.200000X-0.275000X0.200000X0.275000X-0.200000X0.275000X0*%
%TD*%
%TA.AperFunction,ComponentPad*%
%ADD11C,7.000000*%
%TD*%
%TA.AperFunction,ComponentPad*%
%ADD12R,1.420000X1.420000*%
%TD*%
%TA.AperFunction,ComponentPad*%
%ADD13C,1.420000*%
%TD*%
%TA.AperFunction,ComponentPad*%
%ADD14C,2.900000*%
%TD*%
%TA.AperFunction,Conductor*%
%ADD15C,0.250000*%
%TD*%
G04 APERTURE END LIST*
D10*
%TO.P,R2,1*%
%TO.N,Net-(J3-Pad3)*%
X113050000Y-96570000D03*
%TO.P,R2,2*%
%TO.N,Net-(J3-Pad2)*%
X114700000Y-96570000D03*
%TD*%
D11*
%TO.P,J2,1,Pin_1*%
%TO.N,GND*%
X129000000Y-90000000D03*
%TD*%
D12*
%TO.P,J3,1,VBUS*%
%TO.N,VBUS*%
X118240000Y-93500000D03*
D13*
%TO.P,J3,2,D-*%
%TO.N,Net-(J3-Pad2)*%
X118240000Y-91000000D03*
%TO.P,J3,3,D+*%
%TO.N,Net-(J3-Pad3)*%
X118240000Y-89000000D03*
%TO.P,J3,4,GND*%
%TO.N,GND*%
X118240000Y-86500000D03*
D14*
%TO.P,J3,5,Shield*%
X120950000Y-83430000D03*
X120950000Y-96570000D03*
%TD*%
D11*
%TO.P,J1,1,Pin_1*%
%TO.N,VBUS*%
X110000000Y-90000000D03*
%TD*%
D10*
%TO.P,R3,1*%
%TO.N,Net-(J3-Pad2)*%
X127350000Y-96570000D03*
%TO.P,R3,2*%
%TO.N,GND*%
X129000000Y-96570000D03*
%TD*%
%TO.P,R1,1*%
%TO.N,VBUS*%
X110000000Y-96570000D03*
%TO.P,R1,2*%
%TO.N,Net-(J3-Pad3)*%
X111650000Y-96570000D03*
%TD*%
D15*
%TO.N,Net-(J3-Pad2)*%
X118240000Y-91000000D02*
X114700000Y-94540000D01*
X125570000Y-96570000D02*
X127350000Y-96570000D01*
X114700000Y-94540000D02*
X114700000Y-96570000D01*
X118240000Y-91000000D02*
X120000000Y-91000000D01*
X120000000Y-91000000D02*
X125570000Y-96570000D01*
%TO.N,Net-(J3-Pad3)*%
X113050000Y-94190000D02*
X113050000Y-96570000D01*
X111650000Y-96570000D02*
X113050000Y-96570000D01*
X118240000Y-89000000D02*
X113050000Y-94190000D01*
%TO.N,VBUS*%
X110000000Y-96570000D02*
X110000000Y-90000000D01*
%TD*%
%TA.AperFunction,Conductor*%
%TO.N,GND*%
G36*
X128989213Y-81053191D02*
G01*
X128989253Y-81053202D01*
X128989254Y-81053202D01*
X128998640Y-81055805D01*
X129008071Y-81053366D01*
X129011178Y-81053393D01*
X129027307Y-81051679D01*
X129578192Y-81074427D01*
X129582994Y-81074782D01*
X129838005Y-81102006D01*
X130157341Y-81136097D01*
X130162078Y-81136760D01*
X130731213Y-81235301D01*
X130735925Y-81236275D01*
X131297449Y-81371625D01*
X131302073Y-81372900D01*
X131853629Y-81544493D01*
X131858138Y-81546059D01*
X132397345Y-81753152D01*
X132401771Y-81755020D01*
X132401774Y-81755021D01*
X132401776Y-81755022D01*
X132926353Y-81996740D01*
X132930658Y-81998896D01*
X133438403Y-82274220D01*
X133442560Y-82276652D01*
X133931330Y-82584422D01*
X133935319Y-82587119D01*
X134403036Y-82926027D01*
X134406841Y-82928978D01*
X134851510Y-83297576D01*
X134855116Y-83300768D01*
X135274896Y-83697531D01*
X135278279Y-83700944D01*
X135671348Y-84124153D01*
X135674503Y-84127780D01*
X136039224Y-84575669D01*
X136042141Y-84579500D01*
X136376946Y-85050146D01*
X136379608Y-85054158D01*
X136683100Y-85545592D01*
X136685496Y-85549770D01*
X136956378Y-86059896D01*
X136958497Y-86064220D01*
X137062191Y-86294523D01*
X137143805Y-86475786D01*
X137195632Y-86590894D01*
X137197465Y-86595347D01*
X137399837Y-87136318D01*
X137401377Y-87140881D01*
X137568142Y-87693886D01*
X137569379Y-87698531D01*
X137687289Y-88207141D01*
X137699819Y-88261191D01*
X137700752Y-88265903D01*
X137789412Y-88805968D01*
X137794324Y-88835888D01*
X137794949Y-88840663D01*
X137851249Y-89415504D01*
X137851562Y-89420309D01*
X137860830Y-89704994D01*
X137867521Y-89910500D01*
X137870356Y-89997592D01*
X137870356Y-90002396D01*
X137861681Y-90268875D01*
X137851562Y-90579691D01*
X137851249Y-90584496D01*
X137794949Y-91159337D01*
X137794324Y-91164110D01*
X137709200Y-91682640D01*
X137700754Y-91734085D01*
X137699821Y-91738797D01*
X137585263Y-92232952D01*
X137569381Y-92301461D01*
X137568142Y-92306114D01*
X137401377Y-92859119D01*
X137399837Y-92863682D01*
X137197465Y-93404653D01*
X137195635Y-93409098D01*
X137143580Y-93524712D01*
X136958497Y-93935780D01*
X136956378Y-93940104D01*
X136685496Y-94450230D01*
X136683100Y-94454408D01*
X136379608Y-94945842D01*
X136376946Y-94949854D01*
X136042141Y-95420500D01*
X136039224Y-95424331D01*
X135674503Y-95872220D01*
X135671355Y-95875839D01*
X135311320Y-96263482D01*
X135278286Y-96299049D01*
X135274896Y-96302469D01*
X134855116Y-96699232D01*
X134851510Y-96702424D01*
X134406841Y-97071022D01*
X134403036Y-97073973D01*
X133935319Y-97412881D01*
X133931330Y-97415578D01*
X133442560Y-97723348D01*
X133438403Y-97725780D01*
X132930658Y-98001104D01*
X132926353Y-98003260D01*
X132728223Y-98094555D01*
X132401771Y-98244980D01*
X132397345Y-98246848D01*
X131858142Y-98453940D01*
X131853629Y-98455507D01*
X131302073Y-98627100D01*
X131297449Y-98628375D01*
X130735925Y-98763725D01*
X130731213Y-98764699D01*
X130162078Y-98863240D01*
X130157341Y-98863903D01*
X129838005Y-98897994D01*
X129582994Y-98925218D01*
X129578192Y-98925573D01*
X129027298Y-98948321D01*
X129011187Y-98946609D01*
X129008072Y-98946636D01*
X128998640Y-98944197D01*
X128989254Y-98946800D01*
X128989252Y-98946800D01*
X128989220Y-98946809D01*
X128969445Y-98949500D01*
X119500000Y-98949500D01*
X110030555Y-98949499D01*
X110010780Y-98946808D01*
X110010748Y-98946799D01*
X110010746Y-98946799D01*
X110001360Y-98944196D01*
X109991929Y-98946635D01*
X109988822Y-98946608D01*
X109972693Y-98948322D01*
X109421808Y-98925574D01*
X109417006Y-98925219D01*
X109161995Y-98897995D01*
X108842659Y-98863904D01*
X108837922Y-98863241D01*
X108268787Y-98764700D01*
X108264075Y-98763726D01*
X107702551Y-98628376D01*
X107697927Y-98627101D01*
X107146371Y-98455508D01*
X107141862Y-98453942D01*
X106602655Y-98246849D01*
X106598224Y-98244979D01*
X106073646Y-98003261D01*
X106069341Y-98001105D01*
X105561597Y-97725781D01*
X105557440Y-97723349D01*
X105068670Y-97415579D01*
X105064681Y-97412882D01*
X104596964Y-97073974D01*
X104593159Y-97071023D01*
X104148480Y-96702417D01*
X104144874Y-96699224D01*
X103725119Y-96302484D01*
X103721729Y-96299065D01*
X103654970Y-96227187D01*
X103328643Y-95875839D01*
X103325489Y-95872213D01*
X103318889Y-95864107D01*
X102960774Y-95424330D01*
X102957858Y-95420500D01*
X102623053Y-94949855D01*
X102620391Y-94945843D01*
X102316899Y-94454409D01*
X102314503Y-94450231D01*
X102043621Y-93940104D01*
X102041502Y-93935780D01*
X101856419Y-93524712D01*
X101804364Y-93409098D01*
X101802534Y-93404653D01*
X101600162Y-92863683D01*
X101598622Y-92859120D01*
X101431857Y-92306114D01*
X101430618Y-92301461D01*
X101414736Y-92232952D01*
X101300178Y-91738797D01*
X101299245Y-91734085D01*
X101290800Y-91682640D01*
X101220077Y-91251841D01*
X102449500Y-91251841D01*
X102464520Y-91405030D01*
X102524065Y-91602251D01*
X102620782Y-91784151D01*
X102750989Y-91943800D01*
X102909725Y-92075118D01*
X102912914Y-92076842D01*
X102912915Y-92076843D01*
X103087762Y-92171382D01*
X103090945Y-92173103D01*
X103094395Y-92174171D01*
X103094400Y-92174173D01*
X103219004Y-92212744D01*
X103287746Y-92234023D01*
X103492631Y-92255557D01*
X103496235Y-92255229D01*
X103496236Y-92255229D01*
X103595214Y-92246222D01*
X103697797Y-92236886D01*
X103746753Y-92222478D01*
X103891957Y-92179742D01*
X103891961Y-92179740D01*
X103895428Y-92178720D01*
X103991367Y-92128564D01*
X104074791Y-92084951D01*
X104074794Y-92084949D01*
X104077998Y-92083274D01*
X104121506Y-92048293D01*
X104235734Y-91956452D01*
X104235737Y-91956449D01*
X104238553Y-91954185D01*
X104240881Y-91951411D01*
X104368649Y-91799144D01*
X104368652Y-91799140D01*
X104370976Y-91796370D01*
X104470224Y-91615838D01*
X104532516Y-91419468D01*
X104534136Y-91405030D01*
X104550269Y-91261193D01*
X104550500Y-91259136D01*
X104550500Y-90000000D01*
X106294422Y-90000000D01*
X106294523Y-90001927D01*
X106311055Y-90317360D01*
X106314722Y-90387338D01*
X106375398Y-90770433D01*
X106375898Y-90772299D01*
X106437943Y-91003853D01*
X106475786Y-91145087D01*
X106476475Y-91146882D01*
X106476477Y-91146888D01*
X106614091Y-91505385D01*
X106614095Y-91505395D01*
X106614786Y-91507194D01*
X106615664Y-91508917D01*
X106763542Y-91799144D01*
X106790875Y-91852789D01*
X106791919Y-91854397D01*
X106791925Y-91854407D01*
X106998889Y-92173103D01*
X107002124Y-92178084D01*
X107003335Y-92179579D01*
X107003339Y-92179585D01*
X107064554Y-92255179D01*
X107246219Y-92479516D01*
X107520484Y-92753781D01*
X107656200Y-92863682D01*
X107820415Y-92996661D01*
X107820421Y-92996665D01*
X107821916Y-92997876D01*
X107823533Y-92998926D01*
X107823537Y-92998929D01*
X108145593Y-93208075D01*
X108145603Y-93208081D01*
X108147211Y-93209125D01*
X108492806Y-93385214D01*
X108494605Y-93385905D01*
X108494615Y-93385909D01*
X108853112Y-93523523D01*
X108853118Y-93523525D01*
X108854913Y-93524214D01*
X108856768Y-93524711D01*
X108856771Y-93524712D01*
X109209136Y-93619128D01*
X109229567Y-93624602D01*
X109612076Y-93685185D01*
X109656348Y-93709726D01*
X109674500Y-93758274D01*
X109674500Y-95864107D01*
X109657187Y-95911673D01*
X109634096Y-95930041D01*
X109561658Y-95966950D01*
X109471950Y-96056658D01*
X109469306Y-96061848D01*
X109469304Y-96061850D01*
X109417000Y-96164502D01*
X109414354Y-96169696D01*
X109413443Y-96175448D01*
X109413442Y-96175451D01*
X109410446Y-96194368D01*
X109399500Y-96263481D01*
X109399501Y-96876518D01*
X109399956Y-96879390D01*
X109399956Y-96879392D01*
X109401244Y-96887525D01*
X109414354Y-96970304D01*
X109438981Y-97018637D01*
X109469304Y-97078150D01*
X109469306Y-97078152D01*
X109471950Y-97083342D01*
X109561658Y-97173050D01*
X109566848Y-97175694D01*
X109566850Y-97175696D01*
X109669502Y-97228000D01*
X109669505Y-97228001D01*
X109674696Y-97230646D01*
X109680448Y-97231557D01*
X109680451Y-97231558D01*
X109765602Y-97245044D01*
X109768481Y-97245500D01*
X110000000Y-97245500D01*
X110231518Y-97245499D01*
X110234390Y-97245044D01*
X110234392Y-97245044D01*
X110266090Y-97240024D01*
X110325304Y-97230646D01*
X110381823Y-97201848D01*
X110433150Y-97175696D01*
X110433152Y-97175694D01*
X110438342Y-97173050D01*
X110528050Y-97083342D01*
X110530694Y-97078152D01*
X110530696Y-97078150D01*
X110583000Y-96975498D01*
X110583001Y-96975495D01*
X110585646Y-96970304D01*
X110586557Y-96964551D01*
X110586558Y-96964549D01*
X110600045Y-96879392D01*
X110600500Y-96876519D01*
X110600499Y-96263482D01*
X110600499Y-96263481D01*
X111049500Y-96263481D01*
X111049501Y-96876518D01*
X111049956Y-96879390D01*
X111049956Y-96879392D01*
X111051244Y-96887525D01*
X111064354Y-96970304D01*
X111088981Y-97018637D01*
X111119304Y-97078150D01*
X111119306Y-97078152D01*
X111121950Y-97083342D01*
X111211658Y-97173050D01*
X111216848Y-97175694D01*
X111216850Y-97175696D01*
X111319502Y-97228000D01*
X111319505Y-97228001D01*
X111324696Y-97230646D01*
X111330448Y-97231557D01*
X111330451Y-97231558D01*
X111415602Y-97245044D01*
X111418481Y-97245500D01*
X111650000Y-97245500D01*
X111881518Y-97245499D01*
X111884390Y-97245044D01*
X111884392Y-97245044D01*
X111916090Y-97240024D01*
X111975304Y-97230646D01*
X112031823Y-97201848D01*
X112083150Y-97175696D01*
X112083152Y-97175694D01*
X112088342Y-97173050D01*
X112178050Y-97083342D01*
X112180694Y-97078152D01*
X112180696Y-97078150D01*
X112233000Y-96975498D01*
X112233001Y-96975495D01*
X112235646Y-96970304D01*
X112237607Y-96957923D01*
X112262149Y-96913651D01*
X112310696Y-96895500D01*
X112389304Y-96895500D01*
X112436870Y-96912813D01*
X112462393Y-96957922D01*
X112464354Y-96970304D01*
X112488981Y-97018637D01*
X112519304Y-97078150D01*
X112519306Y-97078152D01*
X112521950Y-97083342D01*
X112611658Y-97173050D01*
X112616848Y-97175694D01*
X112616850Y-97175696D01*
X112719502Y-97228000D01*
X112719505Y-97228001D01*
X112724696Y-97230646D01*
X112730448Y-97231557D01*
X112730451Y-97231558D01*
X112815602Y-97245044D01*
X112818481Y-97245500D01*
X113050000Y-97245500D01*
X113281518Y-97245499D01*
X113284390Y-97245044D01*
X113284392Y-97245044D01*
X113316090Y-97240024D01*
X113375304Y-97230646D01*
X113431823Y-97201848D01*
X113483150Y-97175696D01*
X113483152Y-97175694D01*
X113488342Y-97173050D01*
X113578050Y-97083342D01*
X113580694Y-97078152D01*
X113580696Y-97078150D01*
X113633000Y-96975498D01*
X113633001Y-96975495D01*
X113635646Y-96970304D01*
X113636557Y-96964551D01*
X113636558Y-96964549D01*
X113650045Y-96879392D01*
X113650500Y-96876519D01*
X113650499Y-96263482D01*
X113650499Y-96263481D01*
X114099500Y-96263481D01*
X114099501Y-96876518D01*
X114099956Y-96879390D01*
X114099956Y-96879392D01*
X114101244Y-96887525D01*
X114114354Y-96970304D01*
X114138981Y-97018637D01*
X114169304Y-97078150D01*
X114169306Y-97078152D01*
X114171950Y-97083342D01*
X114261658Y-97173050D01*
X114266848Y-97175694D01*
X114266850Y-97175696D01*
X114369502Y-97228000D01*
X114369505Y-97228001D01*
X114374696Y-97230646D01*
X114380448Y-97231557D01*
X114380451Y-97231558D01*
X114465602Y-97245044D01*
X114468481Y-97245500D01*
X114700000Y-97245500D01*
X114931518Y-97245499D01*
X114934390Y-97245044D01*
X114934392Y-97245044D01*
X114966090Y-97240024D01*
X115025304Y-97230646D01*
X115081823Y-97201848D01*
X115133150Y-97175696D01*
X115133152Y-97175694D01*
X115138342Y-97173050D01*
X115228050Y-97083342D01*
X115230694Y-97078152D01*
X115230696Y-97078150D01*
X115283000Y-96975498D01*
X115283001Y-96975495D01*
X115285646Y-96970304D01*
X115286557Y-96964551D01*
X115286558Y-96964549D01*
X115300045Y-96879392D01*
X115300500Y-96876519D01*
X115300499Y-96263482D01*
X115285646Y-96169696D01*
X115256848Y-96113177D01*
X115230696Y-96061850D01*
X115230694Y-96061848D01*
X115228050Y-96056658D01*
X115138342Y-95966950D01*
X115065904Y-95930041D01*
X115031382Y-95893021D01*
X115025500Y-95864107D01*
X115025500Y-94705478D01*
X115042813Y-94657912D01*
X115047174Y-94653152D01*
X115470578Y-94229748D01*
X117329500Y-94229748D01*
X117341133Y-94288231D01*
X117345184Y-94294293D01*
X117345184Y-94294294D01*
X117364620Y-94323381D01*
X117385448Y-94354552D01*
X117451769Y-94398867D01*
X117496295Y-94407724D01*
X117506682Y-94409790D01*
X117506683Y-94409790D01*
X117510252Y-94410500D01*
X118969748Y-94410500D01*
X118973317Y-94409790D01*
X118973318Y-94409790D01*
X118983705Y-94407724D01*
X119028231Y-94398867D01*
X119094552Y-94354552D01*
X119115380Y-94323381D01*
X119134816Y-94294294D01*
X119134816Y-94294293D01*
X119138867Y-94288231D01*
X119150500Y-94229748D01*
X119150500Y-92770252D01*
X119138867Y-92711769D01*
X119094552Y-92645448D01*
X119028231Y-92601133D01*
X118983705Y-92592276D01*
X118973318Y-92590210D01*
X118973317Y-92590210D01*
X118969748Y-92589500D01*
X117510252Y-92589500D01*
X117506683Y-92590210D01*
X117506682Y-92590210D01*
X117496295Y-92592276D01*
X117451769Y-92601133D01*
X117385448Y-92645448D01*
X117341133Y-92711769D01*
X117329500Y-92770252D01*
X117329500Y-94229748D01*
X115470578Y-94229748D01*
X117832926Y-91867400D01*
X117878802Y-91846008D01*
X117915350Y-91852123D01*
X117957090Y-91870707D01*
X117960882Y-91871513D01*
X117960885Y-91871514D01*
X118140506Y-91909693D01*
X118144303Y-91910500D01*
X118335697Y-91910500D01*
X118339494Y-91909693D01*
X118519115Y-91871514D01*
X118519118Y-91871513D01*
X118522910Y-91870707D01*
X118526452Y-91869130D01*
X118526455Y-91869129D01*
X118694216Y-91794436D01*
X118697758Y-91792859D01*
X118709744Y-91784151D01*
X118849461Y-91682640D01*
X118849462Y-91682639D01*
X118852599Y-91680360D01*
X118980667Y-91538126D01*
X119059589Y-91401430D01*
X119074427Y-91375730D01*
X119074428Y-91375729D01*
X119076365Y-91372373D01*
X119077373Y-91369270D01*
X119112402Y-91332991D01*
X119144846Y-91325500D01*
X119834522Y-91325500D01*
X119882088Y-91342813D01*
X119886848Y-91347174D01*
X125327506Y-96787832D01*
X125331867Y-96792591D01*
X125357545Y-96823194D01*
X125392149Y-96843172D01*
X125397589Y-96846638D01*
X125430316Y-96869554D01*
X125436568Y-96871229D01*
X125441118Y-96873351D01*
X125446628Y-96875633D01*
X125451348Y-96877351D01*
X125456955Y-96880588D01*
X125496295Y-96887525D01*
X125502587Y-96888920D01*
X125541194Y-96899264D01*
X125580995Y-96895782D01*
X125587445Y-96895500D01*
X126689304Y-96895500D01*
X126736870Y-96912813D01*
X126762393Y-96957922D01*
X126764354Y-96970304D01*
X126788981Y-97018637D01*
X126819304Y-97078150D01*
X126819306Y-97078152D01*
X126821950Y-97083342D01*
X126911658Y-97173050D01*
X126916848Y-97175694D01*
X126916850Y-97175696D01*
X127019502Y-97228000D01*
X127019505Y-97228001D01*
X127024696Y-97230646D01*
X127030448Y-97231557D01*
X127030451Y-97231558D01*
X127115602Y-97245044D01*
X127118481Y-97245500D01*
X127350000Y-97245500D01*
X127581518Y-97245499D01*
X127584390Y-97245044D01*
X127584392Y-97245044D01*
X127616090Y-97240024D01*
X127675304Y-97230646D01*
X127731823Y-97201848D01*
X127783150Y-97175696D01*
X127783152Y-97175694D01*
X127788342Y-97173050D01*
X127878050Y-97083342D01*
X127880694Y-97078152D01*
X127880696Y-97078150D01*
X127933000Y-96975498D01*
X127933001Y-96975495D01*
X127935646Y-96970304D01*
X127936557Y-96964551D01*
X127936558Y-96964549D01*
X127950045Y-96879392D01*
X127950500Y-96876519D01*
X127950499Y-96263482D01*
X127935646Y-96169696D01*
X127906848Y-96113177D01*
X127880696Y-96061850D01*
X127880694Y-96061848D01*
X127878050Y-96056658D01*
X127788342Y-95966950D01*
X127783152Y-95964306D01*
X127783150Y-95964304D01*
X127680498Y-95912000D01*
X127680495Y-95911999D01*
X127675304Y-95909354D01*
X127669552Y-95908443D01*
X127669549Y-95908442D01*
X127584392Y-95894955D01*
X127581519Y-95894500D01*
X127578610Y-95894500D01*
X127350001Y-95894501D01*
X127118482Y-95894501D01*
X127115610Y-95894956D01*
X127115608Y-95894956D01*
X127083910Y-95899976D01*
X127024696Y-95909354D01*
X126984096Y-95930041D01*
X126916850Y-95964304D01*
X126916848Y-95964306D01*
X126911658Y-95966950D01*
X126821950Y-96056658D01*
X126819306Y-96061848D01*
X126819304Y-96061850D01*
X126767000Y-96164502D01*
X126764354Y-96169696D01*
X126762408Y-96181983D01*
X126762393Y-96182077D01*
X126737851Y-96226349D01*
X126689304Y-96244500D01*
X125735478Y-96244500D01*
X125687912Y-96227187D01*
X125683152Y-96222826D01*
X120712167Y-91251841D01*
X134449500Y-91251841D01*
X134464520Y-91405030D01*
X134524065Y-91602251D01*
X134620782Y-91784151D01*
X134750989Y-91943800D01*
X134909725Y-92075118D01*
X134912914Y-92076842D01*
X134912915Y-92076843D01*
X135087762Y-92171382D01*
X135090945Y-92173103D01*
X135094395Y-92174171D01*
X135094400Y-92174173D01*
X135219004Y-92212744D01*
X135287746Y-92234023D01*
X135492631Y-92255557D01*
X135496235Y-92255229D01*
X135496236Y-92255229D01*
X135595214Y-92246222D01*
X135697797Y-92236886D01*
X135746753Y-92222478D01*
X135891957Y-92179742D01*
X135891961Y-92179740D01*
X135895428Y-92178720D01*
X135991367Y-92128564D01*
X136074791Y-92084951D01*
X136074794Y-92084949D01*
X136077998Y-92083274D01*
X136121506Y-92048293D01*
X136235734Y-91956452D01*
X136235737Y-91956449D01*
X136238553Y-91954185D01*
X136240881Y-91951411D01*
X136368649Y-91799144D01*
X136368652Y-91799140D01*
X136370976Y-91796370D01*
X136470224Y-91615838D01*
X136532516Y-91419468D01*
X136534136Y-91405030D01*
X136550269Y-91261193D01*
X136550500Y-91259136D01*
X136550500Y-88748159D01*
X136535480Y-88594970D01*
X136475935Y-88397749D01*
X136379218Y-88215849D01*
X136249011Y-88056200D01*
X136090275Y-87924882D01*
X136079384Y-87918993D01*
X135912238Y-87828618D01*
X135909055Y-87826897D01*
X135905605Y-87825829D01*
X135905600Y-87825827D01*
X135780996Y-87787256D01*
X135712254Y-87765977D01*
X135507369Y-87744443D01*
X135503765Y-87744771D01*
X135503764Y-87744771D01*
X135503215Y-87744821D01*
X135302203Y-87763114D01*
X135253247Y-87777522D01*
X135108043Y-87820258D01*
X135108039Y-87820260D01*
X135104572Y-87821280D01*
X135008633Y-87871436D01*
X134925209Y-87915049D01*
X134925206Y-87915051D01*
X134922002Y-87916726D01*
X134919184Y-87918992D01*
X134919182Y-87918993D01*
X134764266Y-88043548D01*
X134764263Y-88043551D01*
X134761447Y-88045815D01*
X134759121Y-88048587D01*
X134759119Y-88048589D01*
X134631351Y-88200856D01*
X134631348Y-88200860D01*
X134629024Y-88203630D01*
X134529776Y-88384162D01*
X134467484Y-88580532D01*
X134467081Y-88584123D01*
X134467081Y-88584124D01*
X134465461Y-88598570D01*
X134449500Y-88740864D01*
X134449500Y-91251841D01*
X120712167Y-91251841D01*
X120242494Y-90782168D01*
X120238133Y-90777408D01*
X120216619Y-90751769D01*
X120212455Y-90746806D01*
X120177851Y-90726828D01*
X120172411Y-90723362D01*
X120144987Y-90704159D01*
X120144986Y-90704158D01*
X120139684Y-90700446D01*
X120133432Y-90698771D01*
X120128882Y-90696649D01*
X120123358Y-90694361D01*
X120118647Y-90692647D01*
X120113045Y-90689412D01*
X120106674Y-90688289D01*
X120106672Y-90688288D01*
X120083271Y-90684162D01*
X120073703Y-90682475D01*
X120067401Y-90681078D01*
X120028807Y-90670736D01*
X120022359Y-90671300D01*
X120022358Y-90671300D01*
X119989009Y-90674218D01*
X119982559Y-90674500D01*
X119144846Y-90674500D01*
X119097280Y-90657187D01*
X119077395Y-90630797D01*
X119076365Y-90627627D01*
X119050081Y-90582101D01*
X118982605Y-90465231D01*
X118980667Y-90461874D01*
X118852599Y-90319640D01*
X118697758Y-90207141D01*
X118688071Y-90202828D01*
X118526455Y-90130871D01*
X118526452Y-90130870D01*
X118522910Y-90129293D01*
X118519118Y-90128487D01*
X118519115Y-90128486D01*
X118339494Y-90090307D01*
X118339493Y-90090307D01*
X118335697Y-90089500D01*
X118144303Y-90089500D01*
X118140507Y-90090307D01*
X118140506Y-90090307D01*
X117960885Y-90128486D01*
X117960882Y-90128487D01*
X117957090Y-90129293D01*
X117953548Y-90130870D01*
X117953545Y-90130871D01*
X117795617Y-90201186D01*
X117782243Y-90207141D01*
X117779107Y-90209419D01*
X117779106Y-90209420D01*
X117630538Y-90317360D01*
X117630533Y-90317364D01*
X117627401Y-90319640D01*
X117499333Y-90461874D01*
X117403635Y-90627627D01*
X117344491Y-90809654D01*
X117324485Y-91000000D01*
X117344491Y-91190346D01*
X117345689Y-91194032D01*
X117390521Y-91332012D01*
X117388755Y-91382600D01*
X117372469Y-91407205D01*
X114482168Y-94297506D01*
X114477409Y-94301867D01*
X114446806Y-94327545D01*
X114430680Y-94355478D01*
X114426831Y-94362144D01*
X114423362Y-94367589D01*
X114400446Y-94400316D01*
X114398771Y-94406568D01*
X114396649Y-94411118D01*
X114394361Y-94416642D01*
X114392647Y-94421353D01*
X114389412Y-94426955D01*
X114388289Y-94433326D01*
X114388288Y-94433328D01*
X114382476Y-94466294D01*
X114381079Y-94472596D01*
X114370736Y-94511193D01*
X114371300Y-94517641D01*
X114371300Y-94517642D01*
X114374218Y-94550991D01*
X114374500Y-94557441D01*
X114374500Y-95864107D01*
X114357187Y-95911673D01*
X114334096Y-95930041D01*
X114261658Y-95966950D01*
X114171950Y-96056658D01*
X114169306Y-96061848D01*
X114169304Y-96061850D01*
X114117000Y-96164502D01*
X114114354Y-96169696D01*
X114113443Y-96175448D01*
X114113442Y-96175451D01*
X114110446Y-96194368D01*
X114099500Y-96263481D01*
X113650499Y-96263481D01*
X113635646Y-96169696D01*
X113606848Y-96113177D01*
X113580696Y-96061850D01*
X113580694Y-96061848D01*
X113578050Y-96056658D01*
X113488342Y-95966950D01*
X113415904Y-95930041D01*
X113381382Y-95893021D01*
X113375500Y-95864107D01*
X113375500Y-94355478D01*
X113392813Y-94307912D01*
X113397174Y-94303152D01*
X117832927Y-89867400D01*
X117878803Y-89846008D01*
X117915352Y-89852124D01*
X117953545Y-89869129D01*
X117953548Y-89869130D01*
X117957090Y-89870707D01*
X117960882Y-89871513D01*
X117960885Y-89871514D01*
X118140506Y-89909693D01*
X118144303Y-89910500D01*
X118335697Y-89910500D01*
X118339494Y-89909693D01*
X118519115Y-89871514D01*
X118519118Y-89871513D01*
X118522910Y-89870707D01*
X118526452Y-89869130D01*
X118526455Y-89869129D01*
X118694216Y-89794436D01*
X118697758Y-89792859D01*
X118852599Y-89680360D01*
X118980667Y-89538126D01*
X119076365Y-89372373D01*
X119135509Y-89190346D01*
X119155515Y-89000000D01*
X119135509Y-88809654D01*
X119076365Y-88627627D01*
X118980667Y-88461874D01*
X118852599Y-88319640D01*
X118714141Y-88219044D01*
X118700895Y-88209420D01*
X118700894Y-88209419D01*
X118697758Y-88207141D01*
X118567011Y-88148928D01*
X118526455Y-88130871D01*
X118526452Y-88130870D01*
X118522910Y-88129293D01*
X118519118Y-88128487D01*
X118519115Y-88128486D01*
X118339494Y-88090307D01*
X118339493Y-88090307D01*
X118335697Y-88089500D01*
X118144303Y-88089500D01*
X118140507Y-88090307D01*
X118140506Y-88090307D01*
X117960885Y-88128486D01*
X117960882Y-88128487D01*
X117957090Y-88129293D01*
X117953548Y-88130870D01*
X117953545Y-88130871D01*
X117796359Y-88200856D01*
X117782243Y-88207141D01*
X117779107Y-88209419D01*
X117779106Y-88209420D01*
X117630538Y-88317360D01*
X117630533Y-88317364D01*
X117627401Y-88319640D01*
X117499333Y-88461874D01*
X117403635Y-88627627D01*
X117344491Y-88809654D01*
X117324485Y-89000000D01*
X117344491Y-89190346D01*
X117357235Y-89229567D01*
X117390521Y-89332012D01*
X117388755Y-89382600D01*
X117372469Y-89407205D01*
X112832168Y-93947506D01*
X112827409Y-93951867D01*
X112796806Y-93977545D01*
X112793568Y-93983154D01*
X112776831Y-94012144D01*
X112773362Y-94017589D01*
X112750446Y-94050316D01*
X112748771Y-94056568D01*
X112746649Y-94061118D01*
X112744361Y-94066642D01*
X112742647Y-94071353D01*
X112739412Y-94076955D01*
X112738289Y-94083326D01*
X112738288Y-94083328D01*
X112732476Y-94116294D01*
X112731079Y-94122596D01*
X112720736Y-94161193D01*
X112721300Y-94167641D01*
X112721300Y-94167642D01*
X112724218Y-94200991D01*
X112724500Y-94207441D01*
X112724500Y-95864107D01*
X112707187Y-95911673D01*
X112684096Y-95930041D01*
X112611658Y-95966950D01*
X112521950Y-96056658D01*
X112519306Y-96061848D01*
X112519304Y-96061850D01*
X112467000Y-96164502D01*
X112464354Y-96169696D01*
X112462408Y-96181983D01*
X112462393Y-96182077D01*
X112437851Y-96226349D01*
X112389304Y-96244500D01*
X112310696Y-96244500D01*
X112263130Y-96227187D01*
X112237607Y-96182078D01*
X112236557Y-96175449D01*
X112235646Y-96169696D01*
X112206848Y-96113177D01*
X112180696Y-96061850D01*
X112180694Y-96061848D01*
X112178050Y-96056658D01*
X112088342Y-95966950D01*
X112083152Y-95964306D01*
X112083150Y-95964304D01*
X111980498Y-95912000D01*
X111980495Y-95911999D01*
X111975304Y-95909354D01*
X111969552Y-95908443D01*
X111969549Y-95908442D01*
X111884392Y-95894955D01*
X111881519Y-95894500D01*
X111878610Y-95894500D01*
X111650001Y-95894501D01*
X111418482Y-95894501D01*
X111415610Y-95894956D01*
X111415608Y-95894956D01*
X111383910Y-95899976D01*
X111324696Y-95909354D01*
X111284096Y-95930041D01*
X111216850Y-95964304D01*
X111216848Y-95964306D01*
X111211658Y-95966950D01*
X111121950Y-96056658D01*
X111119306Y-96061848D01*
X111119304Y-96061850D01*
X111067000Y-96164502D01*
X111064354Y-96169696D01*
X111063443Y-96175448D01*
X111063442Y-96175451D01*
X111060446Y-96194368D01*
X111049500Y-96263481D01*
X110600499Y-96263481D01*
X110585646Y-96169696D01*
X110556848Y-96113177D01*
X110530696Y-96061850D01*
X110530694Y-96061848D01*
X110528050Y-96056658D01*
X110438342Y-95966950D01*
X110365904Y-95930041D01*
X110331382Y-95893021D01*
X110325500Y-95864107D01*
X110325500Y-93758274D01*
X110342813Y-93710708D01*
X110387924Y-93685185D01*
X110770433Y-93624602D01*
X110790864Y-93619128D01*
X111143229Y-93524712D01*
X111143232Y-93524711D01*
X111145087Y-93524214D01*
X111146882Y-93523525D01*
X111146888Y-93523523D01*
X111505385Y-93385909D01*
X111505395Y-93385905D01*
X111507194Y-93385214D01*
X111852789Y-93209125D01*
X111854397Y-93208081D01*
X111854407Y-93208075D01*
X112176463Y-92998929D01*
X112176467Y-92998926D01*
X112178084Y-92997876D01*
X112179579Y-92996665D01*
X112179585Y-92996661D01*
X112343800Y-92863682D01*
X112479516Y-92753781D01*
X112753781Y-92479516D01*
X112935446Y-92255179D01*
X112996661Y-92179585D01*
X112996665Y-92179579D01*
X112997876Y-92178084D01*
X113001111Y-92173103D01*
X113208075Y-91854407D01*
X113208081Y-91854397D01*
X113209125Y-91852789D01*
X113236459Y-91799144D01*
X113384336Y-91508917D01*
X113385214Y-91507194D01*
X113385905Y-91505395D01*
X113385909Y-91505385D01*
X113523523Y-91146888D01*
X113523525Y-91146882D01*
X113524214Y-91145087D01*
X113562058Y-91003853D01*
X113624102Y-90772299D01*
X113624602Y-90770433D01*
X113685278Y-90387338D01*
X113688946Y-90317360D01*
X113705477Y-90001927D01*
X113705578Y-90000000D01*
X113690117Y-89704994D01*
X113685379Y-89614587D01*
X113685379Y-89614585D01*
X113685278Y-89612662D01*
X113624602Y-89229567D01*
X113563090Y-89000000D01*
X113524712Y-88856771D01*
X113524711Y-88856768D01*
X113524214Y-88854913D01*
X113479645Y-88738807D01*
X113385909Y-88494615D01*
X113385905Y-88494605D01*
X113385214Y-88492806D01*
X113237872Y-88203630D01*
X113210000Y-88148928D01*
X113209999Y-88148926D01*
X113209125Y-88147211D01*
X113208081Y-88145603D01*
X113208075Y-88145593D01*
X112998929Y-87823537D01*
X112998926Y-87823533D01*
X112997876Y-87821916D01*
X112996534Y-87820258D01*
X112754992Y-87521980D01*
X112753781Y-87520484D01*
X112479516Y-87246219D01*
X112336699Y-87130568D01*
X112179585Y-87003339D01*
X112179579Y-87003335D01*
X112178084Y-87002124D01*
X112176463Y-87001071D01*
X111854407Y-86791925D01*
X111854397Y-86791919D01*
X111852789Y-86790875D01*
X111507194Y-86614786D01*
X111505395Y-86614095D01*
X111505385Y-86614091D01*
X111146888Y-86476477D01*
X111146882Y-86476475D01*
X111145087Y-86475786D01*
X111143232Y-86475289D01*
X111143229Y-86475288D01*
X110772299Y-86375898D01*
X110770433Y-86375398D01*
X110387338Y-86314722D01*
X110385415Y-86314621D01*
X110385413Y-86314621D01*
X110001927Y-86294523D01*
X110000000Y-86294422D01*
X109998073Y-86294523D01*
X109614587Y-86314621D01*
X109614585Y-86314621D01*
X109612662Y-86314722D01*
X109229567Y-86375398D01*
X109227701Y-86375898D01*
X108856771Y-86475288D01*
X108856768Y-86475289D01*
X108854913Y-86475786D01*
X108853118Y-86476475D01*
X108853112Y-86476477D01*
X108494615Y-86614091D01*
X108494605Y-86614095D01*
X108492806Y-86614786D01*
X108147211Y-86790875D01*
X108145603Y-86791919D01*
X108145593Y-86791925D01*
X107823537Y-87001071D01*
X107821916Y-87002124D01*
X107820421Y-87003335D01*
X107820415Y-87003339D01*
X107663301Y-87130568D01*
X107520484Y-87246219D01*
X107246219Y-87520484D01*
X107245008Y-87521980D01*
X107003467Y-87820258D01*
X107002124Y-87821916D01*
X107001074Y-87823533D01*
X107001071Y-87823537D01*
X106791925Y-88145593D01*
X106791919Y-88145603D01*
X106790875Y-88147211D01*
X106790001Y-88148926D01*
X106790000Y-88148928D01*
X106762128Y-88203630D01*
X106614786Y-88492806D01*
X106614095Y-88494605D01*
X106614091Y-88494615D01*
X106520355Y-88738807D01*
X106475786Y-88854913D01*
X106475289Y-88856768D01*
X106475288Y-88856771D01*
X106436910Y-89000000D01*
X106375398Y-89229567D01*
X106314722Y-89612662D01*
X106314621Y-89614585D01*
X106314621Y-89614587D01*
X106309883Y-89704994D01*
X106294422Y-90000000D01*
X104550500Y-90000000D01*
X104550500Y-88748159D01*
X104535480Y-88594970D01*
X104475935Y-88397749D01*
X104379218Y-88215849D01*
X104249011Y-88056200D01*
X104090275Y-87924882D01*
X104079384Y-87918993D01*
X103912238Y-87828618D01*
X103909055Y-87826897D01*
X103905605Y-87825829D01*
X103905600Y-87825827D01*
X103780996Y-87787256D01*
X103712254Y-87765977D01*
X103507369Y-87744443D01*
X103503765Y-87744771D01*
X103503764Y-87744771D01*
X103503215Y-87744821D01*
X103302203Y-87763114D01*
X103253247Y-87777522D01*
X103108043Y-87820258D01*
X103108039Y-87820260D01*
X103104572Y-87821280D01*
X103008633Y-87871436D01*
X102925209Y-87915049D01*
X102925206Y-87915051D01*
X102922002Y-87916726D01*
X102919184Y-87918992D01*
X102919182Y-87918993D01*
X102764266Y-88043548D01*
X102764263Y-88043551D01*
X102761447Y-88045815D01*
X102759121Y-88048587D01*
X102759119Y-88048589D01*
X102631351Y-88200856D01*
X102631348Y-88200860D01*
X102629024Y-88203630D01*
X102529776Y-88384162D01*
X102467484Y-88580532D01*
X102467081Y-88584123D01*
X102467081Y-88584124D01*
X102465461Y-88598570D01*
X102449500Y-88740864D01*
X102449500Y-91251841D01*
X101220077Y-91251841D01*
X101205675Y-91164110D01*
X101205050Y-91159337D01*
X101148750Y-90584496D01*
X101148437Y-90579691D01*
X101138318Y-90268875D01*
X101129643Y-90002396D01*
X101129643Y-89997592D01*
X101132479Y-89910500D01*
X101139169Y-89704994D01*
X101148437Y-89420309D01*
X101148750Y-89415504D01*
X101205050Y-88840663D01*
X101205675Y-88835888D01*
X101210587Y-88805968D01*
X101299247Y-88265903D01*
X101300180Y-88261191D01*
X101312711Y-88207141D01*
X101430620Y-87698531D01*
X101431857Y-87693886D01*
X101598622Y-87140880D01*
X101600162Y-87136317D01*
X101802534Y-86595347D01*
X101804367Y-86590894D01*
X101856195Y-86475786D01*
X101937808Y-86294523D01*
X102041502Y-86064220D01*
X102043621Y-86059896D01*
X102314503Y-85549769D01*
X102316899Y-85545591D01*
X102620391Y-85054157D01*
X102623053Y-85050145D01*
X102957858Y-84579500D01*
X102960775Y-84575669D01*
X103220767Y-84256390D01*
X103325496Y-84127779D01*
X103328650Y-84124153D01*
X103721729Y-83700935D01*
X103725119Y-83697516D01*
X104144874Y-83300776D01*
X104148480Y-83297583D01*
X104593159Y-82928977D01*
X104596964Y-82926026D01*
X105064681Y-82587118D01*
X105068670Y-82584421D01*
X105557440Y-82276651D01*
X105561597Y-82274219D01*
X106069341Y-81998895D01*
X106073646Y-81996739D01*
X106598224Y-81755021D01*
X106602659Y-81753150D01*
X107141862Y-81546058D01*
X107146371Y-81544492D01*
X107697927Y-81372899D01*
X107702551Y-81371624D01*
X108264075Y-81236274D01*
X108268787Y-81235300D01*
X108837922Y-81136759D01*
X108842659Y-81136096D01*
X109161995Y-81102005D01*
X109417006Y-81074781D01*
X109421808Y-81074426D01*
X109972693Y-81051678D01*
X109988822Y-81053392D01*
X109991929Y-81053365D01*
X110001360Y-81055804D01*
X110010746Y-81053201D01*
X110010748Y-81053201D01*
X110010780Y-81053192D01*
X110030555Y-81050501D01*
X119499997Y-81050501D01*
X128969438Y-81050500D01*
X128989213Y-81053191D01*
G37*
%TD.AperFunction*%
%TD*%
M02*
