%TF.GenerationSoftware,KiCad,Pcbnew,(6.0.5)*%
%TF.CreationDate,2022-05-17T08:31:01+02:00*%
%TF.ProjectId,logic-breakout,6c6f6769-632d-4627-9265-616b6f75742e,rev?*%
%TF.SameCoordinates,Original*%
%TF.FileFunction,Copper,L2,Bot*%
%TF.FilePolarity,Positive*%
%FSLAX46Y46*%
G04 Gerber Fmt 4.6, Leading zero omitted, Abs format (unit mm)*
G04 Created by KiCad (PCBNEW (6.0.5)) date 2022-05-17 08:31:01*
%MOMM*%
%LPD*%
G01*
G04 APERTURE LIST*
%TA.AperFunction,ComponentPad*%
%ADD10C,1.700000*%
%TD*%
%TA.AperFunction,ComponentPad*%
%ADD11O,1.700000X1.700000*%
%TD*%
%TA.AperFunction,ViaPad*%
%ADD12C,0.800000*%
%TD*%
G04 APERTURE END LIST*
D10*
%TO.P,J1,1,Pin_1*%
%TO.N,/CLK*%
X151775000Y-95075000D03*
D11*
%TO.P,J1,2,Pin_2*%
%TO.N,GND*%
X149235000Y-95075000D03*
%TO.P,J1,3,Pin_3*%
%TO.N,/CH7*%
X151775000Y-92535000D03*
%TO.P,J1,4,Pin_4*%
%TO.N,/CH8*%
X149235000Y-92535000D03*
%TO.P,J1,5,Pin_5*%
%TO.N,/CH5*%
X151775000Y-89995000D03*
%TO.P,J1,6,Pin_6*%
%TO.N,/CH6*%
X149235000Y-89995000D03*
%TO.P,J1,7,Pin_7*%
%TO.N,/CH3*%
X151775000Y-87455000D03*
%TO.P,J1,8,Pin_8*%
%TO.N,/CH4*%
X149235000Y-87455000D03*
%TO.P,J1,9,Pin_9*%
%TO.N,/CH1*%
X151775000Y-84915000D03*
%TO.P,J1,10,Pin_10*%
%TO.N,/CH2*%
X149235000Y-84915000D03*
%TD*%
D12*
%TO.N,GND*%
X149500000Y-82500000D03*
X149500000Y-97500000D03*
X157000000Y-76500000D03*
X154000000Y-100500000D03*
X151000000Y-82500000D03*
X158560000Y-91510000D03*
X158560000Y-100510000D03*
X155500000Y-103500000D03*
X158560000Y-97510000D03*
X151000000Y-97500000D03*
X152500000Y-79500000D03*
X151000000Y-81000000D03*
X154000000Y-78000000D03*
X155500000Y-102000000D03*
X154000000Y-79500000D03*
X152500000Y-100500000D03*
X158560000Y-76510000D03*
X152500000Y-81000000D03*
X155500000Y-78000000D03*
X155500000Y-76500000D03*
X158560000Y-82510000D03*
X154000000Y-102000000D03*
X158560000Y-88510000D03*
X158560000Y-85510000D03*
X158560000Y-94510000D03*
X157000000Y-103500000D03*
X158560000Y-79510000D03*
X158560000Y-103510000D03*
X151000000Y-99000000D03*
X152500000Y-99000000D03*
%TD*%
%TA.AperFunction,Conductor*%
%TO.N,GND*%
G36*
X164918691Y-73729407D02*
G01*
X164954655Y-73778907D01*
X164959500Y-73809500D01*
X164959500Y-106210500D01*
X164940593Y-106268691D01*
X164891093Y-106304655D01*
X164860500Y-106309500D01*
X156184058Y-106309500D01*
X156125867Y-106290593D01*
X156114054Y-106280504D01*
X147889496Y-98055946D01*
X147861719Y-98001429D01*
X147860500Y-97985942D01*
X147860500Y-95060262D01*
X150719520Y-95060262D01*
X150736759Y-95265553D01*
X150793544Y-95463586D01*
X150887712Y-95646818D01*
X151015677Y-95808270D01*
X151019357Y-95811402D01*
X151019359Y-95811404D01*
X151132017Y-95907283D01*
X151172564Y-95941791D01*
X151176787Y-95944151D01*
X151176791Y-95944154D01*
X151216342Y-95966258D01*
X151352398Y-96042297D01*
X151356996Y-96043791D01*
X151543724Y-96104463D01*
X151543726Y-96104464D01*
X151548329Y-96105959D01*
X151752894Y-96130351D01*
X151757716Y-96129980D01*
X151757719Y-96129980D01*
X151825541Y-96124761D01*
X151958300Y-96114546D01*
X152156725Y-96059145D01*
X152161038Y-96056966D01*
X152161044Y-96056964D01*
X152336289Y-95968441D01*
X152336291Y-95968440D01*
X152340610Y-95966258D01*
X152375943Y-95938653D01*
X152499135Y-95842406D01*
X152499139Y-95842402D01*
X152502951Y-95839424D01*
X152637564Y-95683472D01*
X152656231Y-95650613D01*
X152736934Y-95508550D01*
X152736935Y-95508547D01*
X152739323Y-95504344D01*
X152752882Y-95463586D01*
X152802824Y-95313454D01*
X152802824Y-95313452D01*
X152804351Y-95308863D01*
X152830171Y-95104474D01*
X152830583Y-95075000D01*
X152810480Y-94869970D01*
X152750935Y-94672749D01*
X152654218Y-94490849D01*
X152524011Y-94331200D01*
X152365275Y-94199882D01*
X152184055Y-94101897D01*
X152120855Y-94082333D01*
X151991875Y-94042407D01*
X151991871Y-94042406D01*
X151987254Y-94040977D01*
X151982446Y-94040472D01*
X151982443Y-94040471D01*
X151787185Y-94019949D01*
X151787183Y-94019949D01*
X151782369Y-94019443D01*
X151722354Y-94024905D01*
X151582022Y-94037675D01*
X151582017Y-94037676D01*
X151577203Y-94038114D01*
X151379572Y-94096280D01*
X151375288Y-94098519D01*
X151375287Y-94098520D01*
X151364428Y-94104197D01*
X151197002Y-94191726D01*
X151193231Y-94194758D01*
X151040220Y-94317781D01*
X151040217Y-94317783D01*
X151036447Y-94320815D01*
X151033333Y-94324526D01*
X151033332Y-94324527D01*
X151024585Y-94334952D01*
X150904024Y-94478630D01*
X150901689Y-94482878D01*
X150901688Y-94482879D01*
X150894955Y-94495126D01*
X150804776Y-94659162D01*
X150742484Y-94855532D01*
X150741944Y-94860344D01*
X150741944Y-94860345D01*
X150740865Y-94869970D01*
X150719520Y-95060262D01*
X147860500Y-95060262D01*
X147860500Y-92520262D01*
X148179520Y-92520262D01*
X148196759Y-92725553D01*
X148253544Y-92923586D01*
X148347712Y-93106818D01*
X148475677Y-93268270D01*
X148479357Y-93271402D01*
X148479359Y-93271404D01*
X148592017Y-93367283D01*
X148632564Y-93401791D01*
X148636787Y-93404151D01*
X148636791Y-93404154D01*
X148676342Y-93426258D01*
X148812398Y-93502297D01*
X148816996Y-93503791D01*
X149003724Y-93564463D01*
X149003726Y-93564464D01*
X149008329Y-93565959D01*
X149212894Y-93590351D01*
X149217716Y-93589980D01*
X149217719Y-93589980D01*
X149285541Y-93584761D01*
X149418300Y-93574546D01*
X149616725Y-93519145D01*
X149621038Y-93516966D01*
X149621044Y-93516964D01*
X149796289Y-93428441D01*
X149796291Y-93428440D01*
X149800610Y-93426258D01*
X149835943Y-93398653D01*
X149959135Y-93302406D01*
X149959139Y-93302402D01*
X149962951Y-93299424D01*
X150097564Y-93143472D01*
X150116231Y-93110613D01*
X150196934Y-92968550D01*
X150196935Y-92968547D01*
X150199323Y-92964344D01*
X150212882Y-92923586D01*
X150262824Y-92773454D01*
X150262824Y-92773452D01*
X150264351Y-92768863D01*
X150290171Y-92564474D01*
X150290583Y-92535000D01*
X150289138Y-92520262D01*
X150719520Y-92520262D01*
X150736759Y-92725553D01*
X150793544Y-92923586D01*
X150887712Y-93106818D01*
X151015677Y-93268270D01*
X151019357Y-93271402D01*
X151019359Y-93271404D01*
X151132017Y-93367283D01*
X151172564Y-93401791D01*
X151176787Y-93404151D01*
X151176791Y-93404154D01*
X151216342Y-93426258D01*
X151352398Y-93502297D01*
X151356996Y-93503791D01*
X151543724Y-93564463D01*
X151543726Y-93564464D01*
X151548329Y-93565959D01*
X151752894Y-93590351D01*
X151757716Y-93589980D01*
X151757719Y-93589980D01*
X151825541Y-93584761D01*
X151958300Y-93574546D01*
X152156725Y-93519145D01*
X152161038Y-93516966D01*
X152161044Y-93516964D01*
X152336289Y-93428441D01*
X152336291Y-93428440D01*
X152340610Y-93426258D01*
X152375943Y-93398653D01*
X152499135Y-93302406D01*
X152499139Y-93302402D01*
X152502951Y-93299424D01*
X152637564Y-93143472D01*
X152656231Y-93110613D01*
X152736934Y-92968550D01*
X152736935Y-92968547D01*
X152739323Y-92964344D01*
X152752882Y-92923586D01*
X152802824Y-92773454D01*
X152802824Y-92773452D01*
X152804351Y-92768863D01*
X152830171Y-92564474D01*
X152830583Y-92535000D01*
X152810480Y-92329970D01*
X152750935Y-92132749D01*
X152654218Y-91950849D01*
X152524011Y-91791200D01*
X152365275Y-91659882D01*
X152184055Y-91561897D01*
X152120855Y-91542333D01*
X151991875Y-91502407D01*
X151991871Y-91502406D01*
X151987254Y-91500977D01*
X151982446Y-91500472D01*
X151982443Y-91500471D01*
X151787185Y-91479949D01*
X151787183Y-91479949D01*
X151782369Y-91479443D01*
X151722354Y-91484905D01*
X151582022Y-91497675D01*
X151582017Y-91497676D01*
X151577203Y-91498114D01*
X151379572Y-91556280D01*
X151375288Y-91558519D01*
X151375287Y-91558520D01*
X151364428Y-91564197D01*
X151197002Y-91651726D01*
X151193231Y-91654758D01*
X151040220Y-91777781D01*
X151040217Y-91777783D01*
X151036447Y-91780815D01*
X151033333Y-91784526D01*
X151033332Y-91784527D01*
X151024585Y-91794952D01*
X150904024Y-91938630D01*
X150901689Y-91942878D01*
X150901688Y-91942879D01*
X150894955Y-91955126D01*
X150804776Y-92119162D01*
X150742484Y-92315532D01*
X150741944Y-92320344D01*
X150741944Y-92320345D01*
X150740865Y-92329970D01*
X150719520Y-92520262D01*
X150289138Y-92520262D01*
X150270480Y-92329970D01*
X150210935Y-92132749D01*
X150114218Y-91950849D01*
X149984011Y-91791200D01*
X149825275Y-91659882D01*
X149644055Y-91561897D01*
X149580855Y-91542333D01*
X149451875Y-91502407D01*
X149451871Y-91502406D01*
X149447254Y-91500977D01*
X149442446Y-91500472D01*
X149442443Y-91500471D01*
X149247185Y-91479949D01*
X149247183Y-91479949D01*
X149242369Y-91479443D01*
X149182354Y-91484905D01*
X149042022Y-91497675D01*
X149042017Y-91497676D01*
X149037203Y-91498114D01*
X148839572Y-91556280D01*
X148835288Y-91558519D01*
X148835287Y-91558520D01*
X148824428Y-91564197D01*
X148657002Y-91651726D01*
X148653231Y-91654758D01*
X148500220Y-91777781D01*
X148500217Y-91777783D01*
X148496447Y-91780815D01*
X148493333Y-91784526D01*
X148493332Y-91784527D01*
X148484585Y-91794952D01*
X148364024Y-91938630D01*
X148361689Y-91942878D01*
X148361688Y-91942879D01*
X148354955Y-91955126D01*
X148264776Y-92119162D01*
X148202484Y-92315532D01*
X148201944Y-92320344D01*
X148201944Y-92320345D01*
X148200865Y-92329970D01*
X148179520Y-92520262D01*
X147860500Y-92520262D01*
X147860500Y-89980262D01*
X148179520Y-89980262D01*
X148196759Y-90185553D01*
X148253544Y-90383586D01*
X148347712Y-90566818D01*
X148475677Y-90728270D01*
X148479357Y-90731402D01*
X148479359Y-90731404D01*
X148592017Y-90827283D01*
X148632564Y-90861791D01*
X148636787Y-90864151D01*
X148636791Y-90864154D01*
X148676342Y-90886258D01*
X148812398Y-90962297D01*
X148816996Y-90963791D01*
X149003724Y-91024463D01*
X149003726Y-91024464D01*
X149008329Y-91025959D01*
X149212894Y-91050351D01*
X149217716Y-91049980D01*
X149217719Y-91049980D01*
X149285541Y-91044761D01*
X149418300Y-91034546D01*
X149616725Y-90979145D01*
X149621038Y-90976966D01*
X149621044Y-90976964D01*
X149796289Y-90888441D01*
X149796291Y-90888440D01*
X149800610Y-90886258D01*
X149835943Y-90858653D01*
X149959135Y-90762406D01*
X149959139Y-90762402D01*
X149962951Y-90759424D01*
X150097564Y-90603472D01*
X150116231Y-90570613D01*
X150196934Y-90428550D01*
X150196935Y-90428547D01*
X150199323Y-90424344D01*
X150212882Y-90383586D01*
X150262824Y-90233454D01*
X150262824Y-90233452D01*
X150264351Y-90228863D01*
X150290171Y-90024474D01*
X150290583Y-89995000D01*
X150289138Y-89980262D01*
X150719520Y-89980262D01*
X150736759Y-90185553D01*
X150793544Y-90383586D01*
X150887712Y-90566818D01*
X151015677Y-90728270D01*
X151019357Y-90731402D01*
X151019359Y-90731404D01*
X151132017Y-90827283D01*
X151172564Y-90861791D01*
X151176787Y-90864151D01*
X151176791Y-90864154D01*
X151216342Y-90886258D01*
X151352398Y-90962297D01*
X151356996Y-90963791D01*
X151543724Y-91024463D01*
X151543726Y-91024464D01*
X151548329Y-91025959D01*
X151752894Y-91050351D01*
X151757716Y-91049980D01*
X151757719Y-91049980D01*
X151825541Y-91044761D01*
X151958300Y-91034546D01*
X152156725Y-90979145D01*
X152161038Y-90976966D01*
X152161044Y-90976964D01*
X152336289Y-90888441D01*
X152336291Y-90888440D01*
X152340610Y-90886258D01*
X152375943Y-90858653D01*
X152499135Y-90762406D01*
X152499139Y-90762402D01*
X152502951Y-90759424D01*
X152637564Y-90603472D01*
X152656231Y-90570613D01*
X152736934Y-90428550D01*
X152736935Y-90428547D01*
X152739323Y-90424344D01*
X152752882Y-90383586D01*
X152802824Y-90233454D01*
X152802824Y-90233452D01*
X152804351Y-90228863D01*
X152830171Y-90024474D01*
X152830583Y-89995000D01*
X152810480Y-89789970D01*
X152750935Y-89592749D01*
X152654218Y-89410849D01*
X152524011Y-89251200D01*
X152365275Y-89119882D01*
X152184055Y-89021897D01*
X152120855Y-89002333D01*
X151991875Y-88962407D01*
X151991871Y-88962406D01*
X151987254Y-88960977D01*
X151982446Y-88960472D01*
X151982443Y-88960471D01*
X151787185Y-88939949D01*
X151787183Y-88939949D01*
X151782369Y-88939443D01*
X151722354Y-88944905D01*
X151582022Y-88957675D01*
X151582017Y-88957676D01*
X151577203Y-88958114D01*
X151379572Y-89016280D01*
X151375288Y-89018519D01*
X151375287Y-89018520D01*
X151364428Y-89024197D01*
X151197002Y-89111726D01*
X151193231Y-89114758D01*
X151040220Y-89237781D01*
X151040217Y-89237783D01*
X151036447Y-89240815D01*
X151033333Y-89244526D01*
X151033332Y-89244527D01*
X151024585Y-89254952D01*
X150904024Y-89398630D01*
X150901689Y-89402878D01*
X150901688Y-89402879D01*
X150894955Y-89415126D01*
X150804776Y-89579162D01*
X150742484Y-89775532D01*
X150741944Y-89780344D01*
X150741944Y-89780345D01*
X150740865Y-89789970D01*
X150719520Y-89980262D01*
X150289138Y-89980262D01*
X150270480Y-89789970D01*
X150210935Y-89592749D01*
X150114218Y-89410849D01*
X149984011Y-89251200D01*
X149825275Y-89119882D01*
X149644055Y-89021897D01*
X149580855Y-89002333D01*
X149451875Y-88962407D01*
X149451871Y-88962406D01*
X149447254Y-88960977D01*
X149442446Y-88960472D01*
X149442443Y-88960471D01*
X149247185Y-88939949D01*
X149247183Y-88939949D01*
X149242369Y-88939443D01*
X149182354Y-88944905D01*
X149042022Y-88957675D01*
X149042017Y-88957676D01*
X149037203Y-88958114D01*
X148839572Y-89016280D01*
X148835288Y-89018519D01*
X148835287Y-89018520D01*
X148824428Y-89024197D01*
X148657002Y-89111726D01*
X148653231Y-89114758D01*
X148500220Y-89237781D01*
X148500217Y-89237783D01*
X148496447Y-89240815D01*
X148493333Y-89244526D01*
X148493332Y-89244527D01*
X148484585Y-89254952D01*
X148364024Y-89398630D01*
X148361689Y-89402878D01*
X148361688Y-89402879D01*
X148354955Y-89415126D01*
X148264776Y-89579162D01*
X148202484Y-89775532D01*
X148201944Y-89780344D01*
X148201944Y-89780345D01*
X148200865Y-89789970D01*
X148179520Y-89980262D01*
X147860500Y-89980262D01*
X147860500Y-87440262D01*
X148179520Y-87440262D01*
X148196759Y-87645553D01*
X148253544Y-87843586D01*
X148347712Y-88026818D01*
X148475677Y-88188270D01*
X148479357Y-88191402D01*
X148479359Y-88191404D01*
X148592017Y-88287283D01*
X148632564Y-88321791D01*
X148636787Y-88324151D01*
X148636791Y-88324154D01*
X148676342Y-88346258D01*
X148812398Y-88422297D01*
X148816996Y-88423791D01*
X149003724Y-88484463D01*
X149003726Y-88484464D01*
X149008329Y-88485959D01*
X149212894Y-88510351D01*
X149217716Y-88509980D01*
X149217719Y-88509980D01*
X149285541Y-88504761D01*
X149418300Y-88494546D01*
X149616725Y-88439145D01*
X149621038Y-88436966D01*
X149621044Y-88436964D01*
X149796289Y-88348441D01*
X149796291Y-88348440D01*
X149800610Y-88346258D01*
X149835943Y-88318653D01*
X149959135Y-88222406D01*
X149959139Y-88222402D01*
X149962951Y-88219424D01*
X150097564Y-88063472D01*
X150116231Y-88030613D01*
X150196934Y-87888550D01*
X150196935Y-87888547D01*
X150199323Y-87884344D01*
X150212882Y-87843586D01*
X150262824Y-87693454D01*
X150262824Y-87693452D01*
X150264351Y-87688863D01*
X150290171Y-87484474D01*
X150290583Y-87455000D01*
X150289138Y-87440262D01*
X150719520Y-87440262D01*
X150736759Y-87645553D01*
X150793544Y-87843586D01*
X150887712Y-88026818D01*
X151015677Y-88188270D01*
X151019357Y-88191402D01*
X151019359Y-88191404D01*
X151132017Y-88287283D01*
X151172564Y-88321791D01*
X151176787Y-88324151D01*
X151176791Y-88324154D01*
X151216342Y-88346258D01*
X151352398Y-88422297D01*
X151356996Y-88423791D01*
X151543724Y-88484463D01*
X151543726Y-88484464D01*
X151548329Y-88485959D01*
X151752894Y-88510351D01*
X151757716Y-88509980D01*
X151757719Y-88509980D01*
X151825541Y-88504761D01*
X151958300Y-88494546D01*
X152156725Y-88439145D01*
X152161038Y-88436966D01*
X152161044Y-88436964D01*
X152336289Y-88348441D01*
X152336291Y-88348440D01*
X152340610Y-88346258D01*
X152375943Y-88318653D01*
X152499135Y-88222406D01*
X152499139Y-88222402D01*
X152502951Y-88219424D01*
X152637564Y-88063472D01*
X152656231Y-88030613D01*
X152736934Y-87888550D01*
X152736935Y-87888547D01*
X152739323Y-87884344D01*
X152752882Y-87843586D01*
X152802824Y-87693454D01*
X152802824Y-87693452D01*
X152804351Y-87688863D01*
X152830171Y-87484474D01*
X152830583Y-87455000D01*
X152810480Y-87249970D01*
X152750935Y-87052749D01*
X152654218Y-86870849D01*
X152524011Y-86711200D01*
X152365275Y-86579882D01*
X152184055Y-86481897D01*
X152120855Y-86462333D01*
X151991875Y-86422407D01*
X151991871Y-86422406D01*
X151987254Y-86420977D01*
X151982446Y-86420472D01*
X151982443Y-86420471D01*
X151787185Y-86399949D01*
X151787183Y-86399949D01*
X151782369Y-86399443D01*
X151722354Y-86404905D01*
X151582022Y-86417675D01*
X151582017Y-86417676D01*
X151577203Y-86418114D01*
X151379572Y-86476280D01*
X151375288Y-86478519D01*
X151375287Y-86478520D01*
X151364428Y-86484197D01*
X151197002Y-86571726D01*
X151193231Y-86574758D01*
X151040220Y-86697781D01*
X151040217Y-86697783D01*
X151036447Y-86700815D01*
X151033333Y-86704526D01*
X151033332Y-86704527D01*
X151024585Y-86714952D01*
X150904024Y-86858630D01*
X150901689Y-86862878D01*
X150901688Y-86862879D01*
X150894955Y-86875126D01*
X150804776Y-87039162D01*
X150742484Y-87235532D01*
X150741944Y-87240344D01*
X150741944Y-87240345D01*
X150740865Y-87249970D01*
X150719520Y-87440262D01*
X150289138Y-87440262D01*
X150270480Y-87249970D01*
X150210935Y-87052749D01*
X150114218Y-86870849D01*
X149984011Y-86711200D01*
X149825275Y-86579882D01*
X149644055Y-86481897D01*
X149580855Y-86462333D01*
X149451875Y-86422407D01*
X149451871Y-86422406D01*
X149447254Y-86420977D01*
X149442446Y-86420472D01*
X149442443Y-86420471D01*
X149247185Y-86399949D01*
X149247183Y-86399949D01*
X149242369Y-86399443D01*
X149182354Y-86404905D01*
X149042022Y-86417675D01*
X149042017Y-86417676D01*
X149037203Y-86418114D01*
X148839572Y-86476280D01*
X148835288Y-86478519D01*
X148835287Y-86478520D01*
X148824428Y-86484197D01*
X148657002Y-86571726D01*
X148653231Y-86574758D01*
X148500220Y-86697781D01*
X148500217Y-86697783D01*
X148496447Y-86700815D01*
X148493333Y-86704526D01*
X148493332Y-86704527D01*
X148484585Y-86714952D01*
X148364024Y-86858630D01*
X148361689Y-86862878D01*
X148361688Y-86862879D01*
X148354955Y-86875126D01*
X148264776Y-87039162D01*
X148202484Y-87235532D01*
X148201944Y-87240344D01*
X148201944Y-87240345D01*
X148200865Y-87249970D01*
X148179520Y-87440262D01*
X147860500Y-87440262D01*
X147860500Y-84900262D01*
X148179520Y-84900262D01*
X148196759Y-85105553D01*
X148253544Y-85303586D01*
X148347712Y-85486818D01*
X148475677Y-85648270D01*
X148479357Y-85651402D01*
X148479359Y-85651404D01*
X148592017Y-85747283D01*
X148632564Y-85781791D01*
X148636787Y-85784151D01*
X148636791Y-85784154D01*
X148676342Y-85806258D01*
X148812398Y-85882297D01*
X148816996Y-85883791D01*
X149003724Y-85944463D01*
X149003726Y-85944464D01*
X149008329Y-85945959D01*
X149212894Y-85970351D01*
X149217716Y-85969980D01*
X149217719Y-85969980D01*
X149285541Y-85964761D01*
X149418300Y-85954546D01*
X149616725Y-85899145D01*
X149621038Y-85896966D01*
X149621044Y-85896964D01*
X149796289Y-85808441D01*
X149796291Y-85808440D01*
X149800610Y-85806258D01*
X149835943Y-85778653D01*
X149959135Y-85682406D01*
X149959139Y-85682402D01*
X149962951Y-85679424D01*
X150097564Y-85523472D01*
X150116231Y-85490613D01*
X150196934Y-85348550D01*
X150196935Y-85348547D01*
X150199323Y-85344344D01*
X150212882Y-85303586D01*
X150262824Y-85153454D01*
X150262824Y-85153452D01*
X150264351Y-85148863D01*
X150290171Y-84944474D01*
X150290583Y-84915000D01*
X150289138Y-84900262D01*
X150719520Y-84900262D01*
X150736759Y-85105553D01*
X150793544Y-85303586D01*
X150887712Y-85486818D01*
X151015677Y-85648270D01*
X151019357Y-85651402D01*
X151019359Y-85651404D01*
X151132017Y-85747283D01*
X151172564Y-85781791D01*
X151176787Y-85784151D01*
X151176791Y-85784154D01*
X151216342Y-85806258D01*
X151352398Y-85882297D01*
X151356996Y-85883791D01*
X151543724Y-85944463D01*
X151543726Y-85944464D01*
X151548329Y-85945959D01*
X151752894Y-85970351D01*
X151757716Y-85969980D01*
X151757719Y-85969980D01*
X151825541Y-85964761D01*
X151958300Y-85954546D01*
X152156725Y-85899145D01*
X152161038Y-85896966D01*
X152161044Y-85896964D01*
X152336289Y-85808441D01*
X152336291Y-85808440D01*
X152340610Y-85806258D01*
X152375943Y-85778653D01*
X152499135Y-85682406D01*
X152499139Y-85682402D01*
X152502951Y-85679424D01*
X152637564Y-85523472D01*
X152656231Y-85490613D01*
X152736934Y-85348550D01*
X152736935Y-85348547D01*
X152739323Y-85344344D01*
X152752882Y-85303586D01*
X152802824Y-85153454D01*
X152802824Y-85153452D01*
X152804351Y-85148863D01*
X152830171Y-84944474D01*
X152830583Y-84915000D01*
X152810480Y-84709970D01*
X152750935Y-84512749D01*
X152654218Y-84330849D01*
X152524011Y-84171200D01*
X152365275Y-84039882D01*
X152184055Y-83941897D01*
X152120855Y-83922333D01*
X151991875Y-83882407D01*
X151991871Y-83882406D01*
X151987254Y-83880977D01*
X151982446Y-83880472D01*
X151982443Y-83880471D01*
X151787185Y-83859949D01*
X151787183Y-83859949D01*
X151782369Y-83859443D01*
X151722354Y-83864905D01*
X151582022Y-83877675D01*
X151582017Y-83877676D01*
X151577203Y-83878114D01*
X151379572Y-83936280D01*
X151375288Y-83938519D01*
X151375287Y-83938520D01*
X151364428Y-83944197D01*
X151197002Y-84031726D01*
X151193231Y-84034758D01*
X151040220Y-84157781D01*
X151040217Y-84157783D01*
X151036447Y-84160815D01*
X151033333Y-84164526D01*
X151033332Y-84164527D01*
X151024585Y-84174952D01*
X150904024Y-84318630D01*
X150901689Y-84322878D01*
X150901688Y-84322879D01*
X150894955Y-84335126D01*
X150804776Y-84499162D01*
X150742484Y-84695532D01*
X150741944Y-84700344D01*
X150741944Y-84700345D01*
X150740865Y-84709970D01*
X150719520Y-84900262D01*
X150289138Y-84900262D01*
X150270480Y-84709970D01*
X150210935Y-84512749D01*
X150114218Y-84330849D01*
X149984011Y-84171200D01*
X149825275Y-84039882D01*
X149644055Y-83941897D01*
X149580855Y-83922333D01*
X149451875Y-83882407D01*
X149451871Y-83882406D01*
X149447254Y-83880977D01*
X149442446Y-83880472D01*
X149442443Y-83880471D01*
X149247185Y-83859949D01*
X149247183Y-83859949D01*
X149242369Y-83859443D01*
X149182354Y-83864905D01*
X149042022Y-83877675D01*
X149042017Y-83877676D01*
X149037203Y-83878114D01*
X148839572Y-83936280D01*
X148835288Y-83938519D01*
X148835287Y-83938520D01*
X148824428Y-83944197D01*
X148657002Y-84031726D01*
X148653231Y-84034758D01*
X148500220Y-84157781D01*
X148500217Y-84157783D01*
X148496447Y-84160815D01*
X148493333Y-84164526D01*
X148493332Y-84164527D01*
X148484585Y-84174952D01*
X148364024Y-84318630D01*
X148361689Y-84322878D01*
X148361688Y-84322879D01*
X148354955Y-84335126D01*
X148264776Y-84499162D01*
X148202484Y-84695532D01*
X148201944Y-84700344D01*
X148201944Y-84700345D01*
X148200865Y-84709970D01*
X148179520Y-84900262D01*
X147860500Y-84900262D01*
X147860500Y-82034058D01*
X147879407Y-81975867D01*
X147889496Y-81964054D01*
X156114054Y-73739496D01*
X156168571Y-73711719D01*
X156184058Y-73710500D01*
X164860500Y-73710500D01*
X164918691Y-73729407D01*
G37*
%TD.AperFunction*%
%TD*%
M02*
