%TF.GenerationSoftware,KiCad,Pcbnew,(6.0.5)*%
%TF.CreationDate,2022-05-17T08:31:01+02:00*%
%TF.ProjectId,logic-breakout,6c6f6769-632d-4627-9265-616b6f75742e,rev?*%
%TF.SameCoordinates,Original*%
%TF.FileFunction,Copper,L1,Top*%
%TF.FilePolarity,Positive*%
%FSLAX46Y46*%
G04 Gerber Fmt 4.6, Leading zero omitted, Abs format (unit mm)*
G04 Created by KiCad (PCBNEW (6.0.5)) date 2022-05-17 08:31:01*
%MOMM*%
%LPD*%
G01*
G04 APERTURE LIST*
G04 Aperture macros list*
%AMRoundRect*
0 Rectangle with rounded corners*
0 $1 Rounding radius*
0 $2 $3 $4 $5 $6 $7 $8 $9 X,Y pos of 4 corners*
0 Add a 4 corners polygon primitive as box body*
4,1,4,$2,$3,$4,$5,$6,$7,$8,$9,$2,$3,0*
0 Add four circle primitives for the rounded corners*
1,1,$1+$1,$2,$3*
1,1,$1+$1,$4,$5*
1,1,$1+$1,$6,$7*
1,1,$1+$1,$8,$9*
0 Add four rect primitives between the rounded corners*
20,1,$1+$1,$2,$3,$4,$5,0*
20,1,$1+$1,$4,$5,$6,$7,0*
20,1,$1+$1,$6,$7,$8,$9,0*
20,1,$1+$1,$8,$9,$2,$3,0*%
G04 Aperture macros list end*
%TA.AperFunction,SMDPad,CuDef*%
%ADD10RoundRect,0.500000X-2.000000X-0.500000X2.000000X-0.500000X2.000000X0.500000X-2.000000X0.500000X0*%
%TD*%
%TA.AperFunction,SMDPad,CuDef*%
%ADD11RoundRect,0.500000X2.000000X0.500000X-2.000000X0.500000X-2.000000X-0.500000X2.000000X-0.500000X0*%
%TD*%
%TA.AperFunction,ComponentPad*%
%ADD12C,1.700000*%
%TD*%
%TA.AperFunction,ComponentPad*%
%ADD13O,1.700000X1.700000*%
%TD*%
%TA.AperFunction,ViaPad*%
%ADD14C,0.800000*%
%TD*%
%TA.AperFunction,Conductor*%
%ADD15C,0.250000*%
%TD*%
G04 APERTURE END LIST*
D10*
%TO.P,J5,1,Pin_1*%
%TO.N,/CH4*%
X162060000Y-87000000D03*
%TD*%
%TO.P,J6,1,Pin_1*%
%TO.N,/CH5*%
X162060000Y-90000000D03*
%TD*%
%TO.P,J9,1,Pin_1*%
%TO.N,/CH8*%
X162060000Y-99000000D03*
%TD*%
%TO.P,J10,1,Pin_1*%
%TO.N,/CLK*%
X162060000Y-102000000D03*
%TD*%
%TO.P,J2,1,Pin_1*%
%TO.N,/CH1*%
X162060000Y-78000000D03*
%TD*%
%TO.P,J7,1,Pin_1*%
%TO.N,/CH6*%
X162060000Y-93000000D03*
%TD*%
D11*
%TO.P,J12,1,Pin_1*%
%TO.N,GND*%
X162060000Y-75010000D03*
%TD*%
D10*
%TO.P,J3,1,Pin_1*%
%TO.N,/CH2*%
X162060000Y-81000000D03*
%TD*%
%TO.P,J4,1,Pin_1*%
%TO.N,/CH3*%
X162060000Y-84000000D03*
%TD*%
%TO.P,J8,1,Pin_1*%
%TO.N,/CH7*%
X162060000Y-96000000D03*
%TD*%
D12*
%TO.P,J1,1,Pin_1*%
%TO.N,/CLK*%
X151775000Y-95075000D03*
D13*
%TO.P,J1,2,Pin_2*%
%TO.N,GND*%
X149235000Y-95075000D03*
%TO.P,J1,3,Pin_3*%
%TO.N,/CH7*%
X151775000Y-92535000D03*
%TO.P,J1,4,Pin_4*%
%TO.N,/CH8*%
X149235000Y-92535000D03*
%TO.P,J1,5,Pin_5*%
%TO.N,/CH5*%
X151775000Y-89995000D03*
%TO.P,J1,6,Pin_6*%
%TO.N,/CH6*%
X149235000Y-89995000D03*
%TO.P,J1,7,Pin_7*%
%TO.N,/CH3*%
X151775000Y-87455000D03*
%TO.P,J1,8,Pin_8*%
%TO.N,/CH4*%
X149235000Y-87455000D03*
%TO.P,J1,9,Pin_9*%
%TO.N,/CH1*%
X151775000Y-84915000D03*
%TO.P,J1,10,Pin_10*%
%TO.N,/CH2*%
X149235000Y-84915000D03*
%TD*%
D11*
%TO.P,J11,1,Pin_1*%
%TO.N,GND*%
X162060000Y-105010000D03*
%TD*%
D14*
%TO.N,GND*%
X149500000Y-82500000D03*
X149500000Y-97500000D03*
X157000000Y-76500000D03*
X154000000Y-100500000D03*
X151000000Y-82500000D03*
X158560000Y-91510000D03*
X158560000Y-100510000D03*
X155500000Y-103500000D03*
X158560000Y-97510000D03*
X151000000Y-97500000D03*
X152500000Y-79500000D03*
X151000000Y-81000000D03*
X154000000Y-78000000D03*
X155500000Y-102000000D03*
X154000000Y-79500000D03*
X152500000Y-100500000D03*
X158560000Y-76510000D03*
X152500000Y-81000000D03*
X155500000Y-78000000D03*
X155500000Y-76500000D03*
X158560000Y-82510000D03*
X154000000Y-102000000D03*
X158560000Y-88510000D03*
X158560000Y-85510000D03*
X158560000Y-94510000D03*
X157000000Y-103500000D03*
X158560000Y-79510000D03*
X158560000Y-103510000D03*
X151000000Y-99000000D03*
X152500000Y-99000000D03*
%TD*%
D15*
%TO.N,/CH1*%
X151775000Y-84915000D02*
X158690000Y-78000000D01*
X158690000Y-78000000D02*
X162060000Y-78000000D01*
%TO.N,/CH2*%
X150500000Y-86190000D02*
X153040000Y-86190000D01*
X149235000Y-84915000D02*
X150500000Y-86180000D01*
X150500000Y-86180000D02*
X150500000Y-86190000D01*
X158230000Y-81000000D02*
X162060000Y-81000000D01*
X153040000Y-86190000D02*
X158230000Y-81000000D01*
%TO.N,/CH3*%
X151775000Y-87455000D02*
X153035000Y-87455000D01*
X153040000Y-87460000D02*
X153035000Y-87455000D01*
X153040000Y-87460000D02*
X154040000Y-87460000D01*
X162060000Y-84000000D02*
X157500000Y-84000000D01*
X154040000Y-87460000D02*
X157500000Y-84000000D01*
%TO.N,/CH4*%
X150510000Y-88730000D02*
X155770000Y-88730000D01*
X155770000Y-88730000D02*
X157500000Y-87000000D01*
X157500000Y-87000000D02*
X162060000Y-87000000D01*
X149235000Y-87455000D02*
X150510000Y-88730000D01*
%TO.N,/CH5*%
X153035000Y-89995000D02*
X162055000Y-89995000D01*
X151775000Y-89995000D02*
X153035000Y-89995000D01*
X162055000Y-89995000D02*
X162060000Y-90000000D01*
X153035000Y-89995000D02*
X153040000Y-90000000D01*
%TO.N,/CH6*%
X149235000Y-89995000D02*
X150510000Y-91270000D01*
X157500000Y-93000000D02*
X162060000Y-93000000D01*
X150510000Y-91270000D02*
X155770000Y-91270000D01*
X155770000Y-91270000D02*
X157500000Y-93000000D01*
%TO.N,/CH7*%
X153040000Y-92540000D02*
X154040000Y-92540000D01*
X151775000Y-92535000D02*
X153035000Y-92535000D01*
X154040000Y-92540000D02*
X157500000Y-96000000D01*
X153035000Y-92535000D02*
X153040000Y-92540000D01*
X162060000Y-96000000D02*
X157500000Y-96000000D01*
%TO.N,/CH8*%
X149235000Y-92535000D02*
X150500000Y-93800000D01*
X158230000Y-99000000D02*
X153040000Y-93810000D01*
X162060000Y-99000000D02*
X158230000Y-99000000D01*
X150500000Y-93800000D02*
X150500000Y-93810000D01*
X150500000Y-93810000D02*
X153040000Y-93810000D01*
%TO.N,/CLK*%
X151775000Y-95075000D02*
X158700000Y-102000000D01*
X158700000Y-102000000D02*
X162060000Y-102000000D01*
%TD*%
%TA.AperFunction,Conductor*%
%TO.N,GND*%
G36*
X164918691Y-73729407D02*
G01*
X164954655Y-73778907D01*
X164959500Y-73809500D01*
X164959500Y-106210500D01*
X164940593Y-106268691D01*
X164891093Y-106304655D01*
X164860500Y-106309500D01*
X156184058Y-106309500D01*
X156125867Y-106290593D01*
X156114054Y-106280504D01*
X147889496Y-98055946D01*
X147861719Y-98001429D01*
X147860500Y-97985942D01*
X147860500Y-92520262D01*
X148179520Y-92520262D01*
X148196759Y-92725553D01*
X148198092Y-92730201D01*
X148198092Y-92730202D01*
X148245203Y-92894496D01*
X148253544Y-92923586D01*
X148347712Y-93106818D01*
X148475677Y-93268270D01*
X148479357Y-93271402D01*
X148479359Y-93271404D01*
X148547344Y-93329263D01*
X148632564Y-93401791D01*
X148636787Y-93404151D01*
X148636791Y-93404154D01*
X148676342Y-93426258D01*
X148812398Y-93502297D01*
X148816996Y-93503791D01*
X149003724Y-93564463D01*
X149003726Y-93564464D01*
X149008329Y-93565959D01*
X149212894Y-93590351D01*
X149217716Y-93589980D01*
X149217719Y-93589980D01*
X149285541Y-93584761D01*
X149418300Y-93574546D01*
X149616725Y-93519145D01*
X149647164Y-93503769D01*
X149707629Y-93494408D01*
X149761805Y-93522132D01*
X150207051Y-93967379D01*
X150213356Y-93975596D01*
X150213759Y-93975258D01*
X150213760Y-93975260D01*
X150226785Y-93990784D01*
X150236674Y-94004906D01*
X150246806Y-94022455D01*
X150253440Y-94028021D01*
X150253441Y-94028023D01*
X150262325Y-94035478D01*
X150274523Y-94047675D01*
X150287545Y-94063194D01*
X150295044Y-94067523D01*
X150295047Y-94067526D01*
X150305083Y-94073320D01*
X150319219Y-94083218D01*
X150328102Y-94090671D01*
X150334739Y-94096240D01*
X150353783Y-94103171D01*
X150369415Y-94110461D01*
X150386955Y-94120588D01*
X150395484Y-94122092D01*
X150406901Y-94124105D01*
X150423569Y-94128571D01*
X150442606Y-94135500D01*
X150985806Y-94135500D01*
X151043997Y-94154407D01*
X151079961Y-94203907D01*
X151079961Y-94265093D01*
X151047839Y-94311655D01*
X151040225Y-94317777D01*
X151040223Y-94317779D01*
X151036447Y-94320815D01*
X151033333Y-94324526D01*
X151033332Y-94324527D01*
X151024585Y-94334952D01*
X150904024Y-94478630D01*
X150901689Y-94482878D01*
X150901688Y-94482879D01*
X150894955Y-94495126D01*
X150804776Y-94659162D01*
X150803313Y-94663775D01*
X150803311Y-94663779D01*
X150749413Y-94833689D01*
X150742484Y-94855532D01*
X150741944Y-94860344D01*
X150741944Y-94860345D01*
X150732829Y-94941612D01*
X150719520Y-95060262D01*
X150736759Y-95265553D01*
X150738092Y-95270201D01*
X150738092Y-95270202D01*
X150788579Y-95446270D01*
X150793544Y-95463586D01*
X150887712Y-95646818D01*
X151015677Y-95808270D01*
X151172564Y-95941791D01*
X151176787Y-95944151D01*
X151176791Y-95944154D01*
X151293702Y-96009493D01*
X151352398Y-96042297D01*
X151356996Y-96043791D01*
X151543724Y-96104463D01*
X151543726Y-96104464D01*
X151548329Y-96105959D01*
X151752894Y-96130351D01*
X151757716Y-96129980D01*
X151757719Y-96129980D01*
X151825541Y-96124761D01*
X151958300Y-96114546D01*
X152156725Y-96059145D01*
X152187164Y-96043769D01*
X152247629Y-96034408D01*
X152301805Y-96062131D01*
X158456731Y-102217057D01*
X158462565Y-102223424D01*
X158487545Y-102253194D01*
X158521205Y-102272627D01*
X158528489Y-102277268D01*
X158560316Y-102299554D01*
X158568684Y-102301796D01*
X158573971Y-102304262D01*
X158579456Y-102306258D01*
X158586955Y-102310588D01*
X158595481Y-102312091D01*
X158595483Y-102312092D01*
X158625216Y-102317334D01*
X158633650Y-102319204D01*
X158671193Y-102329264D01*
X158679822Y-102328509D01*
X158709905Y-102325877D01*
X158718534Y-102325500D01*
X159260501Y-102325500D01*
X159318692Y-102344407D01*
X159354656Y-102393907D01*
X159359501Y-102424500D01*
X159359501Y-102555992D01*
X159366171Y-102628594D01*
X159416873Y-102790383D01*
X159504703Y-102935408D01*
X159624592Y-103055297D01*
X159769617Y-103143127D01*
X159775310Y-103144911D01*
X159775312Y-103144912D01*
X159853487Y-103169411D01*
X159931406Y-103193829D01*
X160004007Y-103200500D01*
X162059545Y-103200500D01*
X164115992Y-103200499D01*
X164155528Y-103196867D01*
X164183360Y-103194310D01*
X164183361Y-103194310D01*
X164188594Y-103193829D01*
X164280631Y-103164986D01*
X164344688Y-103144912D01*
X164344690Y-103144911D01*
X164350383Y-103143127D01*
X164495408Y-103055297D01*
X164615297Y-102935408D01*
X164703127Y-102790383D01*
X164753829Y-102628594D01*
X164760500Y-102555993D01*
X164760499Y-101444008D01*
X164753829Y-101371406D01*
X164703127Y-101209617D01*
X164615297Y-101064592D01*
X164495408Y-100944703D01*
X164350383Y-100856873D01*
X164344690Y-100855089D01*
X164344688Y-100855088D01*
X164266513Y-100830589D01*
X164188594Y-100806171D01*
X164115993Y-100799500D01*
X162060455Y-100799500D01*
X160004008Y-100799501D01*
X159964472Y-100803133D01*
X159936640Y-100805690D01*
X159936639Y-100805690D01*
X159931406Y-100806171D01*
X159839369Y-100835014D01*
X159775312Y-100855088D01*
X159775310Y-100855089D01*
X159769617Y-100856873D01*
X159624592Y-100944703D01*
X159504703Y-101064592D01*
X159416873Y-101209617D01*
X159366171Y-101371406D01*
X159359500Y-101444007D01*
X159359500Y-101575500D01*
X159340593Y-101633691D01*
X159291093Y-101669655D01*
X159260500Y-101674500D01*
X158875834Y-101674500D01*
X158817643Y-101655593D01*
X158805830Y-101645504D01*
X152763923Y-95603597D01*
X152736146Y-95549080D01*
X152739988Y-95502344D01*
X152751448Y-95467896D01*
X152804351Y-95308863D01*
X152817534Y-95204512D01*
X152829823Y-95107228D01*
X152830171Y-95104474D01*
X152830583Y-95075000D01*
X152817808Y-94944703D01*
X152810952Y-94874780D01*
X152810951Y-94874776D01*
X152810480Y-94869970D01*
X152807460Y-94859965D01*
X152752333Y-94677380D01*
X152750935Y-94672749D01*
X152654218Y-94490849D01*
X152524011Y-94331200D01*
X152520282Y-94328115D01*
X152520276Y-94328109D01*
X152499329Y-94310780D01*
X152466544Y-94259120D01*
X152470386Y-94198055D01*
X152509388Y-94150911D01*
X152562434Y-94135500D01*
X152864166Y-94135500D01*
X152922357Y-94154407D01*
X152934170Y-94164496D01*
X157986735Y-99217061D01*
X157992571Y-99223430D01*
X158017545Y-99253194D01*
X158025042Y-99257523D01*
X158025044Y-99257524D01*
X158051206Y-99272628D01*
X158058484Y-99277264D01*
X158090316Y-99299553D01*
X158098682Y-99301795D01*
X158103973Y-99304262D01*
X158109450Y-99306255D01*
X158116955Y-99310588D01*
X158146038Y-99315716D01*
X158155231Y-99317337D01*
X158163657Y-99319205D01*
X158201193Y-99329263D01*
X158239896Y-99325877D01*
X158248525Y-99325500D01*
X159260501Y-99325500D01*
X159318692Y-99344407D01*
X159354656Y-99393907D01*
X159359501Y-99424500D01*
X159359501Y-99555992D01*
X159366171Y-99628594D01*
X159416873Y-99790383D01*
X159504703Y-99935408D01*
X159624592Y-100055297D01*
X159769617Y-100143127D01*
X159775310Y-100144911D01*
X159775312Y-100144912D01*
X159853487Y-100169411D01*
X159931406Y-100193829D01*
X160004007Y-100200500D01*
X162059545Y-100200500D01*
X164115992Y-100200499D01*
X164155528Y-100196867D01*
X164183360Y-100194310D01*
X164183361Y-100194310D01*
X164188594Y-100193829D01*
X164280631Y-100164986D01*
X164344688Y-100144912D01*
X164344690Y-100144911D01*
X164350383Y-100143127D01*
X164495408Y-100055297D01*
X164615297Y-99935408D01*
X164703127Y-99790383D01*
X164753829Y-99628594D01*
X164760500Y-99555993D01*
X164760499Y-98444008D01*
X164753829Y-98371406D01*
X164722277Y-98270724D01*
X164704912Y-98215312D01*
X164704911Y-98215310D01*
X164703127Y-98209617D01*
X164615297Y-98064592D01*
X164495408Y-97944703D01*
X164350383Y-97856873D01*
X164344690Y-97855089D01*
X164344688Y-97855088D01*
X164266513Y-97830589D01*
X164188594Y-97806171D01*
X164115993Y-97799500D01*
X162060455Y-97799500D01*
X160004008Y-97799501D01*
X159964472Y-97803133D01*
X159936640Y-97805690D01*
X159936639Y-97805690D01*
X159931406Y-97806171D01*
X159839369Y-97835014D01*
X159775312Y-97855088D01*
X159775310Y-97855089D01*
X159769617Y-97856873D01*
X159624592Y-97944703D01*
X159504703Y-98064592D01*
X159416873Y-98209617D01*
X159415089Y-98215310D01*
X159415088Y-98215312D01*
X159397723Y-98270724D01*
X159366171Y-98371406D01*
X159359500Y-98444007D01*
X159359500Y-98575500D01*
X159340593Y-98633691D01*
X159291093Y-98669655D01*
X159260500Y-98674500D01*
X158405835Y-98674500D01*
X158347644Y-98655593D01*
X158335831Y-98645504D01*
X153283269Y-93592943D01*
X153277434Y-93586575D01*
X153267652Y-93574917D01*
X153252455Y-93556806D01*
X153218792Y-93537371D01*
X153211511Y-93532732D01*
X153209056Y-93531013D01*
X153179684Y-93510446D01*
X153171316Y-93508204D01*
X153166029Y-93505738D01*
X153160544Y-93503742D01*
X153153045Y-93499412D01*
X153144519Y-93497909D01*
X153144517Y-93497908D01*
X153114784Y-93492666D01*
X153106349Y-93490796D01*
X153077174Y-93482978D01*
X153068807Y-93480736D01*
X153060178Y-93481491D01*
X153030095Y-93484123D01*
X153021466Y-93484500D01*
X152553581Y-93484500D01*
X152495390Y-93465593D01*
X152459426Y-93416093D01*
X152459426Y-93354907D01*
X152492629Y-93307488D01*
X152502951Y-93299424D01*
X152526081Y-93272628D01*
X152568541Y-93223437D01*
X152637564Y-93143472D01*
X152656231Y-93110613D01*
X152736934Y-92968550D01*
X152736935Y-92968547D01*
X152739323Y-92964344D01*
X152740848Y-92959760D01*
X152740851Y-92959753D01*
X152751329Y-92928252D01*
X152787637Y-92879004D01*
X152845268Y-92860500D01*
X152965450Y-92860500D01*
X152991074Y-92863873D01*
X153011193Y-92869264D01*
X153049905Y-92865877D01*
X153058534Y-92865500D01*
X153864166Y-92865500D01*
X153922357Y-92884407D01*
X153934170Y-92894496D01*
X157256731Y-96217057D01*
X157262565Y-96223424D01*
X157287545Y-96253194D01*
X157321205Y-96272627D01*
X157328489Y-96277268D01*
X157360316Y-96299554D01*
X157368684Y-96301796D01*
X157373971Y-96304262D01*
X157379456Y-96306258D01*
X157386955Y-96310588D01*
X157395481Y-96312091D01*
X157395483Y-96312092D01*
X157425216Y-96317334D01*
X157433650Y-96319204D01*
X157471193Y-96329264D01*
X157479822Y-96328509D01*
X157509905Y-96325877D01*
X157518534Y-96325500D01*
X159260501Y-96325500D01*
X159318692Y-96344407D01*
X159354656Y-96393907D01*
X159359501Y-96424500D01*
X159359501Y-96555992D01*
X159366171Y-96628594D01*
X159416873Y-96790383D01*
X159504703Y-96935408D01*
X159624592Y-97055297D01*
X159769617Y-97143127D01*
X159775310Y-97144911D01*
X159775312Y-97144912D01*
X159853487Y-97169411D01*
X159931406Y-97193829D01*
X160004007Y-97200500D01*
X162059545Y-97200500D01*
X164115992Y-97200499D01*
X164155528Y-97196867D01*
X164183360Y-97194310D01*
X164183361Y-97194310D01*
X164188594Y-97193829D01*
X164280631Y-97164986D01*
X164344688Y-97144912D01*
X164344690Y-97144911D01*
X164350383Y-97143127D01*
X164495408Y-97055297D01*
X164615297Y-96935408D01*
X164703127Y-96790383D01*
X164753829Y-96628594D01*
X164760500Y-96555993D01*
X164760499Y-95444008D01*
X164753829Y-95371406D01*
X164703127Y-95209617D01*
X164615297Y-95064592D01*
X164495408Y-94944703D01*
X164350383Y-94856873D01*
X164344690Y-94855089D01*
X164344688Y-94855088D01*
X164266513Y-94830589D01*
X164188594Y-94806171D01*
X164115993Y-94799500D01*
X162060455Y-94799500D01*
X160004008Y-94799501D01*
X159964472Y-94803133D01*
X159936640Y-94805690D01*
X159936639Y-94805690D01*
X159931406Y-94806171D01*
X159839369Y-94835014D01*
X159775312Y-94855088D01*
X159775310Y-94855089D01*
X159769617Y-94856873D01*
X159624592Y-94944703D01*
X159504703Y-95064592D01*
X159416873Y-95209617D01*
X159415089Y-95215310D01*
X159415088Y-95215312D01*
X159397887Y-95270202D01*
X159366171Y-95371406D01*
X159359500Y-95444007D01*
X159359500Y-95575500D01*
X159340593Y-95633691D01*
X159291093Y-95669655D01*
X159260500Y-95674500D01*
X157675834Y-95674500D01*
X157617643Y-95655593D01*
X157605830Y-95645504D01*
X154283269Y-92322943D01*
X154277434Y-92316575D01*
X154272686Y-92310917D01*
X154252455Y-92286806D01*
X154218792Y-92267371D01*
X154211511Y-92262732D01*
X154209056Y-92261013D01*
X154179684Y-92240446D01*
X154171316Y-92238204D01*
X154166029Y-92235738D01*
X154160544Y-92233742D01*
X154153045Y-92229412D01*
X154144519Y-92227909D01*
X154144517Y-92227908D01*
X154114784Y-92222666D01*
X154106349Y-92220796D01*
X154077174Y-92212978D01*
X154068807Y-92210736D01*
X154060178Y-92211491D01*
X154030095Y-92214123D01*
X154021466Y-92214500D01*
X153109550Y-92214500D01*
X153083926Y-92211127D01*
X153082467Y-92210736D01*
X153063807Y-92205736D01*
X153025095Y-92209123D01*
X153016466Y-92209500D01*
X152847631Y-92209500D01*
X152789440Y-92190593D01*
X152754665Y-92141659D01*
X152754179Y-92141859D01*
X152753312Y-92139756D01*
X152752857Y-92139116D01*
X152750935Y-92132749D01*
X152654218Y-91950849D01*
X152524011Y-91791200D01*
X152520282Y-91788115D01*
X152520276Y-91788109D01*
X152499329Y-91770780D01*
X152466544Y-91719120D01*
X152470386Y-91658055D01*
X152509388Y-91610911D01*
X152562434Y-91595500D01*
X155594166Y-91595500D01*
X155652357Y-91614407D01*
X155664170Y-91624496D01*
X157256742Y-93217069D01*
X157262565Y-93223424D01*
X157287545Y-93253194D01*
X157295042Y-93257523D01*
X157295044Y-93257524D01*
X157321206Y-93272628D01*
X157328484Y-93277264D01*
X157360316Y-93299553D01*
X157368682Y-93301795D01*
X157373973Y-93304262D01*
X157379450Y-93306255D01*
X157386955Y-93310588D01*
X157416038Y-93315716D01*
X157425231Y-93317337D01*
X157433657Y-93319205D01*
X157471193Y-93329263D01*
X157509896Y-93325877D01*
X157518525Y-93325500D01*
X159260501Y-93325500D01*
X159318692Y-93344407D01*
X159354656Y-93393907D01*
X159359501Y-93424500D01*
X159359501Y-93555992D01*
X159366171Y-93628594D01*
X159416873Y-93790383D01*
X159504703Y-93935408D01*
X159624592Y-94055297D01*
X159769617Y-94143127D01*
X159775310Y-94144911D01*
X159775312Y-94144912D01*
X159805611Y-94154407D01*
X159931406Y-94193829D01*
X160004007Y-94200500D01*
X162059545Y-94200500D01*
X164115992Y-94200499D01*
X164155528Y-94196867D01*
X164183360Y-94194310D01*
X164183361Y-94194310D01*
X164188594Y-94193829D01*
X164314389Y-94154407D01*
X164344688Y-94144912D01*
X164344690Y-94144911D01*
X164350383Y-94143127D01*
X164495408Y-94055297D01*
X164615297Y-93935408D01*
X164703127Y-93790383D01*
X164753829Y-93628594D01*
X164760500Y-93555993D01*
X164760499Y-92444008D01*
X164753829Y-92371406D01*
X164711313Y-92235738D01*
X164704912Y-92215312D01*
X164704911Y-92215310D01*
X164703127Y-92209617D01*
X164615297Y-92064592D01*
X164495408Y-91944703D01*
X164350383Y-91856873D01*
X164344690Y-91855089D01*
X164344688Y-91855088D01*
X164266513Y-91830589D01*
X164188594Y-91806171D01*
X164115993Y-91799500D01*
X162060455Y-91799500D01*
X160004008Y-91799501D01*
X159964472Y-91803133D01*
X159936640Y-91805690D01*
X159936639Y-91805690D01*
X159931406Y-91806171D01*
X159839369Y-91835014D01*
X159775312Y-91855088D01*
X159775310Y-91855089D01*
X159769617Y-91856873D01*
X159624592Y-91944703D01*
X159504703Y-92064592D01*
X159416873Y-92209617D01*
X159415089Y-92215310D01*
X159415088Y-92215312D01*
X159408687Y-92235738D01*
X159366171Y-92371406D01*
X159359500Y-92444007D01*
X159359500Y-92575500D01*
X159340593Y-92633691D01*
X159291093Y-92669655D01*
X159260500Y-92674500D01*
X157675835Y-92674500D01*
X157617644Y-92655593D01*
X157605831Y-92645504D01*
X156013269Y-91052943D01*
X156007434Y-91046575D01*
X155997652Y-91034917D01*
X155982455Y-91016806D01*
X155948792Y-90997371D01*
X155941511Y-90992732D01*
X155926371Y-90982131D01*
X155909684Y-90970446D01*
X155901316Y-90968204D01*
X155896029Y-90965738D01*
X155890544Y-90963742D01*
X155883045Y-90959412D01*
X155874519Y-90957909D01*
X155874517Y-90957908D01*
X155844784Y-90952666D01*
X155836349Y-90950796D01*
X155807174Y-90942978D01*
X155798807Y-90940736D01*
X155790178Y-90941491D01*
X155760095Y-90944123D01*
X155751466Y-90944500D01*
X152553581Y-90944500D01*
X152495390Y-90925593D01*
X152459426Y-90876093D01*
X152459426Y-90814907D01*
X152492629Y-90767488D01*
X152502951Y-90759424D01*
X152637564Y-90603472D01*
X152656231Y-90570613D01*
X152736934Y-90428550D01*
X152736935Y-90428547D01*
X152739323Y-90424344D01*
X152740848Y-90419760D01*
X152740851Y-90419753D01*
X152751329Y-90388252D01*
X152787637Y-90339004D01*
X152845268Y-90320500D01*
X152965450Y-90320500D01*
X152991074Y-90323873D01*
X153011193Y-90329264D01*
X153107052Y-90320877D01*
X153115681Y-90320500D01*
X159260501Y-90320500D01*
X159318692Y-90339407D01*
X159354656Y-90388907D01*
X159359501Y-90419500D01*
X159359501Y-90555992D01*
X159366171Y-90628594D01*
X159416873Y-90790383D01*
X159504703Y-90935408D01*
X159624592Y-91055297D01*
X159769617Y-91143127D01*
X159775310Y-91144911D01*
X159775312Y-91144912D01*
X159853487Y-91169411D01*
X159931406Y-91193829D01*
X160004007Y-91200500D01*
X162059545Y-91200500D01*
X164115992Y-91200499D01*
X164155528Y-91196867D01*
X164183360Y-91194310D01*
X164183361Y-91194310D01*
X164188594Y-91193829D01*
X164280631Y-91164986D01*
X164344688Y-91144912D01*
X164344690Y-91144911D01*
X164350383Y-91143127D01*
X164495408Y-91055297D01*
X164615297Y-90935408D01*
X164703127Y-90790383D01*
X164753829Y-90628594D01*
X164760500Y-90555993D01*
X164760499Y-89444008D01*
X164753829Y-89371406D01*
X164717334Y-89254952D01*
X164704912Y-89215312D01*
X164704911Y-89215310D01*
X164703127Y-89209617D01*
X164615297Y-89064592D01*
X164495408Y-88944703D01*
X164350383Y-88856873D01*
X164344690Y-88855089D01*
X164344688Y-88855088D01*
X164266513Y-88830589D01*
X164188594Y-88806171D01*
X164115993Y-88799500D01*
X162060455Y-88799500D01*
X160004008Y-88799501D01*
X159964472Y-88803133D01*
X159936640Y-88805690D01*
X159936639Y-88805690D01*
X159931406Y-88806171D01*
X159839369Y-88835014D01*
X159775312Y-88855088D01*
X159775310Y-88855089D01*
X159769617Y-88856873D01*
X159624592Y-88944703D01*
X159504703Y-89064592D01*
X159416873Y-89209617D01*
X159415089Y-89215310D01*
X159415088Y-89215312D01*
X159402666Y-89254952D01*
X159366171Y-89371406D01*
X159359500Y-89444007D01*
X159359500Y-89570500D01*
X159340593Y-89628691D01*
X159291093Y-89664655D01*
X159260500Y-89669500D01*
X153090886Y-89669500D01*
X153080851Y-89668178D01*
X153080802Y-89668733D01*
X153072174Y-89667978D01*
X153063807Y-89665736D01*
X153055178Y-89666491D01*
X153025095Y-89669123D01*
X153016466Y-89669500D01*
X152847631Y-89669500D01*
X152789440Y-89650593D01*
X152754665Y-89601659D01*
X152754179Y-89601859D01*
X152753312Y-89599756D01*
X152752857Y-89599116D01*
X152750935Y-89592749D01*
X152654218Y-89410849D01*
X152524011Y-89251200D01*
X152520282Y-89248115D01*
X152520276Y-89248109D01*
X152499329Y-89230780D01*
X152466544Y-89179120D01*
X152470386Y-89118055D01*
X152509388Y-89070911D01*
X152562434Y-89055500D01*
X155751466Y-89055500D01*
X155760095Y-89055877D01*
X155798807Y-89059264D01*
X155836350Y-89049204D01*
X155844784Y-89047334D01*
X155874517Y-89042092D01*
X155874519Y-89042091D01*
X155883045Y-89040588D01*
X155890544Y-89036258D01*
X155896029Y-89034262D01*
X155901316Y-89031796D01*
X155909684Y-89029554D01*
X155941511Y-89007268D01*
X155948795Y-89002627D01*
X155948807Y-89002620D01*
X155982455Y-88983194D01*
X156007431Y-88953429D01*
X156013265Y-88947061D01*
X157605831Y-87354496D01*
X157660348Y-87326719D01*
X157675835Y-87325500D01*
X159260501Y-87325500D01*
X159318692Y-87344407D01*
X159354656Y-87393907D01*
X159359501Y-87424500D01*
X159359501Y-87555992D01*
X159366171Y-87628594D01*
X159383553Y-87684060D01*
X159413370Y-87779204D01*
X159416873Y-87790383D01*
X159504703Y-87935408D01*
X159624592Y-88055297D01*
X159769617Y-88143127D01*
X159775310Y-88144911D01*
X159775312Y-88144912D01*
X159853487Y-88169411D01*
X159931406Y-88193829D01*
X160004007Y-88200500D01*
X162059545Y-88200500D01*
X164115992Y-88200499D01*
X164155528Y-88196867D01*
X164183360Y-88194310D01*
X164183361Y-88194310D01*
X164188594Y-88193829D01*
X164280631Y-88164986D01*
X164344688Y-88144912D01*
X164344690Y-88144911D01*
X164350383Y-88143127D01*
X164495408Y-88055297D01*
X164615297Y-87935408D01*
X164703127Y-87790383D01*
X164706631Y-87779204D01*
X164748514Y-87645553D01*
X164753829Y-87628594D01*
X164760500Y-87555993D01*
X164760499Y-86444008D01*
X164756867Y-86404472D01*
X164754310Y-86376640D01*
X164754310Y-86376639D01*
X164753829Y-86371406D01*
X164703127Y-86209617D01*
X164615297Y-86064592D01*
X164495408Y-85944703D01*
X164350383Y-85856873D01*
X164344690Y-85855089D01*
X164344688Y-85855088D01*
X164266513Y-85830589D01*
X164188594Y-85806171D01*
X164115993Y-85799500D01*
X162060455Y-85799500D01*
X160004008Y-85799501D01*
X159964472Y-85803133D01*
X159936640Y-85805690D01*
X159936639Y-85805690D01*
X159931406Y-85806171D01*
X159839369Y-85835014D01*
X159775312Y-85855088D01*
X159775310Y-85855089D01*
X159769617Y-85856873D01*
X159624592Y-85944703D01*
X159504703Y-86064592D01*
X159416873Y-86209617D01*
X159366171Y-86371406D01*
X159359500Y-86444007D01*
X159359500Y-86575500D01*
X159340593Y-86633691D01*
X159291093Y-86669655D01*
X159260500Y-86674500D01*
X157518522Y-86674500D01*
X157509893Y-86674123D01*
X157479822Y-86671492D01*
X157471193Y-86670737D01*
X157433657Y-86680795D01*
X157425231Y-86682663D01*
X157416038Y-86684284D01*
X157386955Y-86689412D01*
X157379450Y-86693745D01*
X157373973Y-86695738D01*
X157368682Y-86698205D01*
X157360316Y-86700447D01*
X157328484Y-86722736D01*
X157321206Y-86727372D01*
X157295044Y-86742476D01*
X157295042Y-86742477D01*
X157287545Y-86746806D01*
X157262574Y-86776565D01*
X157256740Y-86782933D01*
X155664170Y-88375504D01*
X155609653Y-88403281D01*
X155594166Y-88404500D01*
X152553581Y-88404500D01*
X152495390Y-88385593D01*
X152459426Y-88336093D01*
X152459426Y-88274907D01*
X152492629Y-88227488D01*
X152502951Y-88219424D01*
X152519287Y-88200499D01*
X152571477Y-88140035D01*
X152637564Y-88063472D01*
X152656231Y-88030613D01*
X152736934Y-87888550D01*
X152736935Y-87888547D01*
X152739323Y-87884344D01*
X152740848Y-87879760D01*
X152740851Y-87879753D01*
X152751329Y-87848252D01*
X152787637Y-87799004D01*
X152845268Y-87780500D01*
X152965450Y-87780500D01*
X152991074Y-87783873D01*
X153011193Y-87789264D01*
X153049905Y-87785877D01*
X153058534Y-87785500D01*
X154021466Y-87785500D01*
X154030095Y-87785877D01*
X154068807Y-87789264D01*
X154106350Y-87779204D01*
X154114784Y-87777334D01*
X154144517Y-87772092D01*
X154144519Y-87772091D01*
X154153045Y-87770588D01*
X154160544Y-87766258D01*
X154166029Y-87764262D01*
X154171316Y-87761796D01*
X154179684Y-87759554D01*
X154211511Y-87737268D01*
X154218795Y-87732627D01*
X154252455Y-87713194D01*
X154277431Y-87683429D01*
X154283265Y-87677061D01*
X157605830Y-84354496D01*
X157660347Y-84326719D01*
X157675834Y-84325500D01*
X159260501Y-84325500D01*
X159318692Y-84344407D01*
X159354656Y-84393907D01*
X159359501Y-84424500D01*
X159359501Y-84555992D01*
X159366171Y-84628594D01*
X159416873Y-84790383D01*
X159504703Y-84935408D01*
X159624592Y-85055297D01*
X159769617Y-85143127D01*
X159775310Y-85144911D01*
X159775312Y-85144912D01*
X159787920Y-85148863D01*
X159931406Y-85193829D01*
X160004007Y-85200500D01*
X162059545Y-85200500D01*
X164115992Y-85200499D01*
X164155528Y-85196867D01*
X164183360Y-85194310D01*
X164183361Y-85194310D01*
X164188594Y-85193829D01*
X164332080Y-85148863D01*
X164344688Y-85144912D01*
X164344690Y-85144911D01*
X164350383Y-85143127D01*
X164495408Y-85055297D01*
X164615297Y-84935408D01*
X164703127Y-84790383D01*
X164753829Y-84628594D01*
X164760500Y-84555993D01*
X164760499Y-83444008D01*
X164753829Y-83371406D01*
X164703127Y-83209617D01*
X164615297Y-83064592D01*
X164495408Y-82944703D01*
X164350383Y-82856873D01*
X164344690Y-82855089D01*
X164344688Y-82855088D01*
X164266513Y-82830589D01*
X164188594Y-82806171D01*
X164115993Y-82799500D01*
X162060455Y-82799500D01*
X160004008Y-82799501D01*
X159964472Y-82803133D01*
X159936640Y-82805690D01*
X159936639Y-82805690D01*
X159931406Y-82806171D01*
X159839369Y-82835014D01*
X159775312Y-82855088D01*
X159775310Y-82855089D01*
X159769617Y-82856873D01*
X159624592Y-82944703D01*
X159504703Y-83064592D01*
X159416873Y-83209617D01*
X159366171Y-83371406D01*
X159359500Y-83444007D01*
X159359500Y-83575500D01*
X159340593Y-83633691D01*
X159291093Y-83669655D01*
X159260500Y-83674500D01*
X157518534Y-83674500D01*
X157509905Y-83674123D01*
X157479822Y-83671491D01*
X157471193Y-83670736D01*
X157462826Y-83672978D01*
X157433651Y-83680796D01*
X157425216Y-83682666D01*
X157395483Y-83687908D01*
X157395481Y-83687909D01*
X157386955Y-83689412D01*
X157379456Y-83693742D01*
X157373971Y-83695738D01*
X157368684Y-83698204D01*
X157360316Y-83700446D01*
X157330944Y-83721013D01*
X157328489Y-83722732D01*
X157321208Y-83727371D01*
X157287545Y-83746806D01*
X157281978Y-83753441D01*
X157262569Y-83776571D01*
X157256735Y-83782939D01*
X153934170Y-87105504D01*
X153879653Y-87133281D01*
X153864166Y-87134500D01*
X153109550Y-87134500D01*
X153083926Y-87131127D01*
X153063807Y-87125736D01*
X153025095Y-87129123D01*
X153016466Y-87129500D01*
X152847631Y-87129500D01*
X152789440Y-87110593D01*
X152754665Y-87061659D01*
X152754179Y-87061859D01*
X152753312Y-87059756D01*
X152752857Y-87059116D01*
X152750935Y-87052749D01*
X152654218Y-86870849D01*
X152524011Y-86711200D01*
X152520282Y-86708115D01*
X152520276Y-86708109D01*
X152499329Y-86690780D01*
X152466544Y-86639120D01*
X152470386Y-86578055D01*
X152509388Y-86530911D01*
X152562434Y-86515500D01*
X153021466Y-86515500D01*
X153030095Y-86515877D01*
X153068807Y-86519264D01*
X153106350Y-86509204D01*
X153114784Y-86507334D01*
X153144517Y-86502092D01*
X153144519Y-86502091D01*
X153153045Y-86500588D01*
X153160544Y-86496258D01*
X153166029Y-86494262D01*
X153171316Y-86491796D01*
X153179684Y-86489554D01*
X153211511Y-86467268D01*
X153218795Y-86462627D01*
X153227414Y-86457651D01*
X153252455Y-86443194D01*
X153277431Y-86413429D01*
X153283265Y-86407061D01*
X158335831Y-81354496D01*
X158390348Y-81326719D01*
X158405835Y-81325500D01*
X159260501Y-81325500D01*
X159318692Y-81344407D01*
X159354656Y-81393907D01*
X159359501Y-81424500D01*
X159359501Y-81555992D01*
X159366171Y-81628594D01*
X159367743Y-81633609D01*
X159403921Y-81749052D01*
X159416873Y-81790383D01*
X159504703Y-81935408D01*
X159624592Y-82055297D01*
X159769617Y-82143127D01*
X159775310Y-82144911D01*
X159775312Y-82144912D01*
X159853487Y-82169411D01*
X159931406Y-82193829D01*
X160004007Y-82200500D01*
X162059545Y-82200500D01*
X164115992Y-82200499D01*
X164155528Y-82196867D01*
X164183360Y-82194310D01*
X164183361Y-82194310D01*
X164188594Y-82193829D01*
X164280631Y-82164986D01*
X164344688Y-82144912D01*
X164344690Y-82144911D01*
X164350383Y-82143127D01*
X164495408Y-82055297D01*
X164615297Y-81935408D01*
X164703127Y-81790383D01*
X164716080Y-81749052D01*
X164752259Y-81633603D01*
X164753829Y-81628594D01*
X164760500Y-81555993D01*
X164760499Y-80444008D01*
X164753829Y-80371406D01*
X164703127Y-80209617D01*
X164615297Y-80064592D01*
X164495408Y-79944703D01*
X164350383Y-79856873D01*
X164344690Y-79855089D01*
X164344688Y-79855088D01*
X164266513Y-79830589D01*
X164188594Y-79806171D01*
X164115993Y-79799500D01*
X162060455Y-79799500D01*
X160004008Y-79799501D01*
X159964472Y-79803133D01*
X159936640Y-79805690D01*
X159936639Y-79805690D01*
X159931406Y-79806171D01*
X159839369Y-79835014D01*
X159775312Y-79855088D01*
X159775310Y-79855089D01*
X159769617Y-79856873D01*
X159624592Y-79944703D01*
X159504703Y-80064592D01*
X159416873Y-80209617D01*
X159366171Y-80371406D01*
X159359500Y-80444007D01*
X159359500Y-80575500D01*
X159340593Y-80633691D01*
X159291093Y-80669655D01*
X159260500Y-80674500D01*
X158248523Y-80674500D01*
X158239894Y-80674123D01*
X158209822Y-80671492D01*
X158201193Y-80670737D01*
X158163657Y-80680795D01*
X158155231Y-80682663D01*
X158146038Y-80684284D01*
X158116955Y-80689412D01*
X158109450Y-80693745D01*
X158103973Y-80695738D01*
X158098682Y-80698205D01*
X158090316Y-80700447D01*
X158058484Y-80722736D01*
X158051206Y-80727372D01*
X158025044Y-80742476D01*
X158025042Y-80742477D01*
X158017545Y-80746806D01*
X157992575Y-80776564D01*
X157986741Y-80782932D01*
X152934170Y-85835504D01*
X152879653Y-85863281D01*
X152864166Y-85864500D01*
X152553581Y-85864500D01*
X152495390Y-85845593D01*
X152459426Y-85796093D01*
X152459426Y-85734907D01*
X152492629Y-85687488D01*
X152502951Y-85679424D01*
X152637564Y-85523472D01*
X152656231Y-85490613D01*
X152736934Y-85348550D01*
X152736935Y-85348547D01*
X152739323Y-85344344D01*
X152752882Y-85303586D01*
X152802824Y-85153454D01*
X152802824Y-85153452D01*
X152804351Y-85148863D01*
X152830171Y-84944474D01*
X152830583Y-84915000D01*
X152818865Y-84795488D01*
X152810952Y-84714780D01*
X152810951Y-84714776D01*
X152810480Y-84709970D01*
X152750935Y-84512749D01*
X152745977Y-84503423D01*
X152735351Y-84443170D01*
X152763384Y-84386942D01*
X158795830Y-78354496D01*
X158850347Y-78326719D01*
X158865834Y-78325500D01*
X159260501Y-78325500D01*
X159318692Y-78344407D01*
X159354656Y-78393907D01*
X159359501Y-78424500D01*
X159359501Y-78555992D01*
X159366171Y-78628594D01*
X159416873Y-78790383D01*
X159504703Y-78935408D01*
X159624592Y-79055297D01*
X159769617Y-79143127D01*
X159775310Y-79144911D01*
X159775312Y-79144912D01*
X159853487Y-79169411D01*
X159931406Y-79193829D01*
X160004007Y-79200500D01*
X162059545Y-79200500D01*
X164115992Y-79200499D01*
X164155528Y-79196867D01*
X164183360Y-79194310D01*
X164183361Y-79194310D01*
X164188594Y-79193829D01*
X164280631Y-79164986D01*
X164344688Y-79144912D01*
X164344690Y-79144911D01*
X164350383Y-79143127D01*
X164495408Y-79055297D01*
X164615297Y-78935408D01*
X164703127Y-78790383D01*
X164753829Y-78628594D01*
X164760500Y-78555993D01*
X164760499Y-77444008D01*
X164753829Y-77371406D01*
X164703127Y-77209617D01*
X164615297Y-77064592D01*
X164495408Y-76944703D01*
X164350383Y-76856873D01*
X164344690Y-76855089D01*
X164344688Y-76855088D01*
X164266513Y-76830589D01*
X164188594Y-76806171D01*
X164115993Y-76799500D01*
X162060455Y-76799500D01*
X160004008Y-76799501D01*
X159964472Y-76803133D01*
X159936640Y-76805690D01*
X159936639Y-76805690D01*
X159931406Y-76806171D01*
X159839369Y-76835014D01*
X159775312Y-76855088D01*
X159775310Y-76855089D01*
X159769617Y-76856873D01*
X159624592Y-76944703D01*
X159504703Y-77064592D01*
X159416873Y-77209617D01*
X159366171Y-77371406D01*
X159359500Y-77444007D01*
X159359500Y-77575500D01*
X159340593Y-77633691D01*
X159291093Y-77669655D01*
X159260500Y-77674500D01*
X158708534Y-77674500D01*
X158699905Y-77674123D01*
X158669822Y-77671491D01*
X158661193Y-77670736D01*
X158652826Y-77672978D01*
X158623651Y-77680796D01*
X158615216Y-77682666D01*
X158585483Y-77687908D01*
X158585481Y-77687909D01*
X158576955Y-77689412D01*
X158569456Y-77693742D01*
X158563971Y-77695738D01*
X158558684Y-77698204D01*
X158550316Y-77700446D01*
X158520944Y-77721013D01*
X158518489Y-77722732D01*
X158511208Y-77727371D01*
X158477545Y-77746806D01*
X158471978Y-77753441D01*
X158452569Y-77776571D01*
X158446735Y-77782939D01*
X152303556Y-83926118D01*
X152249039Y-83953895D01*
X152193480Y-83944404D01*
X152192777Y-83946076D01*
X152188315Y-83944200D01*
X152184055Y-83941897D01*
X152173146Y-83938520D01*
X151991875Y-83882407D01*
X151991871Y-83882406D01*
X151987254Y-83880977D01*
X151982446Y-83880472D01*
X151982443Y-83880471D01*
X151787185Y-83859949D01*
X151787183Y-83859949D01*
X151782369Y-83859443D01*
X151722354Y-83864905D01*
X151582022Y-83877675D01*
X151582017Y-83877676D01*
X151577203Y-83878114D01*
X151379572Y-83936280D01*
X151375288Y-83938519D01*
X151375287Y-83938520D01*
X151364428Y-83944197D01*
X151197002Y-84031726D01*
X151193231Y-84034758D01*
X151040220Y-84157781D01*
X151040217Y-84157783D01*
X151036447Y-84160815D01*
X151033333Y-84164526D01*
X151033332Y-84164527D01*
X151024585Y-84174952D01*
X150904024Y-84318630D01*
X150901689Y-84322878D01*
X150901688Y-84322879D01*
X150894955Y-84335126D01*
X150804776Y-84499162D01*
X150803313Y-84503775D01*
X150803311Y-84503779D01*
X150786748Y-84555993D01*
X150742484Y-84695532D01*
X150741944Y-84700344D01*
X150741944Y-84700345D01*
X150732484Y-84784688D01*
X150719520Y-84900262D01*
X150719925Y-84905082D01*
X150732185Y-85051079D01*
X150736759Y-85105553D01*
X150738092Y-85110201D01*
X150738092Y-85110202D01*
X150763985Y-85200500D01*
X150793544Y-85303586D01*
X150887712Y-85486818D01*
X151015677Y-85648270D01*
X151064837Y-85690108D01*
X151096897Y-85742220D01*
X151092203Y-85803225D01*
X151052548Y-85849821D01*
X151000673Y-85864500D01*
X150685834Y-85864500D01*
X150627643Y-85845593D01*
X150615831Y-85835504D01*
X150223924Y-85443598D01*
X150196146Y-85389081D01*
X150199988Y-85342345D01*
X150262824Y-85153454D01*
X150262824Y-85153452D01*
X150264351Y-85148863D01*
X150290171Y-84944474D01*
X150290583Y-84915000D01*
X150278865Y-84795488D01*
X150270952Y-84714780D01*
X150270951Y-84714776D01*
X150270480Y-84709970D01*
X150210935Y-84512749D01*
X150114218Y-84330849D01*
X149984011Y-84171200D01*
X149825275Y-84039882D01*
X149644055Y-83941897D01*
X149580855Y-83922333D01*
X149451875Y-83882407D01*
X149451871Y-83882406D01*
X149447254Y-83880977D01*
X149442446Y-83880472D01*
X149442443Y-83880471D01*
X149247185Y-83859949D01*
X149247183Y-83859949D01*
X149242369Y-83859443D01*
X149182354Y-83864905D01*
X149042022Y-83877675D01*
X149042017Y-83877676D01*
X149037203Y-83878114D01*
X148839572Y-83936280D01*
X148835288Y-83938519D01*
X148835287Y-83938520D01*
X148824428Y-83944197D01*
X148657002Y-84031726D01*
X148653231Y-84034758D01*
X148500220Y-84157781D01*
X148500217Y-84157783D01*
X148496447Y-84160815D01*
X148493333Y-84164526D01*
X148493332Y-84164527D01*
X148484585Y-84174952D01*
X148364024Y-84318630D01*
X148361689Y-84322878D01*
X148361688Y-84322879D01*
X148354955Y-84335126D01*
X148264776Y-84499162D01*
X148263313Y-84503775D01*
X148263311Y-84503779D01*
X148246748Y-84555993D01*
X148202484Y-84695532D01*
X148201944Y-84700344D01*
X148201944Y-84700345D01*
X148192484Y-84784688D01*
X148179520Y-84900262D01*
X148179925Y-84905082D01*
X148192185Y-85051079D01*
X148196759Y-85105553D01*
X148198092Y-85110201D01*
X148198092Y-85110202D01*
X148223985Y-85200500D01*
X148253544Y-85303586D01*
X148347712Y-85486818D01*
X148475677Y-85648270D01*
X148479357Y-85651402D01*
X148479359Y-85651404D01*
X148512283Y-85679424D01*
X148632564Y-85781791D01*
X148636787Y-85784151D01*
X148636791Y-85784154D01*
X148728672Y-85835504D01*
X148812398Y-85882297D01*
X148816996Y-85883791D01*
X149003724Y-85944463D01*
X149003726Y-85944464D01*
X149008329Y-85945959D01*
X149212894Y-85970351D01*
X149217716Y-85969980D01*
X149217719Y-85969980D01*
X149285541Y-85964761D01*
X149418300Y-85954546D01*
X149616725Y-85899145D01*
X149647164Y-85883769D01*
X149707629Y-85874408D01*
X149761805Y-85902132D01*
X150207051Y-86347379D01*
X150213356Y-86355596D01*
X150213759Y-86355258D01*
X150213760Y-86355260D01*
X150226785Y-86370784D01*
X150236674Y-86384906D01*
X150246806Y-86402455D01*
X150253440Y-86408021D01*
X150253441Y-86408023D01*
X150262325Y-86415478D01*
X150274523Y-86427675D01*
X150287545Y-86443194D01*
X150295044Y-86447523D01*
X150295047Y-86447526D01*
X150305083Y-86453320D01*
X150319219Y-86463218D01*
X150328102Y-86470671D01*
X150334739Y-86476240D01*
X150353783Y-86483171D01*
X150369415Y-86490461D01*
X150386955Y-86500588D01*
X150395484Y-86502092D01*
X150406901Y-86504105D01*
X150423569Y-86508571D01*
X150442606Y-86515500D01*
X150985806Y-86515500D01*
X151043997Y-86534407D01*
X151079961Y-86583907D01*
X151079961Y-86645093D01*
X151047839Y-86691655D01*
X151040225Y-86697777D01*
X151040223Y-86697779D01*
X151036447Y-86700815D01*
X151033333Y-86704526D01*
X151033332Y-86704527D01*
X150967542Y-86782933D01*
X150904024Y-86858630D01*
X150901689Y-86862878D01*
X150901688Y-86862879D01*
X150894955Y-86875126D01*
X150804776Y-87039162D01*
X150803313Y-87043775D01*
X150803311Y-87043779D01*
X150797576Y-87061859D01*
X150742484Y-87235532D01*
X150741944Y-87240344D01*
X150741944Y-87240345D01*
X150724720Y-87393907D01*
X150719520Y-87440262D01*
X150719925Y-87445082D01*
X150735756Y-87633603D01*
X150736759Y-87645553D01*
X150738092Y-87650201D01*
X150738092Y-87650202D01*
X150777325Y-87787022D01*
X150793544Y-87843586D01*
X150887712Y-88026818D01*
X151015677Y-88188270D01*
X151019357Y-88191402D01*
X151019358Y-88191403D01*
X151020364Y-88192259D01*
X151064837Y-88230108D01*
X151096897Y-88282220D01*
X151092203Y-88343225D01*
X151052548Y-88389821D01*
X151000673Y-88404500D01*
X150685834Y-88404500D01*
X150627643Y-88385593D01*
X150615831Y-88375504D01*
X150223924Y-87983598D01*
X150196146Y-87929081D01*
X150199988Y-87882345D01*
X150262824Y-87693454D01*
X150262824Y-87693452D01*
X150264351Y-87688863D01*
X150265038Y-87683429D01*
X150289823Y-87487228D01*
X150290171Y-87484474D01*
X150290583Y-87455000D01*
X150280729Y-87354496D01*
X150270952Y-87254780D01*
X150270951Y-87254776D01*
X150270480Y-87249970D01*
X150210935Y-87052749D01*
X150114218Y-86870849D01*
X149984011Y-86711200D01*
X149967790Y-86697781D01*
X149829002Y-86582965D01*
X149829000Y-86582964D01*
X149825275Y-86579882D01*
X149681405Y-86502092D01*
X149648309Y-86484197D01*
X149648308Y-86484197D01*
X149644055Y-86481897D01*
X149565729Y-86457651D01*
X149451875Y-86422407D01*
X149451871Y-86422406D01*
X149447254Y-86420977D01*
X149442446Y-86420472D01*
X149442443Y-86420471D01*
X149247185Y-86399949D01*
X149247183Y-86399949D01*
X149242369Y-86399443D01*
X149182354Y-86404905D01*
X149042022Y-86417675D01*
X149042017Y-86417676D01*
X149037203Y-86418114D01*
X148839572Y-86476280D01*
X148835288Y-86478519D01*
X148835287Y-86478520D01*
X148786348Y-86504105D01*
X148657002Y-86571726D01*
X148653231Y-86574758D01*
X148500220Y-86697781D01*
X148500217Y-86697783D01*
X148496447Y-86700815D01*
X148493333Y-86704526D01*
X148493332Y-86704527D01*
X148427542Y-86782933D01*
X148364024Y-86858630D01*
X148361689Y-86862878D01*
X148361688Y-86862879D01*
X148354955Y-86875126D01*
X148264776Y-87039162D01*
X148263313Y-87043775D01*
X148263311Y-87043779D01*
X148257576Y-87061859D01*
X148202484Y-87235532D01*
X148201944Y-87240344D01*
X148201944Y-87240345D01*
X148184720Y-87393907D01*
X148179520Y-87440262D01*
X148179925Y-87445082D01*
X148195756Y-87633603D01*
X148196759Y-87645553D01*
X148198092Y-87650201D01*
X148198092Y-87650202D01*
X148237325Y-87787022D01*
X148253544Y-87843586D01*
X148347712Y-88026818D01*
X148475677Y-88188270D01*
X148479357Y-88191402D01*
X148479359Y-88191404D01*
X148512283Y-88219424D01*
X148632564Y-88321791D01*
X148636787Y-88324151D01*
X148636791Y-88324154D01*
X148676342Y-88346258D01*
X148812398Y-88422297D01*
X148816996Y-88423791D01*
X149003724Y-88484463D01*
X149003726Y-88484464D01*
X149008329Y-88485959D01*
X149212894Y-88510351D01*
X149217716Y-88509980D01*
X149217719Y-88509980D01*
X149285541Y-88504761D01*
X149418300Y-88494546D01*
X149616725Y-88439145D01*
X149647164Y-88423769D01*
X149707629Y-88414408D01*
X149761805Y-88442131D01*
X150266742Y-88947069D01*
X150272565Y-88953424D01*
X150297545Y-88983194D01*
X150331219Y-89002636D01*
X150338478Y-89007261D01*
X150357340Y-89020468D01*
X150370316Y-89029554D01*
X150378678Y-89031795D01*
X150383960Y-89034258D01*
X150389454Y-89036257D01*
X150396955Y-89040588D01*
X150435211Y-89047334D01*
X150435228Y-89047337D01*
X150443656Y-89049206D01*
X150472827Y-89057022D01*
X150472830Y-89057022D01*
X150481193Y-89059263D01*
X150519896Y-89055877D01*
X150528525Y-89055500D01*
X150985806Y-89055500D01*
X151043997Y-89074407D01*
X151079961Y-89123907D01*
X151079961Y-89185093D01*
X151047839Y-89231655D01*
X151040225Y-89237777D01*
X151040223Y-89237779D01*
X151036447Y-89240815D01*
X151033333Y-89244526D01*
X151033332Y-89244527D01*
X150922483Y-89376632D01*
X150904024Y-89398630D01*
X150901689Y-89402878D01*
X150901688Y-89402879D01*
X150894955Y-89415126D01*
X150804776Y-89579162D01*
X150803313Y-89583775D01*
X150803311Y-89583779D01*
X150776239Y-89669123D01*
X150742484Y-89775532D01*
X150741944Y-89780344D01*
X150741944Y-89780345D01*
X150740865Y-89789970D01*
X150719520Y-89980262D01*
X150736759Y-90185553D01*
X150738092Y-90190201D01*
X150738092Y-90190202D01*
X150776422Y-90323873D01*
X150793544Y-90383586D01*
X150887712Y-90566818D01*
X151015677Y-90728270D01*
X151064837Y-90770108D01*
X151096897Y-90822220D01*
X151092203Y-90883225D01*
X151052548Y-90929821D01*
X151000673Y-90944500D01*
X150685834Y-90944500D01*
X150627643Y-90925593D01*
X150615831Y-90915504D01*
X150223924Y-90523598D01*
X150196146Y-90469081D01*
X150199988Y-90422345D01*
X150262824Y-90233454D01*
X150262824Y-90233452D01*
X150264351Y-90228863D01*
X150290171Y-90024474D01*
X150290583Y-89995000D01*
X150270480Y-89789970D01*
X150210935Y-89592749D01*
X150114218Y-89410849D01*
X149984011Y-89251200D01*
X149967790Y-89237781D01*
X149829002Y-89122965D01*
X149829000Y-89122964D01*
X149825275Y-89119882D01*
X149692489Y-89048085D01*
X149648309Y-89024197D01*
X149648308Y-89024197D01*
X149644055Y-89021897D01*
X149533014Y-88987524D01*
X149451875Y-88962407D01*
X149451871Y-88962406D01*
X149447254Y-88960977D01*
X149442446Y-88960472D01*
X149442443Y-88960471D01*
X149247185Y-88939949D01*
X149247183Y-88939949D01*
X149242369Y-88939443D01*
X149184570Y-88944703D01*
X149042022Y-88957675D01*
X149042017Y-88957676D01*
X149037203Y-88958114D01*
X148839572Y-89016280D01*
X148835288Y-89018519D01*
X148835287Y-89018520D01*
X148780172Y-89047334D01*
X148657002Y-89111726D01*
X148653231Y-89114758D01*
X148500220Y-89237781D01*
X148500217Y-89237783D01*
X148496447Y-89240815D01*
X148493333Y-89244526D01*
X148493332Y-89244527D01*
X148382483Y-89376632D01*
X148364024Y-89398630D01*
X148361689Y-89402878D01*
X148361688Y-89402879D01*
X148354955Y-89415126D01*
X148264776Y-89579162D01*
X148263313Y-89583775D01*
X148263311Y-89583779D01*
X148236239Y-89669123D01*
X148202484Y-89775532D01*
X148201944Y-89780344D01*
X148201944Y-89780345D01*
X148200865Y-89789970D01*
X148179520Y-89980262D01*
X148196759Y-90185553D01*
X148198092Y-90190201D01*
X148198092Y-90190202D01*
X148236422Y-90323873D01*
X148253544Y-90383586D01*
X148347712Y-90566818D01*
X148475677Y-90728270D01*
X148479357Y-90731402D01*
X148479359Y-90731404D01*
X148512283Y-90759424D01*
X148632564Y-90861791D01*
X148636787Y-90864151D01*
X148636791Y-90864154D01*
X148676342Y-90886258D01*
X148812398Y-90962297D01*
X148816996Y-90963791D01*
X149003724Y-91024463D01*
X149003726Y-91024464D01*
X149008329Y-91025959D01*
X149212894Y-91050351D01*
X149217716Y-91049980D01*
X149217719Y-91049980D01*
X149285541Y-91044761D01*
X149418300Y-91034546D01*
X149616725Y-90979145D01*
X149647164Y-90963769D01*
X149707629Y-90954408D01*
X149761805Y-90982131D01*
X150266742Y-91487069D01*
X150272565Y-91493424D01*
X150297545Y-91523194D01*
X150331219Y-91542636D01*
X150338478Y-91547261D01*
X150357340Y-91560468D01*
X150370316Y-91569554D01*
X150378678Y-91571795D01*
X150383960Y-91574258D01*
X150389454Y-91576257D01*
X150396955Y-91580588D01*
X150435228Y-91587337D01*
X150443656Y-91589206D01*
X150472827Y-91597022D01*
X150472830Y-91597022D01*
X150481193Y-91599263D01*
X150519896Y-91595877D01*
X150528525Y-91595500D01*
X150985806Y-91595500D01*
X151043997Y-91614407D01*
X151079961Y-91663907D01*
X151079961Y-91725093D01*
X151047839Y-91771655D01*
X151040225Y-91777777D01*
X151040223Y-91777779D01*
X151036447Y-91780815D01*
X151033333Y-91784526D01*
X151033332Y-91784527D01*
X150972627Y-91856873D01*
X150904024Y-91938630D01*
X150901689Y-91942878D01*
X150901688Y-91942879D01*
X150894955Y-91955126D01*
X150804776Y-92119162D01*
X150803313Y-92123775D01*
X150803311Y-92123779D01*
X150764726Y-92245415D01*
X150742484Y-92315532D01*
X150741944Y-92320344D01*
X150741944Y-92320345D01*
X150727820Y-92446268D01*
X150719520Y-92520262D01*
X150736759Y-92725553D01*
X150738092Y-92730201D01*
X150738092Y-92730202D01*
X150785203Y-92894496D01*
X150793544Y-92923586D01*
X150887712Y-93106818D01*
X151015677Y-93268270D01*
X151019357Y-93271402D01*
X151019358Y-93271403D01*
X151026251Y-93277269D01*
X151064837Y-93310108D01*
X151096897Y-93362220D01*
X151092203Y-93423225D01*
X151052548Y-93469821D01*
X151000673Y-93484500D01*
X150685834Y-93484500D01*
X150627643Y-93465593D01*
X150615831Y-93455504D01*
X150424810Y-93264483D01*
X150223924Y-93063598D01*
X150196146Y-93009081D01*
X150199988Y-92962345D01*
X150262824Y-92773454D01*
X150262824Y-92773452D01*
X150264351Y-92768863D01*
X150290171Y-92564474D01*
X150290583Y-92535000D01*
X150281883Y-92446268D01*
X150270952Y-92334780D01*
X150270951Y-92334776D01*
X150270480Y-92329970D01*
X150268359Y-92322943D01*
X150213625Y-92141659D01*
X150210935Y-92132749D01*
X150114218Y-91950849D01*
X149984011Y-91791200D01*
X149967790Y-91777781D01*
X149829002Y-91662965D01*
X149829000Y-91662964D01*
X149825275Y-91659882D01*
X149692493Y-91588087D01*
X149648309Y-91564197D01*
X149648308Y-91564197D01*
X149644055Y-91561897D01*
X149519026Y-91523194D01*
X149451875Y-91502407D01*
X149451871Y-91502406D01*
X149447254Y-91500977D01*
X149442446Y-91500472D01*
X149442443Y-91500471D01*
X149247185Y-91479949D01*
X149247183Y-91479949D01*
X149242369Y-91479443D01*
X149182354Y-91484905D01*
X149042022Y-91497675D01*
X149042017Y-91497676D01*
X149037203Y-91498114D01*
X148839572Y-91556280D01*
X148835288Y-91558519D01*
X148835287Y-91558520D01*
X148780166Y-91587337D01*
X148657002Y-91651726D01*
X148653231Y-91654758D01*
X148500220Y-91777781D01*
X148500217Y-91777783D01*
X148496447Y-91780815D01*
X148493333Y-91784526D01*
X148493332Y-91784527D01*
X148432627Y-91856873D01*
X148364024Y-91938630D01*
X148361689Y-91942878D01*
X148361688Y-91942879D01*
X148354955Y-91955126D01*
X148264776Y-92119162D01*
X148263313Y-92123775D01*
X148263311Y-92123779D01*
X148224726Y-92245415D01*
X148202484Y-92315532D01*
X148201944Y-92320344D01*
X148201944Y-92320345D01*
X148187820Y-92446268D01*
X148179520Y-92520262D01*
X147860500Y-92520262D01*
X147860500Y-82034058D01*
X147879407Y-81975867D01*
X147889496Y-81964054D01*
X156114054Y-73739496D01*
X156168571Y-73711719D01*
X156184058Y-73710500D01*
X164860500Y-73710500D01*
X164918691Y-73729407D01*
G37*
%TD.AperFunction*%
%TD*%
M02*
