M48
; DRILL file {KiCad (6.0.5)} date Tue 17 May 2022 08:31:05 CEST
; FORMAT={-:-/ absolute / inch / decimal}
; #@! TF.CreationDate,2022-05-17T08:31:05+02:00
; #@! TF.GenerationSoftware,Kicad,Pcbnew,(6.0.5)
; #@! TF.FileFunction,Plated,1,2,PTH
FMAT,2
INCH
; #@! TA.AperFunction,Plated,PTH,ViaDrill
T1C0.0157
; #@! TA.AperFunction,Plated,PTH,ComponentDrill
T2C0.0394
%
G90
G05
T1
X5.8858Y-3.248
X5.8858Y-3.8386
X5.9449Y-3.189
X5.9449Y-3.248
X5.9449Y-3.8386
X5.9449Y-3.8976
X6.0039Y-3.1299
X6.0039Y-3.189
X6.0039Y-3.8976
X6.0039Y-3.9567
X6.063Y-3.0709
X6.063Y-3.1299
X6.063Y-3.9567
X6.063Y-4.0157
X6.122Y-3.0118
X6.122Y-3.0709
X6.122Y-4.0157
X6.122Y-4.0748
X6.1811Y-3.0118
X6.1811Y-4.0748
X6.2425Y-3.0122
X6.2425Y-3.1303
X6.2425Y-3.2484
X6.2425Y-3.3665
X6.2425Y-3.4846
X6.2425Y-3.6028
X6.2425Y-3.7209
X6.2425Y-3.839
X6.2425Y-3.9571
X6.2425Y-4.0752
T2
X5.8754Y-3.3431
X5.8754Y-3.4431
X5.8754Y-3.5431
X5.8754Y-3.6431
X5.8754Y-3.7431
X5.9754Y-3.3431
X5.9754Y-3.4431
X5.9754Y-3.5431
X5.9754Y-3.6431
X5.9754Y-3.7431
T0
M30
