%TF.GenerationSoftware,KiCad,Pcbnew,(6.0.5)*%
%TF.CreationDate,2022-05-17T08:31:02+02:00*%
%TF.ProjectId,logic-breakout,6c6f6769-632d-4627-9265-616b6f75742e,rev?*%
%TF.SameCoordinates,Original*%
%TF.FileFunction,Legend,Top*%
%TF.FilePolarity,Positive*%
%FSLAX46Y46*%
G04 Gerber Fmt 4.6, Leading zero omitted, Abs format (unit mm)*
G04 Created by KiCad (PCBNEW (6.0.5)) date 2022-05-17 08:31:02*
%MOMM*%
%LPD*%
G01*
G04 APERTURE LIST*
%ADD10C,0.150000*%
%ADD11C,0.120000*%
G04 APERTURE END LIST*
D10*
%TO.C,J5*%
X156809523Y-87357142D02*
X156761904Y-87404761D01*
X156619047Y-87452380D01*
X156523809Y-87452380D01*
X156380952Y-87404761D01*
X156285714Y-87309523D01*
X156238095Y-87214285D01*
X156190476Y-87023809D01*
X156190476Y-86880952D01*
X156238095Y-86690476D01*
X156285714Y-86595238D01*
X156380952Y-86500000D01*
X156523809Y-86452380D01*
X156619047Y-86452380D01*
X156761904Y-86500000D01*
X156809523Y-86547619D01*
X157238095Y-87452380D02*
X157238095Y-86452380D01*
X157238095Y-86928571D02*
X157809523Y-86928571D01*
X157809523Y-87452380D02*
X157809523Y-86452380D01*
X158714285Y-86785714D02*
X158714285Y-87452380D01*
X158476190Y-86404761D02*
X158238095Y-87119047D01*
X158857142Y-87119047D01*
%TO.C,J6*%
X156809523Y-90357142D02*
X156761904Y-90404761D01*
X156619047Y-90452380D01*
X156523809Y-90452380D01*
X156380952Y-90404761D01*
X156285714Y-90309523D01*
X156238095Y-90214285D01*
X156190476Y-90023809D01*
X156190476Y-89880952D01*
X156238095Y-89690476D01*
X156285714Y-89595238D01*
X156380952Y-89500000D01*
X156523809Y-89452380D01*
X156619047Y-89452380D01*
X156761904Y-89500000D01*
X156809523Y-89547619D01*
X157238095Y-90452380D02*
X157238095Y-89452380D01*
X157238095Y-89928571D02*
X157809523Y-89928571D01*
X157809523Y-90452380D02*
X157809523Y-89452380D01*
X158761904Y-89452380D02*
X158285714Y-89452380D01*
X158238095Y-89928571D01*
X158285714Y-89880952D01*
X158380952Y-89833333D01*
X158619047Y-89833333D01*
X158714285Y-89880952D01*
X158761904Y-89928571D01*
X158809523Y-90023809D01*
X158809523Y-90261904D01*
X158761904Y-90357142D01*
X158714285Y-90404761D01*
X158619047Y-90452380D01*
X158380952Y-90452380D01*
X158285714Y-90404761D01*
X158238095Y-90357142D01*
%TO.C,J9*%
X156809523Y-99357142D02*
X156761904Y-99404761D01*
X156619047Y-99452380D01*
X156523809Y-99452380D01*
X156380952Y-99404761D01*
X156285714Y-99309523D01*
X156238095Y-99214285D01*
X156190476Y-99023809D01*
X156190476Y-98880952D01*
X156238095Y-98690476D01*
X156285714Y-98595238D01*
X156380952Y-98500000D01*
X156523809Y-98452380D01*
X156619047Y-98452380D01*
X156761904Y-98500000D01*
X156809523Y-98547619D01*
X157238095Y-99452380D02*
X157238095Y-98452380D01*
X157238095Y-98928571D02*
X157809523Y-98928571D01*
X157809523Y-99452380D02*
X157809523Y-98452380D01*
X158428571Y-98880952D02*
X158333333Y-98833333D01*
X158285714Y-98785714D01*
X158238095Y-98690476D01*
X158238095Y-98642857D01*
X158285714Y-98547619D01*
X158333333Y-98500000D01*
X158428571Y-98452380D01*
X158619047Y-98452380D01*
X158714285Y-98500000D01*
X158761904Y-98547619D01*
X158809523Y-98642857D01*
X158809523Y-98690476D01*
X158761904Y-98785714D01*
X158714285Y-98833333D01*
X158619047Y-98880952D01*
X158428571Y-98880952D01*
X158333333Y-98928571D01*
X158285714Y-98976190D01*
X158238095Y-99071428D01*
X158238095Y-99261904D01*
X158285714Y-99357142D01*
X158333333Y-99404761D01*
X158428571Y-99452380D01*
X158619047Y-99452380D01*
X158714285Y-99404761D01*
X158761904Y-99357142D01*
X158809523Y-99261904D01*
X158809523Y-99071428D01*
X158761904Y-98976190D01*
X158714285Y-98928571D01*
X158619047Y-98880952D01*
%TO.C,J10*%
X156904761Y-102357142D02*
X156857142Y-102404761D01*
X156714285Y-102452380D01*
X156619047Y-102452380D01*
X156476190Y-102404761D01*
X156380952Y-102309523D01*
X156333333Y-102214285D01*
X156285714Y-102023809D01*
X156285714Y-101880952D01*
X156333333Y-101690476D01*
X156380952Y-101595238D01*
X156476190Y-101500000D01*
X156619047Y-101452380D01*
X156714285Y-101452380D01*
X156857142Y-101500000D01*
X156904761Y-101547619D01*
X157809523Y-102452380D02*
X157333333Y-102452380D01*
X157333333Y-101452380D01*
X158142857Y-102452380D02*
X158142857Y-101452380D01*
X158714285Y-102452380D02*
X158285714Y-101880952D01*
X158714285Y-101452380D02*
X158142857Y-102023809D01*
%TO.C,J2*%
X156809523Y-78357142D02*
X156761904Y-78404761D01*
X156619047Y-78452380D01*
X156523809Y-78452380D01*
X156380952Y-78404761D01*
X156285714Y-78309523D01*
X156238095Y-78214285D01*
X156190476Y-78023809D01*
X156190476Y-77880952D01*
X156238095Y-77690476D01*
X156285714Y-77595238D01*
X156380952Y-77500000D01*
X156523809Y-77452380D01*
X156619047Y-77452380D01*
X156761904Y-77500000D01*
X156809523Y-77547619D01*
X157238095Y-78452380D02*
X157238095Y-77452380D01*
X157238095Y-77928571D02*
X157809523Y-77928571D01*
X157809523Y-78452380D02*
X157809523Y-77452380D01*
X158809523Y-78452380D02*
X158238095Y-78452380D01*
X158523809Y-78452380D02*
X158523809Y-77452380D01*
X158428571Y-77595238D01*
X158333333Y-77690476D01*
X158238095Y-77738095D01*
%TO.C,J7*%
X156809523Y-93357142D02*
X156761904Y-93404761D01*
X156619047Y-93452380D01*
X156523809Y-93452380D01*
X156380952Y-93404761D01*
X156285714Y-93309523D01*
X156238095Y-93214285D01*
X156190476Y-93023809D01*
X156190476Y-92880952D01*
X156238095Y-92690476D01*
X156285714Y-92595238D01*
X156380952Y-92500000D01*
X156523809Y-92452380D01*
X156619047Y-92452380D01*
X156761904Y-92500000D01*
X156809523Y-92547619D01*
X157238095Y-93452380D02*
X157238095Y-92452380D01*
X157238095Y-92928571D02*
X157809523Y-92928571D01*
X157809523Y-93452380D02*
X157809523Y-92452380D01*
X158714285Y-92452380D02*
X158523809Y-92452380D01*
X158428571Y-92500000D01*
X158380952Y-92547619D01*
X158285714Y-92690476D01*
X158238095Y-92880952D01*
X158238095Y-93261904D01*
X158285714Y-93357142D01*
X158333333Y-93404761D01*
X158428571Y-93452380D01*
X158619047Y-93452380D01*
X158714285Y-93404761D01*
X158761904Y-93357142D01*
X158809523Y-93261904D01*
X158809523Y-93023809D01*
X158761904Y-92928571D01*
X158714285Y-92880952D01*
X158619047Y-92833333D01*
X158428571Y-92833333D01*
X158333333Y-92880952D01*
X158285714Y-92928571D01*
X158238095Y-93023809D01*
%TO.C,J12*%
X156738095Y-74510000D02*
X156642857Y-74462380D01*
X156500000Y-74462380D01*
X156357142Y-74510000D01*
X156261904Y-74605238D01*
X156214285Y-74700476D01*
X156166666Y-74890952D01*
X156166666Y-75033809D01*
X156214285Y-75224285D01*
X156261904Y-75319523D01*
X156357142Y-75414761D01*
X156500000Y-75462380D01*
X156595238Y-75462380D01*
X156738095Y-75414761D01*
X156785714Y-75367142D01*
X156785714Y-75033809D01*
X156595238Y-75033809D01*
X157214285Y-75462380D02*
X157214285Y-74462380D01*
X157785714Y-75462380D01*
X157785714Y-74462380D01*
X158261904Y-75462380D02*
X158261904Y-74462380D01*
X158500000Y-74462380D01*
X158642857Y-74510000D01*
X158738095Y-74605238D01*
X158785714Y-74700476D01*
X158833333Y-74890952D01*
X158833333Y-75033809D01*
X158785714Y-75224285D01*
X158738095Y-75319523D01*
X158642857Y-75414761D01*
X158500000Y-75462380D01*
X158261904Y-75462380D01*
%TO.C,J3*%
X156809523Y-81357142D02*
X156761904Y-81404761D01*
X156619047Y-81452380D01*
X156523809Y-81452380D01*
X156380952Y-81404761D01*
X156285714Y-81309523D01*
X156238095Y-81214285D01*
X156190476Y-81023809D01*
X156190476Y-80880952D01*
X156238095Y-80690476D01*
X156285714Y-80595238D01*
X156380952Y-80500000D01*
X156523809Y-80452380D01*
X156619047Y-80452380D01*
X156761904Y-80500000D01*
X156809523Y-80547619D01*
X157238095Y-81452380D02*
X157238095Y-80452380D01*
X157238095Y-80928571D02*
X157809523Y-80928571D01*
X157809523Y-81452380D02*
X157809523Y-80452380D01*
X158238095Y-80547619D02*
X158285714Y-80500000D01*
X158380952Y-80452380D01*
X158619047Y-80452380D01*
X158714285Y-80500000D01*
X158761904Y-80547619D01*
X158809523Y-80642857D01*
X158809523Y-80738095D01*
X158761904Y-80880952D01*
X158190476Y-81452380D01*
X158809523Y-81452380D01*
%TO.C,J4*%
X156809523Y-84357142D02*
X156761904Y-84404761D01*
X156619047Y-84452380D01*
X156523809Y-84452380D01*
X156380952Y-84404761D01*
X156285714Y-84309523D01*
X156238095Y-84214285D01*
X156190476Y-84023809D01*
X156190476Y-83880952D01*
X156238095Y-83690476D01*
X156285714Y-83595238D01*
X156380952Y-83500000D01*
X156523809Y-83452380D01*
X156619047Y-83452380D01*
X156761904Y-83500000D01*
X156809523Y-83547619D01*
X157238095Y-84452380D02*
X157238095Y-83452380D01*
X157238095Y-83928571D02*
X157809523Y-83928571D01*
X157809523Y-84452380D02*
X157809523Y-83452380D01*
X158190476Y-83452380D02*
X158809523Y-83452380D01*
X158476190Y-83833333D01*
X158619047Y-83833333D01*
X158714285Y-83880952D01*
X158761904Y-83928571D01*
X158809523Y-84023809D01*
X158809523Y-84261904D01*
X158761904Y-84357142D01*
X158714285Y-84404761D01*
X158619047Y-84452380D01*
X158333333Y-84452380D01*
X158238095Y-84404761D01*
X158190476Y-84357142D01*
%TO.C,J8*%
X156809523Y-96357142D02*
X156761904Y-96404761D01*
X156619047Y-96452380D01*
X156523809Y-96452380D01*
X156380952Y-96404761D01*
X156285714Y-96309523D01*
X156238095Y-96214285D01*
X156190476Y-96023809D01*
X156190476Y-95880952D01*
X156238095Y-95690476D01*
X156285714Y-95595238D01*
X156380952Y-95500000D01*
X156523809Y-95452380D01*
X156619047Y-95452380D01*
X156761904Y-95500000D01*
X156809523Y-95547619D01*
X157238095Y-96452380D02*
X157238095Y-95452380D01*
X157238095Y-95928571D02*
X157809523Y-95928571D01*
X157809523Y-96452380D02*
X157809523Y-95452380D01*
X158190476Y-95452380D02*
X158857142Y-95452380D01*
X158428571Y-96452380D01*
%TO.C,J11*%
X156738095Y-104510000D02*
X156642857Y-104462380D01*
X156500000Y-104462380D01*
X156357142Y-104510000D01*
X156261904Y-104605238D01*
X156214285Y-104700476D01*
X156166666Y-104890952D01*
X156166666Y-105033809D01*
X156214285Y-105224285D01*
X156261904Y-105319523D01*
X156357142Y-105414761D01*
X156500000Y-105462380D01*
X156595238Y-105462380D01*
X156738095Y-105414761D01*
X156785714Y-105367142D01*
X156785714Y-105033809D01*
X156595238Y-105033809D01*
X157214285Y-105462380D02*
X157214285Y-104462380D01*
X157785714Y-105462380D01*
X157785714Y-104462380D01*
X158261904Y-105462380D02*
X158261904Y-104462380D01*
X158500000Y-104462380D01*
X158642857Y-104510000D01*
X158738095Y-104605238D01*
X158785714Y-104700476D01*
X158833333Y-104890952D01*
X158833333Y-105033809D01*
X158785714Y-105224285D01*
X158738095Y-105319523D01*
X158642857Y-105414761D01*
X158500000Y-105462380D01*
X158261904Y-105462380D01*
D11*
%TO.C,J1*%
X147905000Y-96405000D02*
X147905000Y-83585000D01*
X153105000Y-96405000D02*
X147905000Y-96405000D01*
X153105000Y-83585000D02*
X147905000Y-83585000D01*
X153105000Y-96405000D02*
X153105000Y-83585000D01*
%TD*%
M02*
